<mxfile host="app.diagrams.net" modified="2023-02-09T13:49:27.573Z" agent="5.0 (Windows NT 10.0; Win64; x64) AppleWebKit/537.36 (KHTML, like Gecko) Chrome/109.0.0.0 Safari/537.36" etag="YoG892P7pj7LllaiJ3zN" version="20.8.19" type="github">
  <diagram name="第 1 页" id="FU833BFdBqmqK7DbwmGB">
    <mxGraphModel dx="1222" dy="682" grid="1" gridSize="10" guides="1" tooltips="1" connect="1" arrows="1" fold="1" page="1" pageScale="1" pageWidth="827" pageHeight="1169" math="0" shadow="0">
      <root>
        <mxCell id="0" />
        <mxCell id="1" parent="0" />
        <mxCell id="LMlnShUBKolkGBEQVCgW-11" style="edgeStyle=orthogonalEdgeStyle;rounded=0;orthogonalLoop=1;jettySize=auto;html=1;entryX=0.709;entryY=-0.029;entryDx=0;entryDy=0;entryPerimeter=0;fontSize=20;" parent="1" source="LMlnShUBKolkGBEQVCgW-3" target="LMlnShUBKolkGBEQVCgW-9" edge="1">
          <mxGeometry relative="1" as="geometry" />
        </mxCell>
        <mxCell id="LMlnShUBKolkGBEQVCgW-3" value="" style="shape=image;verticalLabelPosition=bottom;labelBackgroundColor=default;verticalAlign=top;aspect=fixed;imageAspect=0;image=data:image/png,iVBORw0KGgoAAAANSUhEUgAAAOEAAADhCAMAAAAJbSJIAAAAkFBMVEX///+2JTeyACK1ITSxAB61HTG0Gi+xAB20Fy2xABu1IDP68fKzDij9+fqzEiqxABrsz9LIaHL15OavAA/AT1utAADeqq/co6ny3d/GYWzLdHz57/DqyczjuLzt0dS8OEjXl53Ti5LOfYXdp6y9QE7jt7vHZW/DV2LUjZS5L0DRhIu/SlfYmZ+8PEvMd3/ow8cTcgpLAAAgAElEQVR4nNU9iZayOLOQEGQJICCbIKKiCNry/m93s7CLaC/zz9w6Z76xlSWVVGpPlSD846CHyTm4VnZx+ypLURTL8utW2NU1OCeh/s+//h+FsL7bOZQAwKYiy2gIsqyYGEgSzO37Lvy3B/oTcM7VTZKwSfBiqFgY7m9FxKG47SG2JIY4kk0sqXl1dv7tIX8DHN8WJawgRMaOxaIK6tQxnq4ynLQOqqgk15hkGrAk2v7/h8U06mOpYpmMWNWibMcxi8PaD64POyo2m9tmU0T24xr4dRizO5xdFmkWmREZq+Wxfp6L/xDo5wsGiqYA8FXVlOr09em4MbGW21UW7JJ1mqYh+W+d7IKssnOEzc3xtKbsJq4POWD34uj8X+U/9UXChDLVsqrJEPXkWgBQVOd1/HpVjHh9PkRAKq70FqOuyPojhIG9+x+O+0MIjxiQsUmbgKydvnsoShSsP10LYx1ECn7syPVOsAEESYCP/6096d9URTOtm092Vnoo3e0POKNz3lrlISUE698sU1PU3P8HRvojiK8Aa7K0vxP0kq2XBz+f/TC4eduEPDLYS7KGpcN/QYSEW8mE5somk58+rI3/Wy6hnzfWlj5sK2Fogu2/TaxhZMkaEO+GEN9B/mv0OOh+DrJYMO4i0GQrSv/koT+DMJIIU/gijC8p/painKtUEGrd5YR9SdG/tY7O1kJI3ZCB+Cj/G/YeHHrJUt8UwmrWGxUhy/439qNxILxA2qwFI7Psv5pkouTF/V+h7WaGkG4kwseq/7mq4ysmBF+JYFy9qh1UeMh+uBGdZo0qBZXD7+PKI6uafAFoKv9b2RHmAGLxLAiZN5jcw8pNmo9GktnFx5RrWOo+o/pBYIrueJL0g5eR/ShiMp//w+1YrQiPIy8+ecfheEJLOZL/xUlQYGDK0vHT5xkuoFCWClxdhLTcbweqqX50AzKVhGer1d+hsAgJNMlAYqEGUTz+JUJmHkELqKpKtOjic5J1dv5RUyBElC4UhF3L3fQUEF9ALeiXFTRRsvCQP4OjSt5UC86mfBJUlSxqSAHloY4N4zusQed3w5LctJZM37kqlgWD7vew3DhCrZlQ/ZgufgxpaUKLUEvmPu/8FIuiiLffl9A31xWjCInmnfyxdhVKG+stWOFTd8nZvZLJtaD5PK9/C3eygOJaSM3tdImItrXCpig/6Od47t7XUJVQFLcPBBgR3m/Yk4kWaNgK2HdPMrZmKqxFsozZL3FYAn0DoEpQOErr8Q/xqSC7Lw8CJCqXDbBUCxbZdyd7h0GLT4Bla0t2pAj6VRRSQEj0oUKw+ccs5DWSEd4JoTnZDCE1fZnwMBRRNClbxKZsSuU3RJiR2BhtyIe0QCi/kTV18y0S8QiZoxkKNUayvH7xlF9CYEF8iwnfnjC0syWLskSxMXKkWEVQp8m5EgGE4MNNsy5LAIhpTwRe7SIkKwRBlNwVLE3kQ0JkVJxjaAXzD/odbCWRCCQ9jyY7UJcgXDG5EYuKdOw2zk5DouaeP3k0kQ9Ea6GjTlaithFsBAEm1kVwndKjEeW6UKmitP0lNs9g3MjMnYW1d3r6xVJLJrv0UsHD5dVvpiha9QfPVnHgiJBwsFqCpgVMDX6FOaY6xTOcvLVwVgk1/bGi6kAZQUfI1BnNyWl2xZcpTkyACxEf1nu+mqo3QdgQ9VoBIlnJM6FRvCOix53dbqGUCY4oy/BP7Y0UayaZtGhp4iKMnpCh2sF7VcsGgRBjvKUyA5KtW2iE3L+gCOYZinGLyH+mBv5QMu4sCGxBh0uDfTBGMQUfe9d3T3ckMtYIEB4CRIAlNycIXiuJYPhqPitNJ9MCrT/zOZ4tkTC1cEaL6eEugacdSsF4bxCcsHK1MdFnUqDUglER0pa3Qqig/PWI3FCoJNH6iI+9h8ASCXeuvSUhFFra6/G8gbuLAdYg3ptwT/+2EBGo23iLH6/vWXtJM64/gEAVVV/wrcWNvUHgA6Y5D8bav9q5SNRQhA9EIkpFmNwkIh+XaMaxyJjIyP4ARTJT7k64m4ua0noFxd++KE5PNnDLG5DoXD5kcZmT6Mpd2Ll/gOJJFVe1cC2XpU+BlDdmTWNM7apDVQ+/mMBuY3FqCMFrRtM8sbwK9erXKBIm49bC4Q2CjiouklR2E92MfbKBArg6krni7T5zbVhYck2ZMCreDW5/IEreL9nNzhLVnXB4x0ROWJwTFUSO8s1bKBDd2Cci5bQN+3TToGmzT86EGpPSBUQdmqq/M5AfhJ0q/kZopOR2n5Dou+uOiug+r3JtI5ezQ2LcNlYCIDayQj/oVCZwDLeuZo+xOUiaaGYfDHB/JSxQVH8s+h0ApUC4v0VQ2Mpo8/xtBaAoMbwohmx3xRbB0KKTUYMWQ30lQnAY3xqsXhDFFMq7EEgQ/FCBM6AGKsE336u4Z9cdUkoj5X2yTJjxAYqhQpEI6RpK9Gey7A2GAb2M76Wwe1UF3m9D9irTJ9dq8Gdq+E0mG6W2PjGo/QFDCyvMuWACqJpJP1EMmTSvqSeH+SqIKdFgSLVR7r4gNkbVrtwWWB/Rnq7Wgm3Kt0+RGsIWk/tC77sE4HiKaDKic1YtOheCoWher1VOsBG1W3U9EMNKRJSrUnIVV+wtlSkq3fsq7zPvqOOFwg3hH9iLhLxFQ583YBaBjl2l4zTogqHI2R1EBopCbXeKIvnEvzrsnIJiL9NFd8gmhUr3nPRDF/fa1Q1IGcY3YU2UPkfQfhAsOMoEL7aJ9hQhBHCDzgwoGFAEIRNHFNd3isMcnDWiFovWN9dCl6F6FqLvuNGdImL/39GlkwjnXL9EbAqwXFN9lBI151hR8Z3NUUXU6pe/54HbyLgSrt/Yv0ZF1C1GKTFgYz4A8DGGRFzgA+U4Ivcn3gGyvhNOu2VCheUZgfUaMkB0kLX0jZcYHt1+jP0RC5ZuqM/xY6BwJkQfkFKp6X1jSQxpLeQIzCmBLyBVIY5171vRLCrgIJNLdCPOrZOGCIcxTZP8izQ4jyZlwmSHiNx3/jGEnh5j+A3dpoREG81nbfbXL6HbSC4EZ/uEoCZjIJniLToerlmWXQ/HKBdNCWBZm14qbx2yQ8iH1feChaecaKifW3BH03wIWfTp5Q1xbChXVHIwRlAzgZVvT8lTcqLuJKdHTl2HYxRBrnTk2j37PUSZsDWnzvhXkNDJCK0PN2GcW1y/2jHOMqI+hEGeJUsbSk+yHGA0omb6D+Bq3MXafxjkMayQ6EnqZ/FFDRLZgj+MRa7J8DBf7gnJadiKzp+MLz5HFp7ezH65YDJJHw4kMYkMh/CTSyvTrIQjWW89t7ZvR7hWyXgYinE5XD9Fup0/Z8W6f5OGzBeW9MURlawfLotAh3w0P/DOCuEKIiEF5NOFqInm2+dv6cjwhVgSPYLQtKrvphWER8scPAH7zGPe2pCzoG9G3i+QCgh+wKFybVULJtUxVKJuQfedC02XOIPA/Qpg7f4Ta8a4o+FDOMtSF6ho7VnDJVsrQr1679T0gXwRrlRT11T/rojtHU4SVNEsz7gPhkXBxMFPgybGHZjjh+FFj3lm4XwwA9tMuMjgjSptKNDSHeqS8D1buJsmVGi+b6VYRIEeKw1G2Rjmo/0nr66/CQoZ19VQ2rQS7lDOTC7B7YxN0NvehhvHFlSW338wcSZs6DScyT+FdIdEU0yJHgKABNyhr8H4kjEPN+/6RYTSrzPQnEjqZ4zb/voGy/snFH1PrIW4AKteCPobIcPmYXrl6PHk6UJN7fITpfAkEfaUCWvqNo2dNBzOTknmWtaInmRsOnFmwh87vgdQo46tajeCWKrRVz15ixxLoxHGjBB299ayJkJRWppkWyaLTn1AsasKzGFkRQZAcxyVBlBEaAWO2JIVXB3/JmppbKUWRSSGJ4uuKX4WA2dLBoUuRAhKF5p9Tf/DwhnIC/Z+aGlfQnARqLNP3tJI8sF1IlzO8rMb4iyvpSmE/2IBOexASxdQYnsA9Yacvr1k3NpNbYsoajkkqjyORJX69S4n4UuzXkuMCEmJ4DJ8ZBFBHMaJcLLYw51yMzGidWWkoeHbB+aO0cDbC+PbiEMzftdA6ik0zYMfVSmQDJXDVcQIih7NgneFREIvVepQQmSrso2bMCUTqKs9KIV1FpL7lKmkWVuDMXyUjuUDjYK8/+Daozp4+shFsS6BDDFkUuGMNYuasQcsmoyEjoRRIunVIkZITQ1ueW4kqiiiKEemnrhYJSj3Tt+kscOCTnjB1UcOHZ8vjPYJhjQm1HGwxs2UNvugjiSMQO5QZ+uNb6FtoxzrnrFWXy1iaBEkrnxH+ztqqWtEpvoCBFCK16CLvcRYfbBpCFs/BZQ+Ux4bDKnr1AkZLLE9auNw4P5v/aF2zu042AMi2MK8VQnSVr2prmQRX+zErQzWhtfukcQFuKyVUriv1rmk17hLT/pCIhP+emsqacqHSijBEACAKIa2KxGwFh3bYWs7Qo0sVACIhjWQGUlhAaApDWL+qnEKkEVMXrBTRyIaWkZvuCL693ntyxgHglQJNym8mO1gMkY9uDzfGn6noY+kfHwlGII0dCK6D7kn4DVP4ENqnQAo3+3Z+q+y4QxEgLvSycO1bhNVGdGtZyMZV6oAseyXW6F7gRAbQmYCw/d03RIBTWhroGDbD7YmnfacZDID+lF112eKYfg5hj2KGrdczMmaB1ikgXEhRVpnGsYWETbmnD5L1RmfrS6ud26ge0dCGIWQF8KV5Y32VxZD9RgqH6wg2W8QagXR71zXlSHDkBCIzDE8g5dz5IxE0hRB5tfD0W670kyxe4jtU8Xm+Vk+pUiZbqhEIqy6rsBWsIFv4HLnFrAJsTyjCF9y5h7WF9eme3BlIzM4+RtEMcQP3z9SBpjkQHmthYTqEoJCpYgIEeEhnnAX9g8RMRlmYtK5JhkJE+4EN3bfWVDUkGiqRNTtYRM8aSDqVNHVOy6q+18SEqVYwDgLTNWgNjPFUDpTN7ftFFQuLditSYfiHEn7mEiSL03JhLI3m26JIT3biaFK+A8/P+AQFkX5FyVnIfZkXNOgmEJ5ldHy01Ur6JfloLGzMduvRK2sdSKfRdlUIKNSBSkKgl9cPZsLsLbQyUW1nbOBSpQCIkkSKsmi3pTcFUTBfsrAOypSGjfEa2R7FbiJUCgbevYHYbJjIBPTB48ffGwEm4gXNBl9fd9Y3I1Gz37x21ARRXv6qK15i6KbsqXuY4jN1YJOe2xfxhy44dEbvDQElGvShKphgpEUp9JTjAeT12Y9A4qJpm64zPFMJp5oLKVis/iXIm12ZJUbunkR2NgF1+gLNK5QqKzyJl3Cx5bQUqlKYzfqhfBpJJ9rsKTmtGKJILMrVoo4SF4ia0gYzJ5s5CO+dN9eCdFqePwQQpB3YSJEUkCd7AQrKRME0Q15/EtEQGyseohfKNvbFSHAhtNKYu+UImto29tmDTe2XSiRcABke9XKkvMhbpxcsBQZUQ8C4GemiNwIsd1xzwsdQHgNGKdoXJAVryebM2Gx9LXLlOo1xb7gawcbDv6StLjVrykYlIehzkyIGwOMuLRQAFAI89CxlmxcpMivMRR2zbZvXgx6DDOTOi0KYhWc8SCTNU9jC428dLpECG47mUbDYkkFxkBYZdZAPL32oesq1JB5q3YTOedjykvtAS+NqNTGRKc8UkJ5CY+BBIbWQJoXMvUdb91CWEu4Tx3yH4S0wZDCyGL7wlNOQoafNtpa7hxFr/zL4cn393nxCM5nv4GTEZ/8wGC83R/Iw4oZBDTW70Totdgns9zHqsZOcA19kX/1IBQM7PWOMl2l8n2YLHUhz0+eOLahQDANj+ubFsVXNHp2MYZ0DXEHbpy6mJhlhErJt9pEp9lZl0pFXBy9grr1a8i34USkEur4SzwczyaJBz/RnAIikLbP+WEna8Yj+8Wn86Uz+jzxn9KNE6eAJgoNrKehXprzxIVFd/VF7m4dQKXMKqBkEFtiQ+HBgVRANLa5oGvm9gnzDaNtJYX0iqjOAE1BjVMLuforDBtnwaIa7qw6iTEYjSm+SGvVPWKfD347KqqTzso259BeFXrKkZZ2aAKgr9PO6lsxhVsc3or85RryfBtxOZ3ianako9eVxgLUjgtfpWjmqaMOhH5JLMvDm4SUSoGEv28OjS/zg1ywZ3iFocMXcTHmYDTErxw2RMxAPvq9+ypQHVyFgb1MsK2EctlGMDhxag2C+Ed5q68wZEkAYhcXfTHmFkVuMq7Ypno5z2FJ1qRTfojpXevu8uBSaxTfE18v4XkSXKHzEaeYpim+xFBvflgKcBqj7AblXdqbq9e9a8mWgb57lximH60+GL20hGcAp0A1YfialwpU9L4njXs/dch6vHMsbHc66Pi9iHLh8T6XOCy6mIm6sAu/Ly0oNLb8UsK80fpnIdi8N7vPD+oy458diWjY+BNvUt2o3MpSLPnsgSl4ceoBb4FKqbOYY7j05IpvFFh+Ej5wTHJ9E6QhKlutK29uaN7BRcWi5yKmtZLGsDb0dbpe4DQEvjgDcRdmOuSKjfxZtp2i73DjPqsUNU4+y57hE71kkS/CEoaNt2Ipbi/c+CyAj14WJUxGsPuQJlyXuX99ONOcHx7NEPHing3PT+AbsU/+WcSQG59E7C/wyGaLE03dcJLzYTlHn0hE1FgOK/KeYjk7MwIYrOSvZhsuJxNRzXsCdB/i5X1Ik0DYN+5C5L7hNbD8klcA4+VM8HVBY2nsyRLRwKTF0JjRbHGO4FBnn8PwR7xUYHkrmrpci6ZR75qBLOtVOiD2MeMYdD/qy6SduMPx4mXqWNK8eXSN2Ycm/aQMMYwtkL9J9B3P3pszJ4CyGsp276bkrJcX3NmuBvlAS6aqMKd5b/JG8z7vcwaEU1Xs49dIz8jeyuS4z8qF5ru6PEVKyJNaxbaMjdNi/oJAreiyDTxrLxxs/xO4taEaIN7faTWHk4EZa86J5D9+cDqqbpid+Y1U3D+HjGtuqPhA6J8rpq0JBkSFMI3Rz0Jj+744f0zBGEP7tW78HppHrZsxfKKBrTdEAkFD0CUiFs1PAmTNNn8hK9J79KWZI12tZYth4Sm/g+5cVCMvliVyA7FC9TZdCIEZCPgTe5Ybv/PbcFeuTDTO3aZxWMPiOWDp5LfvQu+N4RtxUTFuwcCUi7KwRh1ri5dmF5tCM/A5l1hlPWNANcwMmwrVlsJnGfktUDoMH42rj43osnwSXot3mOg/LC67nLKYK0yq8UfPHRZdc3kJh6djqJtBBzQqY3Qa2R9g2MaE2IiUr+Vxhykgwjsg4rBeUncFYzS8OUaTNCneyaFHEcfc3KEzsh7mxvwE+my89eicClrcXXbtSGQLXhXL8BfJWveGSdhzbIxjSHDpM2xw1hzVot6g29Opg+/BIHvEGWKoeYscsjobFln9SsZCkC1daFxvGHTx9Ln0TY4h2dQdhpDqjFT3pBGg+hvng2bQM1cDk97o3qAAkC/nsmaBAIgxacuQSP+lCwXmoRT5o+HcmdkGQ6PHkEYzqbHAHITlzxgpJAwYWTi6j5Tx1s1QHut3Iu50FTSi1BRED358chqa+xC0OeuXY4j6PDA2D5S90Ex7/ydLiLAkFnv5OfGaU7z8SRrd7iHsiTpzI1ai/UnSFuciaI4pMQxpxnKLIXV80vNZLJYpfnsJIbYi36HHEZ49gDbjex8JxMRm2H2RUUSfKG3copt9NMew7DBktHlrciymme7vAZcnvnTRTPEPTkpLWbIdrCNhg76EkmBYvD/05azZGd6BZBo+yoUQUh96gJl/lKag0HgY1eyN7yKI2jp08YPM2nFKpleGIczX4Vs9LCWYoZJgSDBdxHC3LaAlNbnA8xGZzCQYih2GlDYpR6A5ONdnF/jyArbV2GJsQsKTNX36KnYZBJKFNttFBpJuhIhgKL7F8AgGWuWnthNlL1Stib/JZkDHQg5Y3MMvhCcvHHi+iZW4yHAYhqIgyhfhtugcOQ4jFuaHIRnKXqjzh2dZDqEZodl90aauAA0hs994tlRH3tGXJlsxGNLEMsMJbxzDD9ZwoJJ8uIasUEIm0DPnU+CLYN67LxLGHcFmWijMcuJUD90JhsM11JYylro1nN2Hjj8oXH22b+abfTgFyl6g/IIVMCXVGnxBBCd8LjNzYbGxJwzbfYiBBXK7sxPnTiw1+3DES3Wem+S7GI8TifWw/nrNS5+Ashf8QlEyGIbD2M5GgzP1hF5g2PDSr3rcwUWbOafY8NKRPNRZPa/QhWClTpWXBXk4BXqeDdJEYz3wn4CLbPnSfXFV4FwhkxcYzstDY2s9V5lo5OFIpzFYYGSDcCrUU719QaeZwkNpawecvCcHeGOLyd0Xyrzj8wWGL3Wau6pMFJdGpxnppQY9TpJIjMCm1x9e66UTcKQ+Jm83jFg2Z6DhYPMhtRcYbl66MYyrWyWEs3UE3+ilzLbotjn0BV3kgcVhlM5IrvsF22ICttwfbtVVdvxV2d6zJ7iz0SrSfD4FwbBCWWhNMGxsC3N/qCfMxQlKYlEBqzP8A2pbbCf24cG6aRrLE9S9bmGzm7lsH44htEYBOOMImtIeT0D3K6heHBKycUX00mldOqMVzsQ+xLf+rGp8LoAp09KwuNtHjX04tvF1CEye+ne+tJtD94ZujPeuSmo1rYa88aG8oG1DWihmcpJkTURIHTsOX9j4voeRotrr5Hy3O2QaG3/ipzGCasrl3/tpRpBQlXsUnjIQROGcm5dmY75+UGRBUbMmnO2Fn+ZO1q6aWsR2wvw0L31taTd5X+98bSOg4epJCUJiSAFrBvByECTJ0ZMz/oWv7YBnSvo3vrY5f2mcBDbqZ+/Ae201+/CNdb0Dz9cs2MCL+QMzFnCrJPPeXx1Bfs0pIo2/NJSGPu/4HBw3oko2LVLMyQ1LPu8eKK+bZPURyjKf8jMYyMtEP4Nh4/OeTrM3YxC0Pu9x3MLxTAXJSJSU2/Yw4XFN3GIpl4bwBzD0wTPQiZWXpes5uMhw7pT2awy5yve0VeI5t2Ibt5jEnmQg4WiL5wzoNva0aIhQqTKOPjslEl9FDUIgovI1cy7MKYYvYk/JnJRuY0+T+CHrYTc7Jckn8cMMT1O3UqCJSxgSE+jFlO1kWVQmp8Mb2wlFYz0vwGpx2E3QZvFDuqfmYsBPh5aN076LAS/obTQDD47QqVmmmHlNZoGdLoLzWbCpi4i0mByW7GPAZTAgbxvz7nubKujx7GLAc3H8WyYYadah4hzBMI7/eudU5iSFsm5y0ZR5TtNM2mzR74d5uylFPjqmPozjY+nRIVM+LtDi7NHrTxG2cfznXIw4jcocS7g7AjHOxQAv3T+xNDnkuxsehl4AdeaRFyustHs90kt3I8dd1/Ml9ug/yT0SpcGpC2A0uRjjfBojuiELECVENnEXxG3zaRoKeWlA0Uou0mA9apU6B98BLdoyYz/N2RZ2s+iTfJqd117g+B3hkVW78nyaSU5UiTRC0eZXlJ373ncRxoTH7tsZfyEvqMo9FJfc630K3gEToU/sZgbDLv9yj2lOVIeMPxXdFPqcqEle29YTj+d0gsPu6NdEgDRBpFcpQ5RvDCqKOXTvvkm+4QOk/AlPL5zBsCFS2nXGqf1jN4xZTjXIa6O5iXWXnJQu2Q48/XGUm9iznfVqnBFWastsaTxwND29NoNhU2NkNbnS8XD1TOWD3MTd5/mlTbG5QfUQXe387vQQ3YC3n9iCm5nzFviJ1OnptWcMnSa/dBrM8AExFuXtpOzWIL/UoXpbnyPsvJ71Lke4F58PRWlq7tBAhfI84ebUI/wM6JkyZjE8vMgRrgpRxbKMrfLYd6N1lD5HeJLnHQGx3N82BTUoRpkATp/n3VVUpMxF5PkW1Goa7rrvxkWnFfMuzBGyUzsMjfZoLpSKqW/O8SMMZE1xO4VrmOc9ydWvPZBHWvE4HiJzcI6ZFrfsRtMpZnyhaIeyMxgmFNCZsual/CuwJkmdR7NMnBri7plBLwyRNYhJJRxdo36YoE+iZrn6LVLj8xY65YYHYh7UsK01J1AN0pyZb71sBRRLNBklHhmz1sQCTPh36CIioVBvTI+sTKX3k+R9Ccu6181G5y1mzsyEimGvoGp3VMeLlolak7DTOrSN4WvN79WSfAe16Fpu2QnqU7OETZkFtV3EdLbUcVgSY7mfnZlzTxDLChru6KMCFQzyxsbu6v2mUo8huvxxdztjeDC9qVenHHOAFdgz1CMjY6MC8hCD++jcEz+7NvTV6DaCq8uIqYaefKSnXm2+il1Yb5juhFa8DOF182N44iEtNKdqqLEQ746a1xEpq4PllCaSh8dnJ2fXJucP9UyV0dMpq/bgX7NoLdv0R8qwbFW6cFe/x2MGsDJfHLeLm9e2/L+nTPVCi2Jp4HYx+2IY/PzhgE+Oz5D6ltiW7hGSpzzH5gxpW8si9MY5a6YZXMjs/DCNVM9fFM9pSAc+Z7LtTa3EzK3qdwr40xlS4YKkwTlgw1IbFu1s3YkyZRSt07mVJGGhjpK6tNJe7meyCEd3FsO6lYXyU9O12jUVsKdvXKPuy+k54OlZ7g1fOOfhKhNrMNX6s9zdPl7nYMBRpeTBRqnX2ZXea9yvLbBH7a4Z/yu70r1kZN3PmfESw55ly2hqhYSH5py93YlOfpZ7OPLJeXxGoenFk+57uBqKgEAdCofe+t6Vfdk2Qu9klMbec01AGd7VMi0Wrl+ZHqt1ZwKmq6kAU3/Hvf3ZdWnH0XkMj6Pz+EOemVw7hr/rxcbzeXxiWlrxkJvq/pcLAlrnZeiZjMaJFepAmvhtZU6yjyiG+u1+xoyZVUrzKuaeFRzQarXcEXY1G8eZnlKzZhbDjkYbJtef0ji7ptr8RUtZtvBcU2FaFyNwJZfo06mFRjub6WgalsW26MVgKzeVOSkD2vJRxpxdH1r2mGB6pskBrbPOlhsMU50DK5U9g6HeiEIoyqwUTK+j65IF0JGJtLwAAA/sSURBVKphhskgRZPWxZjo5+PaJroXObR+J68o1a020bNlKT93ASB55MAyDkBhibNjDONSQyW5uFTYrDqWVj62FDTIMRRVl4JFC8bMYtiWniSDOd9W8sBEOxR6ugGZk8YjGXO4P9c2GdWnIcB0pa3J+nAde7Om8niX0VYJxmMvZLxllRvGGAZY3h4pFAjT74kyIVNQ5AZD+Rjc7/fgyKoHzGBYtS9j+y98eJ06ozO/7r6QgGruB/XHZ+vThCuaiTnim7VFUwvPitTrD10VkHZjTBv1MF/5GENbadT0EIz5ctRQaaNh6oBmsjxjeG6dM22CSq/KVbSrkLBdETUOod5NO19jaFAnqsUGkX1Wf3lgpuix3cmMaUdS4RlDWQ6ZKX9m/Fs/+Wf2Z7xBGsMQ1+zvGs9iuO64zNOZOceilqJhBevdtRiczJ+vE0Xlx53X+mqxULRL7u3nwoXRoOrsTEy4xdBjvs7KAh4DF3gJpSwiFhhIgJWCdbHb/EwHOcXQGVaknRx0rW8W0S5L/m0fK+e1vmbOnLB6bT2H3anEztzMptZehqqopj2h2GBo7Gom0usO2HqHu/ZPXr6m/5mS3ARDZ3QUBY9Dy7T7+ors6olJw+q1zR037GvuMUgti6dK1Xa+yYasiq9gV3MPiVM/4HbpuPIbGGMYw7ZyIo8qjFCEdFeHFwshdVP3A3xdc88Bbd1EDhWbcecmyQpw5X7MTd1E0c/RCxRtcNB/CM5+qHk7sH3Fl1+yeR20O66aK9NC0pDXE2WVCV/avJt2K4PEmNRwqSWkWYW/i9T++1ITZZXoA3pLQWhSGvJEttQPwcKDelFhWzURKmTAGZGEWt8ALuw5fFKCQRHe17UvR/VLG0iJHZWzqRoIRQc03o2ufum0JeiJH5T6CfTxJGHdMRme9hZv1YGjFg715azXX5bqlw5r0DZAREiL8UDy1Y2EOHUcB0p/1C9zAP6qYzJt2u66l6cVs9DOT0GixRq0wzrCHGKr37HVk/GdDkNn1meFDj6HavT0qdStXVEli8irFw9Xc7mO8LAWNAPH6r20vjeJbo+rqYh485ctiPXNuBb0tNVRvQEQXB5ML469Xma/qQXN63mfBhxZ4Y+g/yRTCcCLfpmdYSgrn3aieA+12dXz5n7aicvfplF+pWm/VA3SFN7V86bs9CwM2Mad6uKx0nxxHN554DXZ76HWDUb9K0o9dlsQyWlTk32o41duQP2BEsRFTJhqP6y3NdkHdfU5GEomnLG8ZwR4sob1dKmoQnTZ4rxz05jlXyxjInYWvUabO6SI9jkbVh2sJVaxcYdlhI9osHve19Uf9EbgsPZErAEmMO4rcRhT10vUlGEfFDqAq/d9W95AbK8GmmjbGwGNK9/XHlsnvQBEmvVf+8Xb3gisv0XsDFpuZisFMR5dSdAaee11seG64/4y3+mcNQOZNOpv0ZDTYao2HRp5f7cGfr2P+lvwHiXZQMw8OFVfCO+aT0GbntzCys/DFydz+rBseknMv8kb90o9mFD7kx4lbZ+ZicdOz02Nq6bOlAZ4yAapA1LF4o/6sBiBOMjawSrjYE+l/TbSnpJu6D1h8mGfmaZX0LhYdKogJWes2SityZNZryCzEE4DnynE0vXbvS8Pw+oitCRlRBnOtOZQ5CINoEAX7u7UNUxkgPxJryDa7+nI+j11EKjQ3AiJtxP0PdLGwaxUFZsy1M6k39Nm9/lCGufNpN8TKwjL2mEO94Zh6PVFNTWMj+F+IhQ+7vdE5ADt2TVoS2LcFJYdfvZ8Ih8mtflqoLV1tuE4rI2wak9LtM6CvrOtcWMysnTsF4KiNsxAEm5UG4nvJSAW3aTe0jd6ds30XSub1sSAiNjpwjjl6mXfNRmA232amzMCY33fzPVda5wQhTTMzTRuZlMgI4kkE47yy77Vd40u9nbUO497I30sSjMp0EbG/8+8mvJ+xO1Z77zV5uhPHJr0tjj1jzf1qXeetKcPaFOrRsfRjbvVNRp3rqY63KK0d57yae88auPO9D+siMRvIwbBc6koVshKLoTw8tS9kpZMBkq52R6yexAE92tlb+jhD6w8VSJQ7JAXt342D/QzPXAM+xrppwGr4f0PPzjt0sBMD8uYKPtti+/wBsz9lFeyHpbMBHjVwxLJSnMaSEEvap2wkEZM84yfHLqpQpnnWoVTZs5G9N0elrTVaS6sVwMSObmwCRjqD88u4bT6rk77kHIzjvchnUfzNcisDykzIdazfUhtie73tSQ+o2is0m/2IW16yWZDB3HmcbZ9l8wkBE/Kn/GwEMjop6aX7HH1rV6y0pH3ktWbCbaee0dF1KKgObnWVGn6QS9Z6mWa9gNmCPrYtak/fsaXFW4antr2A64/R5DaJCzxsQkYRePilvGD/Xlj+2ZH2M1Y6vF+wMt1Tp6B9nQOBTgiCONcuvvATdoshzCfS4GjG/JHPZ0pM549wJlqpnRZ0+QdVhg2kODIqepD1tP5G5uQw+m5L/fWo228UusLcoXexnMJ0ZRPsN/1pi/3+dCgo8hPfbnPg77cNEcOoucH6rIsakSKBHrMtmLnKeXQ9OX+gbq/xYTbjHurt92ueHg1ITb2sxbIequzlWB5KSzjg6VXmofDsemtfjxUTOfcCvwgmLhiRE9WX3lKcHJORBmWIwUjDLZHlXnGwtH7QsJlftJbnZC9bNpC8lSLXnjILGXZ0ODs6dbwCLhbjm4sXmGcYsg+0VYg/CAQpWDubqAchhtmuvoc5wpcQMsrFIa/X8ky6iRWCzpRY2xT/lmVPANqoBL8af3FUOK5xbbyqsGkwYdJc4l4/hvFkIk65kNmwpweWOYYsqP7XEmbOaljsO4qa9q1I93Sfidjx6Jh+kIFNPhDP5+DoXQX7hNNYYPY7vNB31ZAn30B7S3CE1EphoxLxlTSMY2XLjDHUCfWCXjteQgtyiQDj06VfsrdcT5NGRDxBT8qETwLxDQi4vU6QlH/MjF78SD3fDfr8q4vsss1E4oh7/bBWluzx+DuyPnWlaO5XPQr1zsPLF0t8vgl42XeX2kC13d0madBWvSwx2FsNxd0YKW26rGKZDebu91Y88mNFNgs+BdsTxXdNGhyFJxZ6yMEuHGaKVR/MrTVsxMlP9Aw5+yJm4/hbIluLRzK0RhoPxZF6TX7kMWUndeVVK43kWYDCdTdowC+cplb3hbVrCtu7PuaKhlEQLtTFMsD9e5PUwm+C4EqrnaEUMfTXI1cWgWi4vbs5QvVYpqteq4OFZ9yY05bGMENNXnAhUv/f3THaplRXmkqkfrrtN2ArOJOuI9LiRv2ICSZqCxPMUJvmj99COtjwzcIj+HbI3SpraqPuZFuBsLOFa0fFfgfA1lFMnR/km84QIZHXJ02/eFXAZrwuPK8VspWZuMazJ9PfDuEBfqq+FwS5SdwIkrfXUi8Fyd2fR40r5SmzWMFtj/mbVuvSp11e7uhQE46kTi9cE2m4T5jZfwQCLuRKkIrs0RomGxL6lbDLdcuXGz7swQ3b6zS+IDxs7U3ZSZnonpX0q+ZTA+1CoEt6HBO8a9Mprdcm0y5GBTaR/VTR6AfaCGn+7S8AFM4d5U3XalK0wUbQPVXYmIMKdbM3BCi29MmqyXmHdHNJjH+6xYCjuu6AK65fef8MkJ22jWnWXs5nqo2joIlb5rcbtwiwcjNl+eHfwYOlJEWCtk4W+yyiSTETnLeMT+98bD0FDA9+myZ+1299do2wZO5cUKmETnWipXhONEtgJtjU/G94x+6f5rq4iHZBKGIZPjbDuATMG4YErJfjygmPkV5QRHUJW7Y3YluVdOGfWRf8j4mR9CEUFxPKm9FZNtEsiQ3z/U8SImZmIf0pG9MKwSVGuMoiQcWTIUT4XhnojI+k9OvYStR74GeP/mEKR4mMx1qi/w/U2ghuraLZAo4i9X9JK0wCILtlqgzuBaMCtM8thMWoUSuLG80x4+fJN3OOUk4GFGuC5UqSj+yB9/BicxcHgvZjFV4ZIWfQ6sUwoMGaXZRrnGnuSP11cFoGRWBCnCOfE4zsUPPFzWiUhwsam9wXTyVXpUXSaxMiHMM/0pKTCFFMm0pG84U/9CvlC0w3K+KagjGqvFap4MUs7vJ1uZg8o6fPqanVty7A6C0Tqhx33Y1FdF8jOxohsIOk1F8UsnyR6BvCIsm03x8PpdM5TNXHI8KMfFDqT+g2q1HZjJnYYR4LmwI6DXFhrp5QU1lW21BGArGTpLm7MU1rSG4Jdc+Hbn4S7irmimuhVSx54rtsqndIMyWjvPDSulDxweFuTeKBkOdpdNfV4awI5ghOiOZhS3sguvMNjRsJRXWognVf7jqfVqa0DpS4+eVmu1RDB2rycgXtd4IOSpMvyRryBeBdZDcUW2QKIZcq00P2+usCPWpBXq0oFn+qRSchaMKTbkW4s38uwx/Q3t733hQcQcG8SBbZhgelSbswvoxhS6lyPuqacI1D2G5iYUamfCjJvW/hgSacHWJhQRH80yd1vtzJOqDD9Hw5EqEGIbnZms6K3rET+f9QyvLe12M4kKkS3xZkff+XdrVMlSSJtO2gSf3qURsB3oFPMmzhjGqDceQ8FmmBQSYuUlLnjiye/Uk/UjlZmbJ2uqvswMXIMwBPd1M4zXVa+IK692IkPfNKY+Ti20n9lWXaej5Y2lh9IpuwLOIIfj64xOqb+CsmOSdCSvl92EalOGtPM51djlR2rTH+xHHlXc1hOQLQFP5EwfCd8A4SLImbdY09mx/NLtGGHbntY0XhfZGENpWZgjrDdkT0rRo1f8EnC1Lk6c1ydGSE+qHUN9k6u3eqAhZ2z+2Iz6GkBhPCHztaBEpcPjLUThXiRotuxwgJC33gPqHIYwIjwPi3SBGHc79v1GndD8HWUzIXwSEZ/+r+FEIt8CE5somXDN9qBv/t9mX+nmjUldWaksYmmD7b+NHIb4Cou9LJW3AtN56+f3ngwqDm0cdH/F9T/jYD7Lj/jE431RFM60bXcH0Wrrb8/eH5py3VkkPP8f+zTK1vuf8fwRCYsAjhKVN4NBMtaOiRMH6021prINIwQ+q1jgBzQJDAB//C+Q5gdqmYzNVkXVG1pOsAKCozuunhK8ejHh9PtDLronO+4SoJpknYP+98Pkb0HcXDBRNAeCrYrXvjPRUbRSs5XaVBbuE9u8MadfOZBdklZ1rWNlUJxZci3fVF2D34sv5n7Rwfw1GciwtLCMFqyi67hy2fnpYn4Prw46Kzea22RSR/bgG55o7FI1wl0VIxQpidZDqf0N5+S44vi1K9GiugiUsbqr7LnVmIvROurtXhUiuMXnVQ9v/z7DOD8DZVRtJoqUMkWJiIFlA2+cbXsy22OR7DVgSwDSHTzaxtLpV08qV/z8grO92DiWGiiyP2lrKMkNcgjf7vvsPss3vgKGHhLFcK7u4fZWs9ED5dSvs6kpYTzifxfGn8H9J4dEHGVWlIgAAAABJRU5ErkJggg==;" parent="1" vertex="1">
          <mxGeometry x="405" y="180" width="100" height="100" as="geometry" />
        </mxCell>
        <mxCell id="LMlnShUBKolkGBEQVCgW-10" style="edgeStyle=orthogonalEdgeStyle;rounded=0;orthogonalLoop=1;jettySize=auto;html=1;entryX=0.291;entryY=0;entryDx=0;entryDy=0;entryPerimeter=0;fontSize=20;strokeColor=#000000;" parent="1" source="LMlnShUBKolkGBEQVCgW-8" target="LMlnShUBKolkGBEQVCgW-9" edge="1">
          <mxGeometry relative="1" as="geometry" />
        </mxCell>
        <mxCell id="LMlnShUBKolkGBEQVCgW-8" value="" style="shape=image;verticalLabelPosition=bottom;labelBackgroundColor=default;verticalAlign=top;aspect=fixed;imageAspect=0;image=data:image/png,iVBORw0KGgoAAAANSUhEUgAAAP0AAAD9CAYAAAB3NXH8AAAAAXNSR0IArs4c6QAAAARnQU1BAACxjwv8YQUAAAAJcEhZcwAAFxEAABcRAcom8z8AAP+lSURBVHhe7J0HmFXl1YXtiAoWighYQFFBUEEEC3axV+y99957773ErrHX2GJM7CbGmBgTTTTClHun997oCO5/vevcOwwjICqa5I+fz/fMOMzce+4539577bb2IvHz+nn9vP6n1s9C/1+4vmZ/PSu+njkzZk2fHrOmTImZEyfGzJaW+KqpKb5qaIiv6upiRk1NzKiu1q6KGVXalZUxvbIipldktr7nZ/43fq+2Nr6qr/Pfz9Tr8Hoz29pi1uTJMWvq1Ph6xgy/59ez9N7Jpfy8/gvXz0L/X7IQslkzpsdMCeBXEsSvmptiel1tTKsojynpdEz+179i0t//HhP//Odo++CDaH3nnWh9441off030fKb16L5169G8ysvR9NLL2n/KrNf9M+aX3s1Wn77erS+9Wa0vv9eTPzjH2PSX/4Sk/V6U774Iqbk5sa04iIpCSkIKYUZKJaJUgbTpyUX932XtVdm/7x+svWz0P+nrK+/TizoV18lFlUW/Otp02JW20Rb7OmFBTFl/Jcx+R+fxaRP/hqT/vxRtP3+/Wj53W+j8VcvRMNjj0bdffdGze23RfX110X15ZdF1UUXRNV550TlOWdFxZmnR/npp0TZKSdF2cknJPuUE6P8tFOi4qzTo/L8c6Pqkoui+uoro+bGG6Lujtui4b57ovHRR6Lx2Wei+dVXrRTa/vD7mPjRn2LS3z6JKV/+S9dVaJQwq7U1vgYNcN1cP59DqCBm/SzR/2nrZ6H/Ny6EfObkSTGjoT6ml5XFVFlUrOukP34QE996I9pe/3W0SqCbJdBN99wTDbfeGvU3SCCvuSbqrrgiai66KKrOOTsqEORjjozSQw+Kkv32ieI9douiHcdG4bZbReGWm0fBmE2jYLPRkd5kZKQ2HqE9PLNHRHr0yCjYfHQUbDUmCrfbJop22cF/X7rv3lF28AFRfvThUXHS8VEppVF13rlRffHFUXPF5VF77bVRf+st0XjvvdH86KPR+vzz0fbar2Pi228JKXwQk//2Nymp8TGtqMhKCzfh65lfZT75z+vfuX4W+n/TAqZjIafk5cbEj/8ieP1bWevHovbmm6JaVrfi+KOj4pD9o3zv3aNUAly69dZRMmZMlGy2aZRsMjqKR20cRSNGRNHwDaNg+LBIb7BepIatG6n11onUOmtF/loDIn/AapG/er/IX61v5K26SuT17xO5/VaO3L69k63v8/r18b/lr94/8geuHvmDBkRq7YGRWnfNSK83SK87OApGDI3CERtE4UbDtTeKwo313ptsouvZ3NdVNnZslO+xe1QcfGBUnHBcVOn6a268PuoffkjuwyvRJncBlEIMYeakST+j+X/z+lnof8QFxHWQrbk5vqqtiRmy5tPz82PqP/4Rk/C7X3stGh+XoN92q6D4hbLWR8nS7hQFG20oge0XeT2WjdylF4vcRRb5xs7p+P0S2l0Xj5zlukTu8stE7grLRe6K3ZPdY3ntFSK3Z4fN/7dv/j3zOyvp60rd9BrLRk63LpGz7BKRs8xikdNl0chZbJGYoPfquLmG7HXkLbFY5K3YTde9aqR1/YU7S1Edfqhdi9qbbojGXz4cLa++EhM/+ENM+ezTmC5UM6OkJL6S4iNoOAtl8NWMzJ37ef2Y62eh/5HWrKlTYnqNLPmE8faDmwXTG++/T/D8+qgVLK8+44yoPOaYKDtg/yjefZco2nqLSI1YP/IkNDkrLBvjJWRfSpj+ldkdv++4sz/n63jtCUstGhOWlcAuv1zkIMwr95RVl3WXlc/rL2tvi99hY/lXkdXn93qtFDkS3JxuXWNCl8W+cQ1fdNodryG7uYYcKZ68NfpFakMhhC03i+LddoqyA/ePiqOPjqrTT4+aCy6I+quvisa774rmZ5+Jtvfejcmf/zNBArpvP68fd/0s9At5YdlnVFXGVMFZAm0NTzwR1ddcFeXHHh0lO+9giFyw1lqRXn31SPUXpO4jiL1Kr8jrI6FbeSVZYgmqhCZn2SUlwHNa1Oxut7SLy8ous4Qs+nL+e6B8Cni+3rqR3nD9SI/ayP584dZbyr/f2j574fbbame/am+nn2+D7z9Gvv2m/hv+NjV4bcH91SKvby9b/5xll5LF13su2uH9O3z197qeCUIcuct39efI69NDSqVX5PfvHfn9VolUP12fPnd6zYFROHRoFG8j1+Dww6L68kuj4ZGHovXtt+wGODA4WcL/cxDwR1k/C/0PWA7EtbXG9PLymCqLPvmvf3UArvnpp6Lhrrui+tJLo/woQXb55AhirqwolrCjZczuCQiTBD231wqRL2ucGrSG/kY+9fpD5LtvEMUjN4riTeXPb7lFlGy7TZRKgZTtvVtUHLhvVBx+iKzokVF5/LFRedIJUXnaKVF19pnyrc+LqksvjuorL49qWdaa666JGpDGTTdG7S03262ovfUWxxFq5YPXXHuNo/7VF5wXlaefFhV6vfIjDo1yWenScXtE6W47RskO20axlEjx5rLgo0dHkXz8og3Wj8JhQyI9ZFDk67rzV+8bub2FGroLMSyZWH8+YxYZsI0Ill068tdZy8qnTK5A9YVCALpvzU89HRN/97uY/Oc/S3mO1/0ti5lkB3S/f14/fP0s9N9zff311zGjvj4m/+uLaHn9tai/9xdRc/FFUSnhK9trzyjZTlZUQpFedx0JcT/71xM6wWU2/29Y3lUWW9Y6NXiQI+3Fu+4UJUTPTzzOgb3aK6+IeglngyBx04MPRPOTj0XLr56LttdejYlv/C6Jmr/zdrLffScmvv++/eeJf/rQ6b1JH//Fqb7Jn/49pvzjHzHli8+dcvP+l/bn+v9/fBaTP/kkJv3pT/r796LtzTej7fXfRKt88ZYXnvd7Nj30QDTec3c0SGE4k0AWQcql8tSTJLiHRPGeu0XBFptHauhgBwonCCHw+bKfN+sWZBUdijBvtf5SGOtG4cYjo1j3rWz33aPiMCGA886NelyA3/za8H9GXe3Pgr8Q1s9Cv4DL1W/yNwnKzZBlR0ja3nknGh5+OKouOD9K9t07CkaOiPxV5CN3XVrQe3Ed6kUFh7W7EmATBNcBz+22rCB518jr3k3QvnekBccL8H0FwxH0skMOiorTT5V1viJqdeAbhRrIxRMXmPSXP8fkv//NAjstlRfTy0rjq9ramNnYaEtI5Ry5fefK2eTN+X/y/fp+FlV7BBWpuqupzlTiZarx+F5uCd/zevwuroqr8SZOiplN+jv92/TiopiWm6PP/09fi+sF5JO3vPbraMgEJSvls5cdfVQU775rFG6+iRSfXIVV+kTe8t39+fNW0D3ooe97EUDsHjnd5M50WdL3asLii0XukktGXo8eQjlDo2Tcnnq986LhoQejDfivzz6jpFjX2KBrI/j3cxrwu67/TaHPVoEtoMs4c9rUmC7hwNq0CnY2PfRQ1F15ZVSdcUaUHXBAFG0xxiky4CoWrGOwyxZtqcXlt0vAZc0KRm1sX7ZUaABIXn3uWVF7laz4rTcnxTASnOaXX3JF3US5C5MnTIipRUUxVcI2NZ1yYBC/d2oqP6YJ9k6n1FYCMFMC+m0fB0VA2e1UWfdJH8maS1hRXKCCNvbv33edAMI/r8V7zJoy2VV5vO9XKMEW7YaGmFZaGpO/+EIK6oNoefnlaJSg1smdwGJXHX9clB90QJTuuUcU7zQ2CrfaLFLDh0be6v1iwjJd2tHA5x3v25KLRf6aa+h3t4gy/W3VGadH3dVXRuN99wp9vByT/vpxTNd78tl/Xgu+/reF/lsWUJJadnLpre+/G/WC1ZU6eCU77RSF660X6bXWcnAqv1fPyF2hW+QsvaQDW1nIzs7tvpz884FRKMhbesB+tuI111wdDfff54j+xPfeiSl/+8S+67RUSpa0OGZUVCR18Fhll9w2xzRZ9UmC31TFNb34q2jS3zYJdjdTYitF1PbRRzG1oMDWeV4LK055bdMzT0WthLHy3HOi4pSTo+K0U6OSGID8/wbBd1wBLP3clu9JQ32ihAoLY7oQwlctLe2oYGZLq6+dYiM+z1QhoslCKLgfzXIRsNg1N90QFeedHSWHH+ygIkFD0oUEA7l32fs3YYlF7RblCT3lr7aq73fhBkOjeOy2UXHs0Y5LUD48JScnvhI6+Rn6L9j6Gd53WlSN0WhC8Ajft+2NNwzhq2WNS484LNIbbySongTkfDC1Oay5svJ5fXrpcPaP1MABkR48OIo2GRUlu+4S5cfIol9ycdTff69r4CljnfxP+dU5E2JaUaGEpCZmTpooqDozcxVzrllTp8X0khJD/HoJZdVll0aFlE/FqackW99XX3ZZND7yiOvmaaahFLbjAur7NWTd6+Q2lJ90YhQSYNxwWORLkAq2lFI69CAJ0k0x8Q/vu2FnbovKOpBGi5RP84svyuK+GpPefTemEHT79NOYKvhNUHO6PhduBKjga3oGCHhWVsQUuQZtcgmaX3st6n/5SNRcf11UShGW7b9PlGy9ZRQMWy9SA9aI/L6rRF5vKVO5Rfj+2fvNzllu6UgNWSeK99w9qs4/PxoeeCBafy2/X8iIsmAahmZ1+vw/r9nrZ6HvsGbJUgCXJ332dx3oXxmaVh5/fJTusUcUCWKmJRzkszl42cCUYah23sq9Ij1yeBTvtmuUH3lEVJ19dtRdf200Ch20CK5TmmphwHeWpcRyT5bwTMoIP80s87TSs7629acZpvb2W+0vF22/nQNfBVTkUZm32WaCwBLaa6+J1jfftOB3XCiBr+rrHYtoksWtvPiiKNxph8gVvM7pI/955IYOxjW//GJME7KZJeGe28LK4wbU3nGbUYtz78ceFzWnnhq1gvG1V13uuv2mXz0vd+gfMXPi7NcBXM3ENdB14ApMzcuLyZ99GhPpIXjxBeftay66MCqOOjKKd905CqRg81YV/JfQdw4C5nRbNvKlHApHo1h3i4qDDo6aCy9IFN+HH8Y0ff5ZP/v7c13/80LvVtFp02KmrMNUrNDbb0e9fOuKU0+Ooq23itSqq8qKLxu5Dsbp6wpUqy2tny0ZefqaLyVQsN66USyrWX7i8W5WaXzqSfvkRMOnC3LPqEmCY0DQr+iME+yd+MEH0fTsMy5VRQgpxUVQCRZ+Y0lasLz8Tv0D90noj5SgD4/8lVaMvKV1LV26RN4yy0RqjTXkL+8YNVdf44NPu23HRdCL66Bph6BbmSBy/nqC1v16RvE2Y6Lh9lt0bflWPm6Wmcvi+lvffENK4wKn2vLXHBj5PXtGfu/ekV5jVQnqiCjee/eovPQiux4gpo6L1wYBEAxFkX0lJctr8v203FzHGnB7am+9WW7HKVai6SGDI2/FFSJnqSW1l5Cl7xo5y3bV515K/7+Un0/e8stHwfpDo/SgA6P25huj5Xevu1aC++Zg5jw+z//i+p8Weg7gdFpTBUvbBA8b7r47amStSg/cPwpGj5SfueIcVp3vKXHNX3O1KNxkoyjdZYeoPOLQqLng3Ki/4/Zoev65aJNFB8KSXpo1barfh/QeLsPUCRNioqxw0y/uieqLLory444V9JdvKkVBQM1CP3kSf+C/67iwvATyaJOtvuD8KNp0k8jVgQdlZGGvEUe/vlE6bp9oePBBWdJc17rPsUAz8u1b5SpUX3FZFI4ZHfkD+0fprjtEy5OPzdPCZxcxDtKA5PwLt9s2cpbvbsvbfn/69xGC2D4qL79ULsAbQjDl+qvZn4cMAFH/trffjDa5CMQPpulz0bJLPwLbaEsIqOW1V6Nez6T6zDOjbN99HQAlQ5Jae03HAPi82WdjxEXgb/DaUbL3HlF5zpl6JrdFq5ALsH8aEX/u7c/rf1fosYJEwPFN6++4IyolgKU6xEXDhsonXz3y5Z9jVTjIHChDSvntqXXXiuKdJexnnBoNd96eHCr5qIbuOlg+vNSRz5ptWUiXAWWbpRSqzz1H77NdpDbYIPLWXtsNLCiaie+9Z8XQ2RfPLn7Ov0+Z8KWj4tQC5K2wQrvAZ4Uey5ceNiwqTzklml96SZ8x5ffvuPDLJ8v3rv/FXYLRO8o/HhSle+4SLU8/FV9TCTefhaKcmp8Xjc88FWWHH+4AG+8N9OZreqMNBPtPEXp5zr83R0BQ94T71Pj0kw4a4h7wlQBp63vvxtRiBHOyYTluAQrZivL3v48mXRtFRbb+8uVTw4Y4SMp7WuC16UEgBZhaU4hjg/WieNsto+LIw6L2huscS3HAr7U1czH/u+t/SugtOETCCwtikqxV01NPuAS0dJ9xkV57kPPD2dLS3KWXTHLqKy4f+ausEun1BkfJDmPdRWb4+MrLDvTNoF6cnHY2Nz4XGEn0fdKnf4/6+++L8kMPcRR6/HLLxZeLLhqpXr2j6oQTYpIO9rwEvuP6qqkx2n77W/nRx7iM15V8XXStNMws0yVyFl8s8oRQirbYIqrOPVfWUhC7tOybSkjWlV750nF7RXro4CjdfZdofuJx9+/Pb+Ei0FPQ+s7bfv3C9ddvj7rn9u4VpfsLZTz8oFOLnVNpfD7y+3X33xMlBEXHbBppOgalwKh1aHz88WiT8pv6yd/ckAMqQMmgRKlJIEVHrABkVH78MXKpto/C4cMiRUfhqn0jr+fykbPM4i6CQhnkLL24FPhqdr1oQW549JcuWMK9ArHwzP4X1/+M0M+aqcMqAaXApemJx6Lmskui/PBDo2jstpEavI78wyXbrYatetelIn+N1aJg09FRtv/+Lk2lYabtjd8mvjpWHVqqttYkrdaaUEvhP3ZeRhUZaF5z9VVRsvNOkbdqYiHzu3WLykMOjYlvvTXXv+28iIaDCqpOPFE+9Bq6Tvn0q6wcqaHr6nr7y7+VvytFkCdFVbTlllF75ZUxSf79Vy3NmVdIBBcmnKbHHo3SvfawwkOhNf/ylzGrdf7wftYM3ceqSqcOCVYi9LmLLSZovUSk1lknKk87NVp1j4hfdF5kRshWNL3yUlScdUakN5OLInckb43Vo2CzTaUw9pdSPSFqzjgjmu68Myb/8Y9W0v5b/Yeggs5wL/D764W0qi88L8qPOsLoi2rGnGWW8PPLQv6cJaVY+/e1O1R24AFyqy6QspPw6zVgHZr1P+jr//8XevnHsyZJ6ArSbuiou/XmKDv0YPnkIyMlIcnrvZL99JzFF7WFZ+et0F0QeYgryjicWGgsG4EhCleIYM8Aesp3nyT/FIoqmGSA8FTIdbbYWH/DVQnaxA//GPV33Sk4vadciD6R36tXlI0bFy0vvOAA17eVD+DzU2pbJXckvcYAWbcegtQjoniPXaNomy3cF2+0QlVb7952Axrvu8/ltlmYD7/etNISt7uigAhWlmy1VTQ/+FDMapk//MV6T5HgNT73bJQffVQUDBoUeUssIddn2SjYZJOovuJy3Y+PnCL8xiK2IQU4WdfS8MD98r330jX2ivFySXK6dxNS6B15q0nRCgmV77OPi6Cm672IifjPZ81ynITqQyoJp+YI+n8g6P/M02b8AWWkh9HjsKxr/nOWWlTKfAkhuCUiX9dHtWTByOGueqTdt+WN3/lcoKznFkf5/7r+Xws9B4wADlCeSrfqiy6MEvzBtdfSIU2qwLKbwho6wQqGDxfU3c1NK3W33xbNskoTKX+VgBNwmiY/dco/yd//LhofuM9pvbqbb47Gp55y4YuDcZkAXueFhTXU/+SvUXPJxVFIBL5/vyjeYYeov/feJPA2N2HpsCiAodCl8qijo2DgQHesle67j+CxLN5xR0d64+GRo4NuK7fE4s4sVJ5wvAtjyNNn3Q+sddMvH4mSHXeI9Cp9o2SzzaP5vvtjVnOL/31eC4Gb9NmnUXevIPq4ve1i5BFB77FSFOm1KMOlBiHmwZKDaBH3aH3t107NofSylpnnMKFrVyuhcln9pkcf9f2en9uTPOPSaBOaaZRbUX3OGUIvu0XhplLq664VefQ8ZF47+5xTQ9aOEinJ6vOE3h552ClDni0xk/+F9f9W6LGs+JXNr77iCjhSOYWCeKnVV4vc5ZZp9/s4cLSE5q/WT4d2+6g884xokAC2/U4wXod3WmGhg2H45C2//U00yDrSkVZ58olRstMOUbzlFob/CD5pMqrR5lcPjtUijYWrULLTjpG/1ppRsPlmUXXppc5/Qy1FhH1eCz904rvvSuhlZddcUz7thoLZZ9k/p9INi09//HgJfs6SixvJFG25eVRfcpEPNyk7FtmFpiefiNJdd4l0v35RuoBCD2xvE1qpue7aKNpu26QacemlI0/Kq2SfcU4pQpNF0G5uC6F3XEL3t+KYY/z32Qg8CCW99tq6n/s5kzL5449jplDV/CrteD0Kcbgu6guocKSqsOqi86J0v3GRltJD+bU/a7k+xD9SA1aLopEjhbL2dm1A03PPON4w81vcm/8P6/+d0BP4IQc8SZC7UT4qzC0Ic97qqwruJWWyrqDr1jXyenSP/L49I73+ulE6bk8phyuj5devOmIMmwvCh5WB541yTyBkySEHRsE2Wzp4lJPJExeOGBE1l11mWEt0GP9zfguLQucapaTpERtGasP1o1QuByWqU/71hQOC81pY6knvv58IvWAw7bZ1110Xbe+/F82ynlBVFchXpjowZ+mlYoKEH7KMEvnuDffcLUX2TzPZopxa5BeXCyUUrL56lG4+ZsGEXn/X+ubvovK8c6JAbkVut+UilxqBtQdF2RFHROOTj8cUuTnz4sNrt/S/ec2FPfmC9wgjO9WtW5TvtZezE1O+/NKoYl4KEFeFYqMshTffo9CobnTZ9LtvR90v7oryY45yAQ8VfkT7c7svK7+/i89AnhRAvtwj/P2KU09yAHLSRx/5/JjJZz7K5r95/b8SeqCeS0RffDFqL7/czTAFm0sA1ljVLDDt+VxtymULt9hUVmVcVJ8r6/7gfS4/nVZcLHg+Z0BtWkGBLMGzZpBNbz46cldbxUgh2xhSIOtUc/Elhu0L1Pgy4ysHFGukRArHbhd5gqGQU1YJmgLdiUHMcwkpTPrDB1EpgSELQCVe/S23JK2yeTm2WOT+ae7JWWKx5PMuJZg/fP2oEDqhIIjU1bSyskTwDj/MiMFCf+99Evr5+/TENJpflLI49qjIHyjFJ6WXt9xyrgysOP00IauXfQ87Zgs6LiOdmmpTZ6G4Uh2EPt2zZ9ScdFJMIoDXKfLfcaH4EHSag6g+pMMPpcc9oLKRwCqKhQYpKiupUnTQdssxbuDJWTpJxWZjOPlyTQo2GyVf/8CoveKyaNaznvLZZ3MNRv5/WP9vhD7JPX8RjU88Luh9srT3pm6GcSPHCsvFBAmAfTq0e9++LmOlyaThofsNCafl5+ohN3xD4Dlg09JpH54KoYbCbbaIvNX6+LBk/dCC9daTj35JYumJ4Gf+dp5Lv4D/3vD4o+aRyx+8lgtkyvbaNZr1s5mC3vNbCAVUWyng/ahRUXf9DX69rybJpfnyX0mgUP51LmlBXV9WyRXtsK19/6ZXXnb5K+XBlUceYcRQIqFvstDP39JPLy2JpsdI9e0ZeT1XipzFFo387t2jeMyYqL7sUufbKTUmWDi3RbScqDn3s/LwwyMteM899H1cZZWoO/fcmCphnd/yMwF9yUWove02oY5z9bkuiLrbb3eGhOIogq0ILY0/cAhAywUlOOW91GHk0sKr9zTq67Jk5K3cU67WGlE0ZlMhsGPcEEWKkAxNNg7y/2X91wu9c7iyLBP/8Ieov/ceWaBjXKKau9yy7YcJnx1YR9CscJT8uAMPiJqrrnILK0LC4Ih5LdJoHBxq52mYKTvsoEgNXrNd6PlasMH6UXXuOY4Gu4Z+AQgeZ9RWu5aeg5gaPkx+ZrcoHLlh1N94fUxPp+YLLSd/9KeoOvbYSEvo+ayk5SiEQdkQy6BVtuYcwe9hwyJn+RV8jcQxsHJFO+/gXn2KZzjY5fvtG+mBA820i9DbrZnPmpbKj4Y7boviLTZ3upDXTuk9SnfcMeokgGQxSK1lI+6dF/6304USwopDDo5Ujw5Cv8YaUS83iRz9HGsuL0XAtEWoqPraq6N4H7koYzYXahrrKsd6XQcZDtJ7dAB+RbBP74mSqKPA58jDzfxTMGANoRTB/cz7s+mWLJC7VXbwQVF3y83R9tZbjuk4wv//ZP1XCz0BM9Jm1K5XX3xhlOyxR6SHDo3cFXXQZdF5iLZ0S+hgrrl6lOy+a9Rceomru2CHIUjXsSFkbov3wAcn8k05Z911V8sajDK8t9DrK4U7ZUcdYZ63yfKZF+SAUBJKo03dPb+Iom22MiJJDVozqs85OyZ/8rF9ynktWlWrjj8+EXopnBpZWNJX2UVqsPmZZ+0zpzfc0D43wjlhma4uYS05YL+ovvwSKaqzo3irrSJfiKhkiy2i6T4JvSzb/NbUf30RdVdcHoWD19FnXywR+hVXjIp9xkXjLx/xNJz5QXOyEy4MevzxKNd15Pfo4WfEsypcb0jUX3dtTJeQfdtCmCfKgtfdfWeU7LVX5K+6auT06iVrvZY/U7UQQ/MLL8SUfAm+7jUBUAKolAC3vCz3T+9Dfz91/TlLJtkOnxW4D3r3jPQ6azurUi3lSUpw6pdfOnPy/2H9Vwo9cMu59wnj/UAo54TUkZxvzhJL+CBSXJMj6567Unc9QPmsgqN1sqJEyLHcCeXyAnRhYbEyAT3q0ltffSnKD94v8notH+PJT3dZzHzxBAuZEIO1p8Hm2xY+L79HdoHuuPzVV7OPDKcePiqVfvNKVU35+C9RfcIJ9sULhg119JnIc9Yg0qY75Yt/SQk9LD/1kEgNGGBGmvGLLhp5Ui70FcD0Qx1Cau21zVJTsuWW0XT//W5+mefSvaD3v/bss6OgX9926whErzzsUKcF6R6cX3dbVtk1PPSQI+d5K600W+hHjoj6m280mvi2BXSnAQlrXLzTTn6d8UsvHTkw7gwa5HhO3R232+Wiq49FcNEBwLo6IZK/+f4A5cmA5K0gNxD2nmX0GnylslHKrHDkyKg48YRoevwxV2CChOaXQvxvWP+VQk8wadIf/xAN0vLOTcsPy+3Vw8KePYhQQFOlVjRWvvuJx5uVZtKHf4wZ8+gTX9A15dO/Re1lF0fh6I0it0/vyF1+aVNH5w8eFKWHHBgNjz7iXvIFWWQaQA9YJQJheWsOdEkqXX6TP/98noghK/RY+rSsI8w0kyWM2R5yhB9LSD6dktWibbeRMEgolljcpbr5a6wa6REbmMeOg00grlTWsemBBwJ+/nkteOkn6x5Wn3RSpHr2bLeO6X6rCHkc68DgdP39vKA9i756Amz199wTpbvv7ve30C+2qP1pmmTImc9vGeGNH+8cezlKbZ11kuKeVftH4WabOcdPILfp2WddM4C70XnNlOWHdIRsTa2QUukuu0RaKIj6Da4nG68hO4ELVX7UkVF/+x3R9u67jif8Nwv+f53QE2xre/dtPdRLTClNoUVuvz5uhsE389bhzl97rSjZb5y7wRjiSA4XcoUfGpShbr/pCUFTwXmGOuT1liuxtFDFCsuZRprmDogkFmgJQUwvKIyGOwVRd9058uUmFGy9ZVRdeH60yv8kQj23NVlCXyXrQyAvJXhKnp5sQEf4SUyAvn1QA00qqVEbRQ7c9ssv69w9dQlO61G516VLlG29dTQ/+KC58+a1QBCuBjz2WKe6stmQ9FprRPUZp0bbO285Bz/PJWVA/IQqRgqfYCDKNg1NWGqJKN52q2j4xV26J+nMH3xzoU4ogW558skkJjBwYOR06xZ5A9eI4nHjXCzFEJEpf/+7A7AE9LLBWVKhIA2ULXDfU4YqK10P0PiLu6Us9onUGv1sPPhcdonkvuVKoYCIinfe2WO9UBS4e/+t679G6IHzZn55842oufyyKN5+a/PFj18cK4GgC44t3SVSffq40q304IOi9rZbBOd/75z0wlrua//wQ1vQ4l12jPy+mZTTovJtpWiqzz7T1nBeVXmd18w6CSaZgROPi/TojZOc/X77RsO997i/fG5ryid/jaqTTkyEfrCE/qwzzcbTGRngQpDCpNGEWXcepkHZMVNwaNCR+8PBzpPgW+gfkNBXzUPoJbDOr+vAE3WnqCb7uQvWHxI1F55n9EXadJ4LoZcQUuHo+7f99rOFftmurp8nuDgvpPQ1XIVSui3PPeuKRBh2JpAy7LNylIzbS+jhF/bZEebOC2WP0ie4Zzbgzz6TIchLJuy0NOteTxDSuVeKZH99HiEgRoAJLWaRo61+r15RKNRE8LXllZfshsxs/e+r4vuvEHp3hQnONT/1VFSdekpCRClLNaHrksnB08YHS62xmmvJgbuU3U4SdIYXbmEurgVr3/z001F+6EGREsrg/bF6eYLQFfJtW1952UUiCzKwEaZZ6vFrrr06ydnLry8YmbTbTvn4r/qNb0JlaKmqdR/I06cHrxtVZ57hBpKkMGjORdkvpBm00dJnTlMOEDaH0VVCRwh97hJLGN433y94L8s3t+UipdKSaH5Gn1v+ckq+s4VByrZwk42j9por5WL8db6da0Yfui9tH/zBjUeQlOQuv7xfJ0dKiOsjGAjb7dzWdNJ0OgPUFmB5Jywpd6V3L6OkelnqyfjccmvmtnAJZpRX+D41PvGYo/gNd95h+vCvSDFKQU7Ly4m2l38VNQSF99rdaDE75YfNdeat3j+Ktts6Kk85yb0LjOgCOfw3rf9soZdlwAekQq7p8cej4sgjo0BwFqYUaqihlp6w+KIOvDA5BR+x9vrrovWtt+x3AXcXeo4VayUIa5h7ysmRXmP1dqHnukp32zUa7rvXlXXflhlgAT0JbKGkSg88wN13RKKBrhBuwC/XeU374gt3otHswv2g242g1lcEJzO/k10IGoIwEdIMWajCzUabXx/CSe6fBU7ukAN599zreXtzW260yc1x1WDZHns4Yo/CoLqtePtt7YsT2Z9fqpF/I4ffIr8Ynr/CzTcX2ujuTEtev1WEzg6MpqeelHDOeQ08Q2B464svRuURcqt0zyfoXuf27hklu+8W9XfqvT//ZyJ8ej5zW35v3AK5egRci3fZSe7E1lF18olS0q8kFX26T1BrE2eh1qFEiCt/0Fq6T10TqO9nDBdiz0hvONSNW40P3u+5AfN77/+09R8r9ASDgGMEqBofejgq6OgaOtQHNat1s73jBeuvH2UHHhh1twjO63BzsH7MNUuCiIavvfQSCd0QuRhJ5RttrUVbbB7Vl13i1lNTSX/LQcACuT/93Xc8VSZfkJ1oeqn8x5bnnzP07LxmCJbWnnNOFK6zThQOXS+qL7jQ1nzmjHkjixmlpS5QofS3YMQGkderhwuVuG4KbEjZNd79C1tTXVXyRx0W9RCw2RARL9lhh8gXLIfXP7fHiu6Wa3z4oW8PwCF45NflotE/XzR6VOTJH3cMZs0BHuBJyyyQO7v8N/LNW194ISqPO84+vOvnZeHpk6+/6w6dkY8XKJ0GL1/Tyy9F+SlyjSDh6L1ipIcNdUNS60uC6/lJ1uDrWV+bS5BOwPKjj47CTTd1R2THIZ6Qc8KZWH7kYabknvzXj12i/N+w/mOFfoasaVbjkn5Jr7uuoKCsQobNhhsPP1zR8OFReZKg1mOP2Z/Df59rymihKuGvJRwFhofFW20ZOTC4QNcsH7BAB6HsyCOiQUJAK+786ui9pBTcbiolUnPlFZGWAsvrKQu27bbRJF98RnWl3m3Oi58u5FN71lku/8XSV58rf1rKcebUafP8mAgFBxnLVH7IQVGw5kAHPa2stEtkdRvvuMN+6tyq6ch6tP5eaOGyy1z6i7BOWHxxIZP+UXbYYS5TJhU6v4XFRvAg9qjS9RdtNMKZg9yluzgLQcCRirqOTLy00LY8Kx9eFj4lZEPLMMQmcOfX33qLm6Jmzi942GHRRmvGn+OOjvyh60pwl4oJyy0b+eusbaPR+KAUF5F5/S5KbmpOTrT86ldRfaHgvp4HJcPcKwv+Ejp/WPxhg6Ns3F5Rd+MNzg515C34T13/cULvgEtdraPR9XfeZW40R2hlTZObLeFaeilbmmIJfPVpp5mG+dvyw/OUhu+5uEZqtKnphtc+t/syFnrSYQyErBYKAFLPiz++4yLVRj08dFAFI0cGffDF22zjxhP69rNCj18NBJ30/nsOphG0ZHIMShF+PveGy6WYW/2BkRP+/SdSpDffZMquPEFkhJ77ivKsv/561z50FHpei8YXlFLDgw+4piC1liCvhA8BTA1eNypOPjkR1m+xdBZ6CVXzS4Lp+pvC9Ye5z921+1IABMjaPvi9P+PX02eYNJMW3EqqD4H0ej/y8MU7bB/1t9wUU6Tk5+b+dF58drcEf/QnocGbomSfvdx225FwI7dnjyjZY/douOcXMUXuE3AfklLcCvgLqXos3WnHKJDrlUejlc7hhKV0JpdewoNDS3bfJep0X3kP8yL8B6f0/qOEnqNN0QUdchBNlu2zT6TlUzEGCuvOA+Jrfs+VBEfHRO3553nQodtR57V40exeiMvlrn/8wHz4xdttEyn5pLkUdqzQ3eWuZUccJqj6/AJBPoQeOmzaVdMSvtyegq7byNL/8pe2elmhJ99MrICYQbGENreL3m+xxSItiF91zpnR8utXbKnnVc1nwdfrwQVQc+aZ7hkYn6lGo6WV3La7/DIuiYVFn5O6/mZZyIqTjg946XMkpIa4QlrpESM8NKP17be/tYTX+fVUKinBPeaYKFh3HbP4EsHHv6++9hrTj89smxhfVVTGxN/I/z7hBGcogPTc2yLda6zq5I//3M6q823LjVjETSjGocFoA6EpxnIvmZypbOoxd5VV5DLsEHXXX+dZfsRuuAcU90yizFtCXT5ub3MY5C7ZoV23q5Tf2gMd/Ku77ppgchAI5T91/ccIvQ+kfHg61eoFm8v2GWdKZ6CfK6SWWtwHDQVQvMlo+9OTuLnUuhOwyxzUn2oRgKPe3Qf4uGOjUAczTwI4Xjt3OV0j1uiu2w3x5x/RpmOs0qw+DH0AaubJgpfsvrvZdDoKMNNx7Q/DWb+5IPaKK1rw8vv3TVJW+Le6f3OLA7Qv+chwxNm/l7+KpYb1t3CTTaLuhqRxJ7uSZ6ID/6cPXc1Ysot8+d49bHHtV6+wfKRHjXTjEq3HX9VIwc3nOVDcQ5ku0XOm1KbWWtMlwnm9erk3Hz6ASX/7q7v0Jsm6Eqykus5BuxW6mdrMAv/JJzGLttt5NPV0XNw/UBSFOpUnnhBFuE/U2y8lN6F7V7knfR2lzx+os8aAjdVXj2JBediKeSbUSvAaSRXfJ25PLttvv0gPWMM+vl3NLou7GIwRXcU7bucxZR4Yonv3057KBVv/EUJPsMba9M8fJQK/ryz8mmsK0ifa1AUS1KYL4pVsvVXUXXpZTPrgD4bY+LxT5ddN+fTvDlb9VLDKbkgjSuqTqLvm6ijeaKT9PawGyqlgow3cKgvxBiw183r4XzXWm/Kp9oZr3QUHAUa2HHeiDn50gOqGxq++HFVSePDJFcPeO2aMo9CMlW586AHz95lGez7L6TcE/7nnokoWv/zgg6L6rLOj5aWXfE87LufVda/rbro+Svfe3f0B8Nrl9uoZeX37eEIOAkyqjT6I+UbQEfrx492jQKSe4J0boVbr7+63alnJZqEVil/qhDqKRm6kZ7+oLPwKHjZSd+N1MfkvH80TyXRefE7mDjQ//7zjPoUjN468rkkfAu4JnAglu+0UFSceb1KU0r33snuVGjLEM/0r5TqiHOlrwMf/aooUyL8+t5tTfvDBnkhMxobzyTkdL0WYv9oqUbLrTh50MknuHaXWP7VB+rb1bxd6oCtBO3LqUFHDF5emT5s0iW6ihX7JxfyAsP4NBG/+8rEJEwxV33oj6m+4zt1pE995Sz70t6fJFsrSg3QTh3zuJmrc5YN3FHraNPEdGdrgHPpcerM5SPjK9XfcGqXjdpewrxo5sqSQYNRcIaj92WeZ30wWwxqJ8hMkrGNU9C23JFvvYbLH37/ntNSC+LkgFRqOJr33XrQygYc0p6xw58Ajis0ZlCcfl899vmcCFO2yczKOWgKfGr6+x1PDJkSBEJ8ThTi3hRCS3qp/8P4oOXA/3aMBJjJJDRpgxp/K88+x4Fedc5aRElODcpZbxoxHtZdf5u5C/OUFWTYk1dUeS0bHITGLXOrzM88H4lCKq2quviKaX/qVqwmbhQaouKOWP7XeELkuw6Nc7oAVWl6eB5ni7sDIRC1+xVFHenxZx4Yd6h+I8ZTstnPUyV2Z+EcZp/m5PeiD7P6J1r9X6IGPWMu/fuw55MAmID0pJD8cmmYYLjFgNbO2Ntx1l0tcPXIZZCB4X3XGaVG02WhTODf98uGY9RNHT3EtyKdXH31UpPv2dYWYe7Rp9GHiygH7G5JO1OGbLktI4cn0wrQ/B6y2QPKyA4RsBq8leNlTPv0wT8ohdQWc77gIxJmMUxAeqDlZVoeKOxNo6CtFQ56L19bqIBSFRP4q68t1ek/JfMVy6fVwLah0hC3GJav8rhQCCo3fI2qPG0PjCsw8DY89GrVCY9USwnKhC5QAKIPPAVKzcpuXpUfo//nPqPvF3VG8795yZQZK+FaK1DoDBN230WvtF8Xyiws2HeUmJoKiRVuNiRoJItz3s+ZReNN5WeBrq42g6q65Kkq22TrylyPDskSMl4WHgJNBHVWXXxqtDOSAFTdDuEkAufbaa+3b58u1SK+v53HoIUJRDxlFcY++otlLbhDcDRXUDej33GZMSm/pJeSOdJkd3LvlJr+mBV/X9Y31vyb0TlV9Kkt3t/wkIP2gte1rIfAOkHRbRj7n2u6QI7BHPTUHmdJHoFPNeef4oVBhVjhqeDTee3fi6/3Ea5rgX9M990TZXntFas21LPSGkMt21f8PdKS8+lgJxmWXRYNgX/21V3oqDlHpElm01DprRZ5gYWrkBhKko83HP1VWd26xAOrfqV837bYO6lceG90Y0yorkpHW6ZSFFMoo/Gfg9OR/feHGExpw4Pojp0/AjmIbylKJ+k/TnprW9teU+88hFcWlmFpU6Am1U6RUpqTSprKa9PHH0fL6a9H81JOGwCaX1O/MdSxXZoEiYLsB/RTttVvkD14z8vrjzvSPghHDzFSbJ2HP6blC5K4GYej2UYN/LHTzXXLgifB+FHU33xilsrgp+e25i8uQEGiVSwJKqTz/PMchQE8d5Y2/RcEQzIOxmC7Ggg02iNJ99nEgj/iGR3RLsdriP/FEVEBEMmxYO4eDz66EP0V3p9AenYDQcGX5CedY/0tCzyBDAiyNjz5qn5JJr4b0UFELzhMRRdu7Jfb2WwSD/+5UDpHuqZ//I+oE6Ys23yTGky+Whi0cPdyz2GaU/vSNEEStKc4gb18q9yQl6OjGH4qH4I+jZnuArNnQ9eT7byhfdYMoGLqu4xb5q/bX51wj0vos0HE1IvA6TPZbO1lMp89AORJyGF3oaKM0lsj0RL0/lW5YY0ZZNz73TDQ+/ZRn1tFCWv/A/VF37y9sZeGOq7/vXrsJBNWann3aeXbv55/zGGwmwhA0hIaK0VOTBctRBGRKCLgm/HQV7t2HxMQ17Lq2eUF7FkJPs02NrF+RXIL8IWtHXt9eLpKhj4INssvt0yuKttnSAbFJf/zAbtzc0pBzW8QNqOBsYObf/uOSsmOdJfPi9esTqU02jjIhKSi8TY3WSbE6eKnPhmvVeP/9CYfg2mv7fBbLrUFhmShEihcFTGykieYfkN46cAxkUKrOcG7P5SN/bSl9oVQbLb3mt9Zt/ATr3yL0rqWHz+2Zp6Py+OOiQP5TlrHUQbteK0Zq3UFOgdSjJf/8J3dHcaBcJKIDWXESqZx1YjxlnMt1jYKN1o+q005x3TtdWj+Zb69FXhv45hz4bbeZ3LFwyBCXBjPcMVuAkisImLdiNx3unpFara/LaItGbWwrUnXZJR4CMSUl31ECbwGXksMvBX5Py085f0yH3ST57rDJtkq4m598wocTawLkrjz7bOfNy487LiqOOdqjp2CBKd1/P7PVUj1Xstee/gp1dtlBB+h3DnPrKNx6MM9UnHSSWYGrL7xAgndVNOjAkj5sk+8/6d33YspfP4lpQhAezllW5mskEEs7L80u8+s5gKmo7h7B+/0kkEI4DKPkubMRzvz+fUwqwjASUl8LmpZj4Y6AWKifqDjxWBfO0JBlX5uWYr1f8QH7Rq2UHynS+S2EfyrUY0B9yoUJXILaDjvYypSJO/49bZCV23wPPMBNQDmQliwh4acZbKlMPOqQg0w5TsHPv5uF598i9ByUlpdeiMpTTozCjQTpVlzekU8LPTcJWCSfr/72W932iKZnIfhAVixS5fnnRhHtqBuPFExcJ1IbrBdFtKWefKJ55lwNtwC0VQtrEZB00Ev+W+MDD0S1hI9ClqJtton0BuvrMw0KGGPT668XhVtsJu2/u8tK666+KpoFET3KWvB4hg4503Lw5wnykf+GAQbSCQS75tKLovq0k81tV3HA/lEu4S3fdRe7EEVQQG20kaEmlXrkwfE3ocPKX2ONYO6ckUX/fv6aWm01HdIBroWAKYaqRwJTlDsXbLih+feKt9giSnfYIcoFdSv1eaqPPz5qLzjfUJfSW64N4hAGd+I6TJEAeEovwp+5Nx0XaKFRyKL02KMdLIPcIzuCmgxN8dhto/ZKWfj333c6dkHX1zNpU07rXL0YVWedEYVbbm7kwJky3F5C52roEKGpk6LxVRkGoaRvWyAqSFYrKP+F70D3qGj3XaPuztvnSG2CWuHhaxCKKoN+TMgAN5X3ZZuCS65L+QnHmXbcBVBCrP+u9dMK/SxZxLpa+2g1F53vAByWj9FDwHl8YGaSOeVx4/WGzIa5BEAIzuhv6aSiaaL+lw9HzQ3XRwUDIY843B1q6Q2GReEmo6LiqMMdUTfFERZ/HoGlhb50jRwUtHnbO29Hg6xjzbXXRMXZZ0X5qSdHxWmnmqIKHn7gJ8SUlG5yncBENtFtuu44vPWySNVXXu6x2SWyIkXbS4FsOFQIQoK70grJ1Bby9IyqJkBFxRr5Z4ZPdFnKffKMsWbDWmvK7jk2NRDaroXIbH5Pr0FKi6i0p8PoZ7xPSu+XWmklKRHmwo+MYj0nmk48iPKKyyUMd9gKwitHxJ9a/K+qyXNPTIKDpND0/+6y07OjQcqBW71m7oorOi1Xq89LOhYLPz9XYY7F2RDaaP3d61F14XlS/ls4Z56zklBglyUEtZcwMw6DTMqIrTz6SxN54I7MbxH0pCagjniNUFDhbrvqrB0W9UIqCG7HlQSkM2XjQm4o1AkZ9EpzWK4UEDUNFaecbDZhkMKCdGH+GOsnFXoXOPzxD/bHS3bd0VCOgJdvDBHPAQwb3N4PPoF2HVIdKIyGekGpfFnAz+zDtv1RwiGYyzx4ClaKdtpB1kPWStaUwGAD01b+JNdAgvhTLg43vef2tT/6KFreecvTcUm30RDEz/BtaWAhqEb2AurrFrk7DbffHrUXXZBM0d1/Hxd7FIweEXmDBugQd2u3Htkqss7fs7mnbobRYbdwy60AclJJB8NMzvKZzfcUqizTVcLRpf2QZq3jvDb/7kDlit0dd2FSbdG2W0XpnntE+RFHRM1ZZ0adrHXjvffIUr5gJeaYgA76NMZRyS2AgabhjjujSq5E+WFyL+SGQFVN92IW2S3owgdPBnBcHUW7jI28VXWuuiwWE5ah176XK/oKR24kJLS57udOtty04vIc5lfNCVKE/pzYRu3dd7kzEB4AlDUz+TouzIqrSYX0GHxSsutuRlcoUp9xukGlqAu32jyqLrlQCO5No7l/h8X/yYQei+0GmltvkT+5p2ufSWvBVMtNyevTw33KNZdfGm1UQgHtOllorAV+LjfXwSQpAfu8xcU+RFjQ4t0E+dcaaNgKQyv15FiduREr/JgLP5/3xNenCYhUGgdsRkWFo+QIO3TRxDVqBdurzjzdQSNYaRmXXcBnGLiaDs4qkde3hwSMKrIkSNRR8LJCakHXZqBDfv9VIn8QVFqDjX7IN6d16NNCQQyNTG++abL5frR+xsx3uSD5Q9aV3zpAsLhPohQ6zPfruNvfU88up3vXyO0t1LFK70j1XcWMtoVyK4oFh0uZ8nvMUUYr9Q89GM1yA1B0uDFGNX/9JNp+97to/fWv/XXy3/4WX9GZ+NWCt0O7+0/WuFaQu2S/vfUZ1tQ1Le1r43zBB0hJdOWpp3hyDpx3dGUy/KNWLgpuFWdpbou4CuzGnm701hsObra9945biL9q+ubfuLpSz7rtD3+I2htucC2/Lb7ulZ/ZYotG/pqrRvEeOwsBXqXXetfn4qdeP4nQA5NIQVHkUHbYwZG/7qCY0F2WZ2lZIsH6vJ6CdoL6VeedHa0QS36H9Ex2AQcnyvLTT1+MxZcfiz8LhKyXxYf91iW7Uhw/5UJtkQO28MvSTf3iC4+lghCEBg1m5kFQSZtmXo8Vk6h/VqjYXalIk2D1Wj7yVu7hghWabNKrrmoKZzjrC+SLF8qPx5KV7LZLlB18YJTLZ2a4ReUZpzm4V3neeVEJgrjkoqi89OJk8z0/O+/cqDjzjCjX75cdfaRz7xTLFG+zVRRtLAu53npRKD+1EIIPvS+NPnm9ekaunltOj+WlILrKFUiuuz1dqZ0H++46g+SWbBulhx9mNEY1W+tvfxuT//KXhMGG+gJZTe7Pt8F5It+gP9cWlJclcQ8pESr8So44JPLXWycmLL+MrDwdj12F+IZE+XHHuBiIOFDddddG2W672edmPHfJvuM8yNK8dwVJ2hJmHp8TMhF6PxQC10fgmfSmR5O3NAvNzT0Kz/Mm2DxR561WBodZgQwZpceBZ0rpLxH94j12c4GVmX6mTHHg8KdaP7rQA1/I/Ta99Kuo0AFkkkiO/Hg0H4eDAYOFoze2pYOaGAj4fZdr9z9KOqmgnMKHSw0ZIiWwY1TrwCWz2kuskRfK4jl9y7PC2pPvhuSCgpuGW25xs0vlIYeYcKNozGaOKufqnnAouC/A9Sxkn7D0YpHbTxB1fUHULTaL4p13dNSd3HDVySeZVLP20kuj/pprHGVvlFCR56fZhykyrb99PdrefMudYqTf2v7wvl2MZOt7fqZ/Q9lS/gqjLcEmhkHCG9cgFFJ/1VVRe+GFUX3qqQ4g4rMWy4oXjNk0UhsOjdzV+1p5d75+K66uXVzfnh46RJ918yjbey9fN40pMM/g9kyWGwQ3/bctFDsxD7gKml56MRr1GeseuDfKTzo+UqOGx4TllvF75iy9aKQHrxnlEJXqcxBkI8I+6YMP5PLdFmUH7B+FUmbpjYZL4e7mASDMTICqq/GxR12dB68AQk+xEnUhFnSyKsDxBaj5p/AJVMDQ1EKhqty+KyepaO4JsauBa7glGdd0ilAPiOWnWj+60ANp8bsrLzwvCrbbJvIGrurCBT+cxRd3lLnypBPME0dF2cxscYcEkxryWbrhfOUBALdsDeahFfk3Hg7QmbLUsmOOcRcYxBSFW2wRVeeeZyFwqerUBeOw+z6LSDKWwkM4pPHp4a6Wv1l2xKGem1ZA1HzFFR2MY7IKFjwXi7ns0pGre0JFIsE1IDOBu6KdxsoCH+6CEspdybljufgsoJspn35qOjH44uGXo+AEi0RBCzUEzJyHlsv3U4fLuf62NlfuUYyCy+SyZtwQcu9SvM6/63nwmtO+/NJZlDYJG+kwRnfX3nB9VEpYyo4/1oU2BaPkIqzaL/J0oHMW1fXTkENAEBryFbpFHsM2ZPnzl+8eqdVXjcJNR0XpAfuYxabhycdd8cdzsYUlJz+XZ4zvTrsyKb/KCy+IUiETUnDpTTd2NSMxCTYuUem+e0YDDUgSeHLqDiTqs06DhemJx6Ly+GPMIpSSS4PbUySERLC04uwzLfgoF+fUZ82ykaDKb17nbm7L9STplBU9484Ltx7jmgSEHipy4iwFG28clWedGU0vv2yUMb/GrIW5fjShd5GDDhY3Hd+paMexkbta/5jQLUM9xEhiHX5KbyGL8IeW0NITT1vilH9+Jhj8drT99jeOhFMJRfnp5H986vFVU/TwCOpRMeb5ZbLywKRZvK8O9+QJ46Ne7gSRfQQfmuSibbeL6vPPt4LB3SAFuDBXtnGI4hAyFE2PPGJ65XJBZgSX2gMi4ii87OZeYOXz11zdEL9ok9GC1VtHqfzBCl179bln2w1gBFbzb16Ltg8/MKQFPREJ5x7Pl0dgIS1qK3C7eF8yKKToml//jaP1dXffEdWXylWQAijbZ+8oIX242aZRsOEGkT9ooFOyWZcFJGAEQ95cMLdoh+0EwY+Kmqsu1/160G2/EGPAfjSrExMQysl8gvTEw4Qrfz1HKGKCo/SC9N2WdZ68ZNcdBK2vSQp7OlXBOf+el+vRXOVSwgg9AbacPlKwQpxkWZj+A4vOghYEZRfKgVoBFy7pXlE4xbOi4Kny9FMk5EIjtInDDSGlmLfyylG01ZZRpTOJQp1XbGFhrx9N6F1iS8WdoGK5Dm9KcGaCrBf5eM8/GzDAgY66W+XXSDEAb2bppkGn1Pb2m+Y9qzr7DNd1w6iCP8gIIyqiagU76x9+KBooAZWWZLyRZ8hL0KfJz5tep8Mpq9Eqq1DLXDfBKAu+/F9m3FUKXtJqSU752+bBL+hC4BFCIsINUjZV55wTZXvuGcWjNo40OfrVmavXvd3nzQp9zlKLuTmncOy2pouqvuRiV29RdNMmIefgIgT4kzDTkLYkj28FN1PIJ/P+P8XiMwJ3KcLBb8WnJrpNwQ1VexN1cFuef9ajvmuuujIqdJ/xXWHFgXii4+eesKSElCIsffb0BkMEgTeO0j13icpTBf3vvjNa33sviW53sK6zpk9zxxtVhmVHH+U2ZIJjuBIIUf6qq0Tx9tuYQhxSD5fYYqE7LRAP/QoN999rjj0Kb3JWWD4Kt9oq8bNlcFwyO5e/necS5EfgcR+5FwRpycoQtAU1ND0m5HnwAS7wIeuR41HiS0b+yr2jZJtt7PZRfPVTWPsfReiB2Z70Cq/Zqad4VDA9zKSR0HJMI2FkEEE34C9kBQg9AZMWCXG1HlrJnkDGjTyQgU4uIs0F22wVhbKYRXvtHiW6gWWCaPRyV11xmZUBs9Gbnn46Wn8jdPDmG/ZpKTWtPOdswautgs4qGGsZXkC+tPHZZ5xKwmf7PjlTDiRwmcASxIywvNTKCpUddWQU8JnJP3MgtRF2Bk3kEV2X5SMYRr6bAGbZQfu7XZZmltZ333WtPIw5vi4d9O8CK7OLZ8DhJkBGCgzobjQkZPBjpImS95OVQ+Hm5dkiY+EIlJXLzYKDj4k8CdtP78jv08sIh2AuAku0Pa/HclYAJYL9KPiWV162cMLFjxFhRiB0VOZckJCU7LKLpxqNlzGx0A/sHyX77hWUGoNGQCfzWtwHhBLlBCtvoZQz7begStye737PM81jMj6UOFdfcUUyelzXwf3nKwauWG4E3YW4clb62mkh3srDD7PrBHLFNfgx148i9G5aeP+9qDrvfFd1AWNylxCk6bJkTIB4Yf313cfdKsEEDiM8WHhmtleddloUCuLmr97fveVmbuWAMJgBjdxb/99vFUPD9Ihh8tU3keuwrVDDLlG277iARZaqsZrTT4uas88yJzz93gVjNou8fn2DsUWQRuBPVej3eDDUUpNX/64Li0vjCnnb+htv8Hw56JjTI4f7enmo2cAWXyHXIJpdst02psqu1rXVSygYngFhA8IOrKXC64cshHp6ZZXrGQh6MagT3xLrh+9MVdyPmcXI1ilY+OWWNUv4qeCrPlPITYe7RNafEVZkK7hHHQN/1CKkhg124U/FCce5SKvlpV8lHW7NzXLfMiXPMhYNEqJSWep8rOdSQg59ZEx22UFI4S43Gs1v+cxRGSrFwizA6vPPk5v5qN3M77OoyCRgi6KrOOEEt+dWnnSiB2+gbL9qhWlJrokQKwVkUL5xJvjMuD9FMmoMQW19HTKShUvb3nktdKF3AEMwu0E3vmTsWFk2+VvMfJNGRxBStJseeojgzmPtwQvgIlFkbgjwO2/5ZK4YBIhUMuX1lfD37mFiTApJLLjLLxe5K6/gHLY7tYhw6/XTvXtHQd++Ti2RziocNjTSG64fqfXWMWc5QSVXmum10uutJyt7YNTJBZj4l48SnwoNvwBanhqBSX//xGOsDGO3GOMcNVReuT3lI8Irv9hsKM/UWIqGSvff13PpiZITp5hGu60UHu/t6PAP9M+xblgLEEOdYDbBv/ITjk9SeHKTam++MVp+RzDzx21MsuUn8i1BJQXGmYCMo0XKp+72W90XUAgxZreEestoaOnF9VyWjTzB/ry+K7vPvmirzaPyhGNdweg5BlImuDbAbyoZ4REsP/hAzyvM67eys0OUaJONmO+ILl0fygPlQHCQLkFe7/sOr2jn8wc5CNXky3pTFl179dUJeefUaQ5qt770kg1TSoaQc8HnzoVijTZiGYNa/T2VqF9/h1qF77oWqtAT7aS90g0P8k/Taw30h3LgpuuSFjyqzNDEtFg6itzclMAsWcqSPXd3pJ3ItQ+B/EAmsdCbTPspgx1Sg9Zy9Bd4SMHKhK6LeyABNzC7eb/s9oFacjEJoZQEAaWus31LOqII/JSO29tpPkY8E3H3g5+LP4cqcFWgDgd8dLU33yA//Ai7IXl6/ezr+rX1nsxvx58v3HS0O61ISzKFpe337zrIs6BTcBZk+RBLwAgiNutgAS/p5WewJ+5RSgonNWJD+di7m6Cj7a23XSOPYHb0m7343+xeiIuuNDIDE//yFyn9R01uAYd+0SabOG9ORSbPqeMzxAUo0PWXS1DqbrrJlpBAHPCcoC3WtRmCj1NOjKItN3cxTrHOUfUlF2U4A1POCMx16Rm7gEr3zRF+34vv4Mdr4W4QpW9547eu1qOZKZ8uS7mx+XI9CMjSjGPiVhCQfPzGu++OEqb7yDjBq0haczx8+quuEmUH7BtN+jwesqprWxAD9F3XQhX6mfJdSCNVyc8mJQP5YFbosXxFW49JSmwhWwDWy6pNy89z4IuikEJqy+UL05iC9iOlh1XnMJATLtlzD+ffGUldOGbzyKeqb2W9RyYFmD0sQEWaOLKNHBZC7VxSYfiPmf/3z4RCYOop1cOimAI4TMvl3CwucB6fDZ60imOPkmbeSj7oYD08uR1LzlktR+174fANovzIwx27aH76Kbs8U+T7k52YV3HHXNcCPHcsvPu7n3kmKs84I4qgbIZUdGW5RqCknismFoUA6m67WYCA3p6nP72TD/ldhP67/K5WAv2TDMek3/8+KVK64QaTbhbK0uX27eP7l3WJqFvPl0tH81DJ9tu5g5BinEnA/akSUr0mqcWJchU9mWb3XSK9ycZ+LTgHmchDL8Q3FFuntYCXP8eCRYfrINdO3Ih6ELeIC0lytrh2Rp2R1SDGRPbha1n8KX//1AiAsV75fRKL78+6zJJRuPmoqL74gmh9520pNAzDwg/sLTShx9JQbeY+9622MJQnPUfRxgR9GHzwiqOPcLoMgUeD8TcMjaBRwyws+vdyQVBaPIu23CJS0oQ5gn95q/bzYMey44+Lqquvihod2KpLLjFkZeZ8ofz1gmFDIr36aoL3KyftrJkmDsgj8/U9m9x4qoe+1yGC4DG32zKuT8/r3s1DDwjAkeajZr6jpXe6qrraQkIwpnTfcYaeucvRpELOVcppObkc0GDTlNKjRxSNGO624cbHH3XdAMGcr+VHzysHPdfFr2X3t6yZTc2CtG/48BWMHi0hlyKSBWHj0uAO5SyJEpWbsc46HmFNdRzEGsRg5ljf4X2/0+92WDx77gdnATadpl8979x7EYw1jnDLReoudMZeSu7YootG3rLLRArhP2j/qL3zNj2PP+rvBfepNZClRqnWXnGZp9ekNtrQgV9cr8ZH9Ew/S54B48Zdq8DfCN5/18Amv0u+f0ZpWUySj86E4TIZgBRxHMZdI7zaBG05Exi7go03MjcAcQnQMOiCUt3qC86PwhEjYsJSS8aXiwmN6iylBq1h+jGYkdve/33ici7ktVCEHr98Ov7Ka69FxVFHRIrZ5TCVCHa7c07+ClHL+ttusX/TvoBnsvQtr7xiWueGXz7soBP16AypLNllZ0H71T1mOX+9IY4FkIJr/u1v7bNSQdb48MOO5NYJQdSef37UnnlmVMsaVB5zTJQddqh7nOHdo/ySWnByyMVjt3Mbrktfda15q8h/xN/W65MKJP+fXQTV8EchjayBkHL33RyMy1agsY0Yeiyv1xgi7S1rdMihJnZsef55l5nig36v9R0Eihl0TQ8/EiW77mqFZyQjiJmDYoOJZqXlHTzCZSLiXSCkRPkt7DHfoGv+Du/7nX53HougoiHy735nYlQyPhBlpoetp+tOBlxmEZSLb4asHcV7C8JfdL4HSVIiS/rS47kp3rnx+iihaEdwP73F5lEi9w3KLdAWggpbE9kFph8zf29+vn/HxXvglhmhPPhg1ErBlu69d6R0jiYInnONttgSYmYt5gquT8AY6HyV7jfOBCnTKysCc0LAlnNOdSADQ8bT67AscaxuPl8gz8Z777N8fFeX49vWDxd6CS65YyA7QwFLttvWbDHZh8TYKQSM4Q/k3zuPXwbymCQiL8+BPfjK+EozAlVfREGZ75bbr18yMVTC3fLGm6Z6IgBGuaT/VsI19fPPY6qgE5Fd2juJzDY//6xJDBvuuy/qZaXhP6vRaxDsKTvqcFdiFe6wfRTvt09UXaqDIUXi/K4skfPCFHI88YRHH5HWAY7Z9UCT84C18csoMy09+ABfc+vLL8fUz/5h3oBva99cWIt70HDd9VG00UZyY5Jyz1wdpLx+fSJvNSm2vivb3WIMlTvP1h/mSTw+iMWMsvr3Lvxp0BRFU/QmeO7BIQd5FHeWQs2KjM+1ktyU1YX+Rm4Y5UcdlrAAQ04hROb0mNBLvX5WdtwxkdpEbuZaa0aBLCoGAFjNbPyam2+MGqHSxmee9DP+toU7RvygRQYHks4yKdcioQ6ajFD4Js3QteGSpuWeQtdduP3WTjmTomOMeeV55yTjzoRuQBqQrtRee7V+d7vIY2AKRUZLSFEL0RQOXjeqTz896TZtWbi8jz9Y6IFoWG9aFQkcmRaYh0RJZJcuLoihlZGpJuThF8jqoUgE2+iAQkhLdtvVAx0go2CoYK3gfdvv33fueV4GhqCRC0gqpUTgdxs/3u2spE3wl5pffcVQvkboo1qWofaeuyTwr7jPGj+XFKLLeWE9PfYYuQ9D5aMt1X74crtIm0v4idgXjxlj7nuCdDDC8r4/1cIKYClh1Kk9+5woXFN+PIdPKAuKaur6qYojLoKgWAHIAuXTcHLQAfaPqan4T1o8u8mf/k2K+h7P3qO6j4Br3vLdIxf0os/n5wDhitzGsv33dbaIXPhMahGmTY0pQg742rhsqQ2GuUYDavGiLbdMGISkUMrPOC3q9fkp+JnXQjgpD6bgpklIAUhOxWSqZw9fB2chp8vistDdI7Vaf13rZqbOgtuPQSiVcCHstbv7JoqYqHz5pXYTyWoQFIaYs+qCc/3veT0SVMPOl7Es07lvuPeemPLlF3YJFtZacKGfh3SROiEN4ao7+Yr2a5YmH68H1L9fFG2/fTBYkmojLvzbAirZZWpsuQx0xzFqqFxWqUCWNiXhKxo7VsjhYndHdS6z7LwsFNLSMylUIX0kRYFAo4CA3u5r/+vHLpckcg/sAmq2vvNO1N1+m6zNwRZ4fEsecBbB5EqpFa67rsc2Q6JIrp6CEJTVD0C633mBRqbLQra89uuoYqqvEJERCPP6+/eN/MGDEsHvKPRr9Iv84cNMCAFH3o+dvvs+Cx8dY0LtRt311/t80SRD7X5W6P0cll9OhmWgB366jZrSW6HHmTOE0lLJNJ3K0071BB1ahul4I7iGAMKG6/Sl0OXc1sxJbUkZrV6D81YGkcno0ZGi9Zi6k+w1yEKn4f8/YD8hiasct3LZuDYBPLo8yd6AruDZw5U1iYbeg27B5mefjnIpLuJN7edLblnByBEeiQ1nIbUVC2v9IKF38G7ChKi/4cYoGjWqHYZBiJEnPx6/kZZNutu+C5tpdlHLTKAFTUyKBypil3RKmRRsOjoqzzrLVXeUay7QksKhLNNBpBkzHFRxIwYbqmgpBnw2ynrdm08/tCwM/HZw97l0UjCOwZmFAwdGhQSeiaUu7pFfSMBvbmWfP+ZyRkHopP7+e93BBg03Qa9cd7dJuBH4tdeUsEvgM+STeVIA6S02jfIzTzfimR+RxL9t8ax0P7HcFBlBN115yslRrHMGew/FXrkw0hCsxM+XZWTcNr0ObfK5nc+Xa4Wr1vb221FzxRWeXAN1GEq8nA43vSb0ax0ZfH0+dB7M0vTJx8lgC7kJBaOYMdjTrERkgEj9Uk/ACLPCrYT0TjzOXXq4uTQtubmJrfNLs1L1Oee465PCNKy/5xzqfXivqZ/+PeouushTiHEPjCS7L2tm4KJtt/5OcxEXZH1voeeAu4ru9d9E5fHHe/oMWopUy4Sl5NcMW8+NJg3cWFImErDvu6xcZJVpGyVfSwSXvnIgf/lhyXQVJrJ+38KK7OLwt5NxyHLk9e/frs2tzLovEyk9COboVctlaXqQts1PXUL871rk2iF4qLr4QhNKEkQlyk2VV57gJgLvphdBfUfxM2w3hTvv4ExIK25S0/xn0P27F4UtZFRaXng+ai+4IMpkpQtkrfPwgSWAnDueU/6KK5rTj5FUELEk6cjppqwGMdbfdLOrJqtPPDHqb70tGTYpRJFdlPkyjQgyDxcRXX2lA20EfMmlc7bbU4kSyoIR60fZQbLu1yTWffLn/zDK6LyIwMObz6gyXFSC2oz89sgzod+Zeoatzz8f5fvK2jPqC4ajDFqG15A6EgLWCcW4DMsCouV5re/t0yMgVFjR6kmKJL/f7Pwq1XR0D9Uxm4zWRmm7H7rguiNYRUQcKikCHflyJVA2ZQfuby0LFPu+BS/OPuigUNTitBECv2SHAJKsfP7A1VxCyhgrD6/Iz1/oQZbvuhzAk18KV116+Pq6bkF6UpLUtwPpEfq1Bjhf72KnZZZ2/r6USsT773ee+acKNv6Q5cKeoiIXUDXI7So/iPgRhVwdWJR17pjtDwSHmLTl17928I1efRCDW4Sh7nr/9zH5z392jz318lh6ECW/2/au3Dq5o6BKCERSErokwLZou1Hja25P+ke2cyCOuXUzBNOd/stcb8eFoMJZwEz+QrgcNx0VZYcdEs2PPxYzqLUXIgDN1t95e5Tuvacn9HrgixBMLqhyo42iRsrOTDtSSt+oq/iO6/sJvTTN1PET7Jvg5zDeiJ7wCUzy7Lq0mV2Y9dX60ouGWQtzedijNH71UUdF0ZAhkY+Ptt66no0GYSHUWM6JL2DuFYhFFgBG1+pLLomi7baLvD4rt1t4UAvRbuiUS8bt4XQQZJZkHf7di8/IEAX8zcIt5LPKshOtJ11EmhTo2S70vXo4uEfRUIF8y8ozBO3ldnHQuQf/LYu4DGm2hnvukuDvp+eyrlwWwW74CJbKsNMsu6wEZaT7OOg5QLiB0e1rFs0xjY7dEDeYLEje9uabLmwiAEf3p5U+z1+bQF1e7x66t6s4LpBLCln3umSXHaPh7juT15+P9QWpToZO+6EHo1jnNH/oEPnrEuSzzwxGdRFzoh2cUvCaKy5zezX1I3wWXAmUACy71ATAkPyNuorvuL6X0ANJJr73vlMKheRSoU5abhlDx9wBgo5bjrEPNUUCyAde2Gu6Hlbbr34VtWeeJTi3eRKdluCbguj6a8x8giBnH4NJEATzOl8L0G9qYYHTMLS0WuD1ULnZ2Z3bayXHD8qPOSoa7r07Gd30E0bn57W+1sElKNn8/AuJy7P6aia5zF1ZVl7wHUH3zgq9LJOtoZ5TsZ4PDTAEHoGjP8YzWqDFA8rujmtuP+uwgORE95sefjAqTz5efu8W+oxr2M/OQv3cbt2jcMTwqIJ9VoLfOVhHAJRMDRWBMA9VHnWks08QfOYPWNWv0Q7ll1/OPj1Rf+YHuMZj2BB9lStBNP6vH39rVmoq1N/PPxslRxwWeWsIgfXvFxUSZNqnKdji486o1/N85imTuuZJSY8nfSdDCnKDXarijFM9wJSYwQ9Z31noCXTQM9z82GPmQqdNdDzlstJIef37RAFBjTNOiyZZY6LhP8ZCazPLbvKHH5r3DF44R6nXHeTurJorL3PUFApmoqRYM5e+dkp7TCstNTGFmXSpL+jTJybosyDsE5Za1EEv5qqVn3Sic/0MPyAws9Dotr7nIiMxQ5aKOf4u5xwzJnK7d3PhChY9sfBShFnBlxJAGTBYIn/1Ve0OtTz3jGsmLPA/0Ef8dyxPl6Gw6+UXo/rC8wS1t7U7k0NDFd2cCD757uHDPX2Wmg0EP/tJSeuRtam74foo2UHuXL++suCy5vz9Mksl6TjOdM+eidI/5USnZGnVZghIiVzags03McKs089pBppX9RxIig7K+gcfiOK99ozc3r30PitE2c47R8uzz7pGgcWzIOJffcF5JtyAb4CAnuMwFLgJWdRR4CZl9UMas76b0EvggUUTP/pQh+3KKGZGujQRGhFBSenCIGWk82zyF5//6BAYIU4CNDcIeu+ZNJbQVLL7rlF93rkeeMlAhiZp2El/+UtS/qvFg+d7/CymwhRtu00i8JnPQVlk3up99fMto+L0U0wEktAn/WfAYHxESldJZZbux1jvgfbVaVQycaYtvIQe4V+jv+F+tkinYIvNzFcAFXn2sP23LtAOfj6VmdSrwx+YkvInYJlFanndukXhqNFRdfppyfQj6tmlNEkJk7Ktu/WWKBLyofkqe45z3Nu/UjAnkYq7qosuNPcC6V3OAQqk6nwpml13jsJtto6yQw91HGDiHz+0+9FRhcJqNK2sLJpfl3G56Hy3dE9g4lGXpT2gpPnRR10OnF2kkhsh3DjsoEgLvebhtjDItdsykR68TlSdekowqRkOiu+L0L6T0HNIYElBqMuPOTIK5MuTNsnerIJ1BkXNuefazwSC/RBttKDLtdv4eA/ca1KNgm22jNSG6yc85xRi7LbrbORBPhrFJZ/I/OTQFO+yswWeoEki8LLwq64SRdtvbXZeWmA9iugH+lELcwHvnNs9HLqndcwmjDWgq89pOoQ+U5BDW3Jen54e/gARJLl50lAuSPkvtPCdF1YURMmgC+jTsYZYxQlEv0mzLr5oMKK6aKMRDu5BtT2jIamlgPADhVF+3NFSiKu2uwYQvhRuPDIqTjxR9+rBmPiHP7iAiSyHR1WP/5cE87Eoo2hLQgylNpz/9GU4cI3gSyCpEITJiZqPmuuuiZI9do283isbGdPoRacdlGody4DJQHE2CZCX0MAjJc7ngCEotaLQgdA17cTQxTlA/j2e4XcSeiA1rY1VZ58lDbelDxf9z9D7EjyBHaXxrrtjhmDzT7mYx079dcNTTyTjkijdhKCxaxKpLjvqiIT3TFoUCEbwpgEaLabMUtsvGGeBlw+Vj4Ufu42rpJhbPi2Vv8BBwR99SWERaZ/4wQdRI2vNqCQGPtLU4QBeNniXhfUE9mQp8jzuW/Bwx7GeRNPy1lvfrLdfCItgluMn+Ki6ZwgkhgJERpOL98QOxJxSpKDBb2x+rn8nL+3N3/EavBaxmbkcdBQhHZ5w9RFVx8enLRtGHlt8CXLxZptHzSWXuHeeijiuj5gOBUolB+znYiYyAGmdCY+nfvppC9fMtjmzG7iMlGtXCD2ABvIkjET5OU8IfuvvfuvsANWfzS/K/bjyiijZew+dxdmt5kwSKt1tt2h56ikrn+yivp/6fBdbya0sWGtNu22QaTJlqHjTTexeQDYLgvg+hvU7CT1Mq4333mvrmEtaAcKIFeVzEN1ef6ibXNpe+40f0k+90KoT//5JVMvHL9hktCz2EobpUHXVkFaR9vSE188/d17fwwbp3V8y8f8ImuAPF265WVSde5bLhonKzm/08k+9EAiCb3VyW6jwArbTwegZ/gg81r19D5DV1yEmwKqDDAdB6T7joo5iIspVJUwLayGCBMYY3+xpujXVrjQzf15urtAhM/S/8L2fLLeEYptJf0sqISciHB/9Kdl//sj/T8mr5+9/9qndGP6O16Aun3ZTXMxvkIFKERjqC0bXXCLB32l7p1gnLDE7j5/Xq1cUb7111F5xhYTyLzqnUigSsikTBPNvuzWKmGMv354UGfX1k6n9mIsLNK0g5fqT0iMPlyDrDOn+0k5LTr14u22j4qijHORmM7++WO5jtiuTawEZ078BgUublEfn+hLSznzm+htvtAsNf994GqWW6Wp+BuYSmBJM96dznGpB1gILPRdCg0DNRRdFwdD1zEtmC89QgQ3WizI4xn9xjx7S5z8JrO+8CDBaa1NvTc5a/lDhqI2i+txznEdFe9Kk0yTNWiHlRH92jjQnhwFWH4pXoEKuoOxR0BkL/5/k8wIXp8qfBG6WHnao2YDyoBPr0V1KNxOx7yj08umxXB5pJYib6t/PfPVAex/m7yj0tuJCVLa2WGlZSlwrmmQIlOIuQHBKXXnbe+/Z2kHm0ciorsceNWcCI7OhJ4NCm0Nbe8ftUXPrzUnzC/uWm/z/tbffpn+/K+Gh1+9DQsFr8FqkGU35JYUCaui4CPCibFp/95uoFlIrkgInGGaov+TiDtLSam0iyttuM204nwsjRcVbFT3xElom4RC4nVtgLvnd96P6kguNdvP6r2KkBeddbjcpXykWMilpBoOusYbbwwnauUGri66BoSDLyz/fYFhUn3eOU3ZzQ5KwDTU/+6wrB83YS7OUFAWNUwQWK8483TMdO6KEBV0LJPQEsAw5XnnJzQQcILSVNdYyS0mTbRm18ll44B1r4QmWEGnm64+9eAeqqWimqbn+2qiQn1Zz0QXy4V531dqMmirBv9+4BLJgw+GO7AL7gE34vYVjNvVEGJdm/usLK7n/lIW1oemj+dlnovzoow0pc1fGV+/lQ4e/Pgeszwq9/PscWXry11iwkl138QgtyEgpM3XJqV4fq0kLMbCag07hlZuOBB+h3kIBYmmZxjLpow9N790mN486DNpVCZbS8IJlqr3ySrexwvdGzXvFiVB1HaXrPiLKjzo8yo48zIUppYccZEhdvO/eUTxuz2Tvs5f/v2T/fdyxCLdhuVwzKjv9Gicc6xHatddcbZ8aNweFYyLLzPI5oJT6Vy/o/U+Owk03luvT20QrWFmeeX7fVaL8oAN87U7lEeeprXWgjwA104Enf/SRXmzOc+vZdhgWKaHSffa2omVIJpRuxE8o2SYV59ZmQXLeL/uebIQ9f63VdNYktMcfa25E0s9zW1R5wqxMX73jFHq+7v+gPJcagd13i0YpRbuf39HILpDQcxBgIK274zZ3DOX36d1B6JeO8nF7ObBEDTw01vDXE/Agwjijob49AMLBsp8nJYJQsdFyC6NendfFxwEaNr/8ogcawKHOQ6KbafJf/6IDeakOwUhpTPl6TBtB+y/f3VF/CDk85ECHGyv2n7J4oOR4W6SwQC0mGoVgQhbckXrm3cl/bRd4hD9r7eEElF+bzLcTbKW9k+EKUh7AbQqnCLhmm4yYJzDx44+j9Q9/cHUi6Uxy3ChCGF5h+q2+4jJZxLOiUsJcIb+3fO+9o3TnnRyJLt1yS/nNm7kPA4hcAJHFRutHwYhhUTB8qHfae5gbVCjVTg1d1zRqydb3+n9y4JS+FgzfIPMafF3fiLJg+IZRtMWYKN1/f/nvl3pyEvCcjEZ2ca4IvtIVR008f5vTbTYRJU06xEMqzzjNiGRmfYPPIAFBSnPZ1Hl0XCAC7pd58CC3HKVzhBAu29VtsYXbbW1yFUpmqUYlFw8Szr4n/fYwPTEujBQjChzSmXlVdILsKLuFURoiED43FZVfSpnAE0kNAvUF1I3g9n0XGfp2odeLke9mokoFmnPz0ZEvzYaF5AJS/fpF9SmnJIMFdIAcKOPw6P8pG6SsEUYTSAuISuIiUDU3Wf43cHDK5/80SQU512nptDQXM8UKbGFolkATU4WH9eG1Zza3JEGgLMTUw5mel+fXoQ6edlhok6cKyqOE+LspX/zThTWlu+8kuNc9eQgQdVLIooNXetD+HgtNa6YPz48PTBZo8eCTasGkeMi+YZ8+5pDPRegF9Szo2Zw8At/R4hO977dyggiEBqicJE/sFJTgKwMWKGsFJpKSIgdde9cdUXPj9Q4+VV5wvjMfZVKIpbKMRXvsFgXbbuWRy2QNaCXN77GSyS0JlDE6Gy4Fdi4bq9Sjm3xpwVLv5SOvN/38PVwD4esis5DdnvbT4f/972y9h/6WOXC5XbX1XvDL0dBVftbpZt0hSNsxhYWvi8vB6KyyQ/aPlCwspdTw7ed002vINaKdtebyS5xt4vcdfATxSBD9/wgS1l7bBB06WzQ2lY4b54o9Gn3wt2Fa5j7hslASDVceMwwKKeKRQUlLeTEvH3RTc/11VjRJHb3cRyHhuS2OIFkA0oQgD8hZaPxCiUAlzxzDCqE+slK4tR2V3retbxV6Ktnc7H/D9VEEzJBlobsIGiv4zGD+ZOQwNeBfScCYLU6LY9XZZ5t+GtpjqJ7pMqqB2UYHru7SS6Luysui7tqro16+XL0QBLxzwJVG+awE2rDUaGpy7Mzzbhb04nBSdGNl8vv3zW/f9IB8xBtusI/WKh8SBYKLgYWklRcaZogSSDGmh64TE5ZKEMoE+VdoXg8xlB+JQvpPsvBAblpm2ySUMKzy0O0f6tAzOiqPkViU22ag/BxCn934+eTpaakFEUAuuvFGbu9kek7Vqafq+Zwpq32iufwYxgBvfPGeuxpSwllIB1l6tIRcCiN/8NqRK0UCE0zOShmS0cWSIJljI+xFk23WHroSoRRbXkLGEM4VKDTRuekhAYbxVn6qmW+zuydbyAR0wu/A9gN81t8wHTenq15Pr+vAK+8FlbnQC8VVrW+95QawjnEYIDIuSd1tN0fpXrt64Ao05ET0vxTKA/aXjtvDTLsO2nbwrREizhHElya/1L83PSf36oTjIj14sD7b0pmhLWtE6aEHu8SWYDG5f75ybiFbrbnsEm/kh1FrpP+mlxJ1//YcO2cYNwsK8XIpjPxePc1IRdFQSkoLunViIG1UiTYueNPUtwo9hQNt0kz4wsAu0y91lzbv18eHAT8YbjZaS2lAabzrrijZemv31sPFVqDN6OIC3Sjm1hUOGRJFQ9eLImm/ok02DhhMi7fbKkp22iFKZUngri+TVSk79CDPfivDFzzumCgHTuoa8OmqLrwgqmT5IEks2Wkns6mW77NPNN17r1BCWho/8XGoOCP1QdCD6qm8/ivLwif5eGiJIOqERceEHPTBd7AU/+5FAxDz99HyUHSlZVXR9BZ4wXoLPEKdteqdBT67+R0238sNIG0E8Wh6nbWjYG1tPZs0DMNrDYy0Xie1tn6HPSj7mvrbAasKrvb3exJDYBgjGRtKe01TDncCJdh8b0HNCK4EOZdJux2tORZeB9ZMPtkNGun4/+1bv8fvGhX09Gu5h0DwHKXCzl91VTPQwrOIazKjLinAyi5y4DxfxlyV7Lyz/PmkCAuLmbPcUlGw8QZRccqJSc+60CV1+SysPXP0p+TlOuPQ8mpSAITFzulG8c+i5lakFqTm6qv8HsS9CJCiLMgkwIkHuQmU1qSJQbIEP3FFF3TRjEOKEdeO4B/dfXTg5fVeSYhroyg/5aRolFKAzHVB13yF3ppGL8YQAAIXrgfWzcIfNnHBfuPcBMDIpZl0CgnW1158sXOWWV/G2j+zsxbhG5siCggcKSGVJcEipTjI1ChDd02ARO+Xv84g+X3y90Zt7MoyYJPr/gWxaKls/MUvHPVkkc81tfbVV8tabRE5WCcpLKKouSssZwVWceKxJr/4obXMC3PhO+ImkboyCad8xIKBA52ucReZrKGFONMym7/mfAS+4+Z+8nerCi0grET1M1bZW5aPoCzZmLyVgORCEjpYNLNY+PpnGnlWF3IgPchz4mt283NvKYYMO4+rAC24UhDtQqvXxKLbmrOlGCgu4r06KwX+nkBl9n0zysuKRz4yZ8pdg+sPjfKTTohGajEkqB0DcD7DQgBt77wd1RdIaDfe2CgVfxsiSgwBML/ynLMEu38ntJoEOIlHTfrsM6NLGsswNtQ5MDuBQpnxcrHSsEIdc0y0/OpXCVzvLMwyPo5Z6Rq+t8s4i6zN51F/150mzISngpgEo7FAXcwChPZrilzlBTVa8xR6XoD8oeGR4DMwnlykobF2gYSv6oxTzflF9JTfnyatyO/SM4zA2//QttDL/6H4JfvzbCCw47aSoOebQ0Bxjf5/DuXARsPTWEIKQ/6hC1NkBUmztOrmf9VEGeTXTt00yj2A9ZW+eM8H1+HmsBesOyjTjnuvbugXc02Z/LsWVVaesybUUrbvvrMFXts98jrw5OBRjAsk9Ah7dmeEnntH8ZIDmZmmDqA60Nfwuye+d0YIMwKPIM8h8HPsDoKfQQP+O4TcpJzd9VxlobpJUHmfpaRggP/ZvZQEcNmlDOH9/kB6FAOdbSgBCo903X4vPhOfAbhvZbVo5ErRFI3bM2rv+YUzL50PP62oRPlJ1zoFtp7gOfdA7gJ98rl9Vna8BA5F4lGuOZjYGpOEHCDqJJ+e3nADfa5+HrPO8E1cnKJttom6G29MaLoWYt1D5zW9vNTurRHr6I2lNHv4uid0X84uC/yNUIATLF+QNU+hx1Jyo5oFj2nDLJAgE0CAS56vRGjrrr/WBzTL1onFhEyg4nj5PcOGCopKOPW7QNJ8ykPXlgUHLuqG0aiTz0EmIKXtwA+HurcOmh42/HP+NyDt0snv4M+axUYCTH8zhyh/QP+kEeHmm0xzTIDPUda334qq886Nws0282sj8BMWE0IRMijddZeE9/2jDw3r/1MWypMyZ7PEHHmk3aJ8PjMWnh55Dn1nIZawYX0MvS2U+p2MRWwX+uz3bL2Gfx+LjyWdY3eE1NoOomW+z1rejr+LcPM6vHfWGmevpYOlJ/Dr4B3oQUKT321Zfy4/T7Y7NDPoYuUMuuA9/R56DQQ+8/pYOl7Xfv4ysMdK6a87MIr3Hxd1BGM5j3OxeCBRmmKgQGPKUHr9IUZ8GBpKsBEeW+2XXzZM/0oCRBFR3Y03CAlsIQHrLsOxpNFirt6f2EiFhK3lxRddq9ARXSzsBeqY+MknnsRUstdeclH6JsYT2ZJslO++ezQ//rgN3dyqFTuveQr9zIm6SZ99GnX33ON2wtSaA20V/oVlEDzCl6ZuOAunWT60uukMkWSOV5GgVD7R5pV7RkpwGuGsOIoA0slRrX+vOvywqDzwwKjYf39znMGBlhqgA6sDlqZFFyLMzTdzeS9sNcVjxrhritl4tvpLLSYNvF5UnXOm8/MwpJC+mAI6ufbaKJYmdpRVcIw5ep5MuuGG9o9gyyVVRe71P2ERODItmAQeIs7CDTYwH1yuDhqpoTzcnMFru5PQlp6AqgSLDER74AvoLJ/Vwm/B76AgOgo+CGEduQe8VnbrdyysvB6dZiCtpZdKKhtBaXyl8QMud9wkQUwjMglnLoKfVUhS7FwnLLD4oE65yfcs2GSkrNRGLpiiDr5o+IZ+FtBH8XvpEetnUnPaIzZwSs9TedZbN3N9Qjz6TLm6Dwh9Do0oPWQYBvaPgq02i3KhTnxbePHmBXMRTlJuiX8/NvL1WUGdbGISpAKp3yfzRIzKKbMnnoiSvfeOnJ7J7zJ8xfMI5doSRyBj9F189O+zSEFOK5dB/c1rTt+l9VyzaBkS1NLNNo96ags+/2fCQ/kt6bt5Cj0Bh9Y334wq+UEF8onz+63iqqPxeuA83PKjj3L0fI7CCMFkAn/M9qbwAcEv2GwTHzI0IxFiSAcYaUzxw+T33ouJb7wZba+9Jn/87qg4/JAo4EHrYBbrPfl7hBdqbW9BKbrnirfbThAQaN9NsGxrd5tNLUiZjMCFGU8+GRXjxnleGFV3kBgy5SU1bL0oO/ggR1E97kho5j9hUddg6rFXX0nuGfXc3SXEBO2grNYht7Bm+O4QaFJwWFEHyhB2Ul1YYyxiFgZ7dxJ4NsKZFXw20X9eE6uK8qBjDzdKByq7qeozNKfVE/jN+1kRDXKDU0qwkxRaoZ5H4c47RvFeezjNR1EO02uYowc89ZRh+c9VZ51lP7ni1FNdBVl+8olRfuJxDtoSvCUiXiKLjB9buOP2btmmYpIhFigDK4Kh67oqrvzEY6P+wfvd126ug3lYOzJRCH7ra68KEguN6l6OpzafmJI+l5mRdt816n9xl9uokQHKniloKpQByVlJLqVcS+buV511hmcG8NwWxLr+kOWqwSlTjWQpHiqUgsTSZ4W+CEN23nnR8vabMU1G+Nvc1bkLvd6EAF6jIANssNxgB1wEh3IFucg/Vl9xufu552AkySwCF6TO0JJEFylcKNhi8yiTUJvSN+sDZW4W2skMMBeeF4WbbGwtD/tt01NPxETqsD/9e7L//ncPJiRnDeRi5jxTZCjCcY3ApIkuVqgjpy2UQEyAm0MnIC2XVH3VSnlQxgki+E9Y3Csos9v+9MeoveqqKGK6LkUfckWIhFtIEUx9tSWGd7+n/FGsu4Sez1W06Sgpwq1NosjcPIpY/DdY+6wPnhV0vmYgsq06QT2i7WaGkduF775a/0it2t+MLQWDBkXh4MG2zEV6bZRx8dhtomTXnVzLzzMt1zOoOO20qBSCIn1Wfc1VToMSAKMegEmu+KTNMhIwFBEHYvM9P2t+9dVoevkl55wbn3kmKQZ6+CH3qSNw1TrozJyvkJtJwI4JSFTrMQqNn5Mb55lSkflt+WoECIFmQErx2G3tRsA8i0Gj2o1aetxTuvGcsps0Kdr+8mdTXYFIoONi/gE0WcS78KN/qMhjmbHmpBh5PSL2cxNcGtkaH7xPKHtbIQ65rEss4dgIGZjyI45wqfLk8eO/tXx8rkLPGwLTmXAKSwj50AnS/nnyswmClAqW1z/6iBsgKN6Z20Ko4ZqnXhrGj6Jdd3aeH41P3rFzxBxXoppKJx0qrAVDFid/9veYIeRAI0d247ck/cw6BCefHI333x/TBIshVZhaVOD8vqeYCuJioSz0eqCUPtI5R2EEh+O7VDD9mIsiEGrhGc4Abx3C7fw20XQJpclBhsi3H7CqFa+He+pBj+/axXCXCq8aKcuG227xQcRSFkkBAK+dZkO4gfsI/LoE/yT0Qm24DHZ7MveIAQv8DpFsrB00aJXHHedW6forr4hGCV+jUFrT/feasaZZB4w5cS0vvSjE95pRITX3dJYRAKNICqZkoumU8+JKTa+tdUPODCo1JVBuzqmrdT2C/7283MQmpM7ICNHhRqrLjTkffOAIPJ10tMPiS5N54Wc05ZgkRYKTNSTzW6ABCF0ZKFq42WjB/F5GMl8SGFymq2siME6OyOv3p8viNwk9eroR3PlbbWk+O0/WEbr8IQuUB08f70U8B55HZhK65qCTQWWcVsurL0XFMYdLea/pWgmPP9fzLdppBzebtX34YcxsnX9Ab65CT/VRkhs8Owok5PT/OmjQXX7PlltE9WWXReu77zgPPs+brJ+jcaiMo3URi18gC+H5YtLWBPyIB+B/8cAdnZQmL9KBMx+7IDiKIVu73/6fIBollrQ2Yhkmw1iih2jY9uYbUaVrhi+OuABkCBxqvie92KDDyjST/xRYzyLwSLVi9XVXR6EeHFFyp6OWTVKYFlyCbxJej+qW0NPGTCS5cOz2USOrCj0YU11QaHCswR6EL+zUGUE0AmFZWI8CIM9PcVWmso9gWmrgwCjeeQdD8Nrbbo3GJx83gqJ6cjrThEqKPbEHAsgZVDrqULpSUvedunWegbcEhMpJgk8UO7lNVgagvT2WTdOOLLJpx/leP0usXIeWW6otUfi8Fq8p5eD3oTLT76dNhWZrS2Ldv4MS5z1RKCCKCqEFaknIBOAnu9pt2FAHrylFhmJ8poRvsqw97cwlcl1Av02PP5qpApxP3Tuykd2dl66Xzzi1IK3n/6G7OmlKohmJcnDShxB2zAKRZv6es0+JcM3VVyRTcTgXuFpy72jAqpBr2Pzyy7o/8w9Of0PosfJoZmquCbql+vZpDxrkdeseZXvtFQ0PPeSWSR7Qty0eLFqfDqvSo/V6YzZ1KWflGafZ70dTY/lpLGCOOiWf1ddd42IHDsPcFoeC0kOsAQeD36Njqv7225NcKpVXK0pAuklABF0JENLRREnwwmCv5RGgrFAeaOPkAGcOsbe+17/NK6DUcfG7tJHW3n6rRywD4U2aoPtNuy/BswnS5sQvgOKw/1J/X7b//hJ43af33pXSrEhy0W9I6Z0jpUccZQA+OtF17UyE30E/MiS8zmqrJYHSrbeOsl12jsqjj45aPYMmKWMixbQhg546H9dZQFFiN7pu3DILqg4mUNiDRKSoKRSZmk5bwaKgeTZ0CJIe9aZNVkIHUvTvSKkkv0P77T+Tdlq5gFh5UmhGDHo9kAAKYOakyd+4ru+yvp45ywiScen1jE4bs7kVIJYeBh36FIqlgKmoA/HyjL+imUuCScaqXs+K0vK5zcBL6iyafR+y18uk2vaFsEtucJ9hk8a4gWorTjnZsxeZylx+8EFRdfrpUX/HHc5CuaMwIwt8j8tUduThrjUBfXM+yCgwx5DxbdOFGua35hB6X7AEynBT8KZszz0cQc4Kff5KPaLyqKPcYYWwuehgARa/y4Ouf1gQFs06dtso2m1nd04xwYNOqtJDDzKDCf4b/h31/vOE4LpOaqS5EVwzgjwRiuGTTor0gDVi/HLLupc+r/cKTs3QakuLJodnQQRxfgshxYoZjjKDT9qeph40Nk0rbP6ffwMJoc3nhyy4fmaXNxNcknUh1Qk64X5z3y38UgJE6MmAQJEMEUSzfF9QDoeLmADpqPqbboqSHXf0ofXMOnL6WHhtl87KJSAij79eIpQAGUqjnjO04hPfElr4298ssCbL1HVlF2iLvPX06kpXqU2WOzVJwkhf/kT9DYVERMXx0xkN1vjs03b/CK5xjurvvivqpJDpWSdlVn/XHcnP+fcHH3A9ex2/g4ty040uWUUBUadee/NNLkzBCmINGVxKDfw0IQ4auL7voswZJcVnx5XhntEU42Dlit1cuci5aXnhOSMLG0M9a5h4KUs37Ra18x0Wd8zP4tO/BwNTQMMorY7l3Ua/eXkmuIRUs3TffTy5KX89AthrWhnTkluo/8fNqBTywigC/100pNfidYkxwJqbr7Nu1ie532RDaqVACPjNL5g3p9DrRd2eqhelm6pYUDxfMBAN+KX8SAQKH2/yX/7y3YVHN9nkgILYZaecKBi/i6vqiBEAUxjhQ308rgCDDRa00ACrg8WnvROfC9iKwCAs+QP6RcmeuzrXik8INPy2xYNDSMlK2G2g4QfBhgxCh9zDMfVA7VfKvWh+7ln7tu4TeOpJb/u6+rdW/Q7KyBzrsmD0J8yQBf2qptpZDist3ZeZej+UB4JcwfiudQXNV101KDFNaacZw7TlGCtH+hTaSCnps3DogLgIv6v3dt/d1ZDUMiQjvgXrM+k9896TH1+lTxRvvZWDoQTSeF8P6+igYDkwWG/gPNaXfgomCZFOBH4yORgXgCBbje5tzbXXRJXOC0NBy0892SPHiw85MIr33yeK9xkXxVJURXo2DAvluRPZL95XPz9w/yg+SPuAfaOI35FbUrTD9lG4/bZRKDQIIiwUjIXzsOTgA1yKXSmITbcf1o6gLsE05tPTSYlAfZdYDZ+TMllKsRkUYjRE8U0GXRXQyYYQ6bnznHhtUrxf8z5CC8mLyABhCORuELzGxaq9846ouvQS3yOamlAa2d91AxVkrOef54B4Xt9VZKCWsuDS7w+jDs1LcPuZp2+DYZ7s0/rb30pJ1bnNmm5IBnyWouCXTYbFstM6K5Unn2T0TL+ALjh5305rTqGXIFuA4F+T3037YZ5g5XhZh5zuEAxu7LTZNEG277OANbB9NOiBQThZQB2z4DcXzLhomkCAqMDGBV1o69Z333YQkOgyY46yQg8neuVpJ3noAU0OPJz5LQSewQgUJZE1gD+AaGnDzTdE3ZVXusS4hkYiRmEfe6xZUSoOOywqDj00oFcqPyTZ/D//VqXfqT71FCnKc6JO1rlOwtEoi8aIYlwNqseYYMr7cqDoMGx57rmovfBCPehTovKkk6P65OTv62UBoUemjhto6uvVQzWxxt13m6MttToNJfLVqeAThHe0n9ReP4prert0ulgCVUV6h0EQHdhhOy4OMISjjBKru/rqhAFGCK/8gP2NNHBD3JSz124OJDKxpWinsaaPLhizSaQ2HhH5w9eP/A2HukSW+YP5Uu4OSLLJvZN2o4lneGYLxTCCOm/tNSNvrQFJTp40IgFIOvrI4282Ogq320pKYGfPjWOyUs1FF0bDL+4KGHNodsEH/y6LGAUIolLnsXDTUU6Rgqw4k/kr97YSJjUNupvb4kzjorT99vVoEJqheamImhMJNO4qVholz8Inn/LppzZC7prT61M0lhVaIzqotwYOsMWHlAM+hMLRo8167PiVlPE0nWWMSgXU5/p9znsWiZcddJA7YnHPHNicy5pD6PFdEEoG/hfts6ejvaSNKI3FR6T+vvGXv7S1+l4LKI4/LquJZURzpwav41pmUiEV++8XbTqMTLNZkJVc72eGhlAIpYcOTqqsFk/yrkXbJFN2oB6yX9UBsnZeZl0RHJ8kP5IqRLQ0vdjFO8vy0BNOwxANRGutFWk9FHjUeDBYYuByqn+Hzf8D0/Q7np02aFDSeLT++raytFhWXXKR4xwUgjhSKw0OH9yM8oqYqmsAHUz68EPXM0yR70kzE4FN7h8RXz67g6RyWyjXxcJTk+Dx1LIe7X587xX1DKHT6mehrJI1btIhxw2ZW+QZHxRLQWdf6bi9omCjEZEW7Mzns/YVcpBydh3+6vp+oD6nUATbpbgoGWII+vdcNoFEfrZapkpPENoByb4rJ7ufNr/nv8lssg3UG2R+J6kE1M/5HV5vDb0v763XAgYXCAYXSYAwIg1PPh6Tv/ziG7B7fgs3kWg5SJFSbkaRI4AIkXkfJcC4J8QaqOrruGZNFlSXy0hvPB2lFIOZc7F3b7lUA4zMCFjPbEwYeHh2uMaVxx4TKV27i54k6JxVgnH8TaEQh9OR8utd3NazZ8LZt99+lr2pnIPqaqOvmnPOdhFbVmnA0INfz/USRyONPbc1h9ATlIE2qPLiCyK9+ejIWaW3BZ5yTGp+KyhI+J4UPR3X7Dz+Y1F++GHuyMvHz9xmawdWpnzyyWxINJ9F8Kj11VddDpmWewCcze3R3fXRKVkMcshA7c4z8bMr8ZGaYrr8VCxbs6wsMLlSvm4J1NKjhkduHyb3JMgBX/sH7cUW07Ut74q1wu22ifIjDjN8bH7iCXP4w47Tse7BUHUucBWBx1dsfOD+KD/wQFNgm+t9qSUN4/MHSUjXHZQI/fLLyPovGTC2lB6wT9TJf0axgWg6LuD89FTKML764gsNs/n7CVTl6dq/8fkJei2hA8uGAiq7l9JeWp8T7j7q6aGJcpk1WYIuLil2rT9l1ChnvlKLr5/73+e2+Zul9JpLavPaXRazsCTXob+HCGWj4Z5PQIoYy4uAzTey3mERxyKoRgs4Cp1M1b/0+UBMoNtK/GoGpZaVJoYjY7ymfDnewzJcUDVyY33Orr5POVIWhTqPVPeZalz3mmdJapJy2TLcUP2O76kEH6WGe0uGqfqqy505IcBHOzpDOTEYRZvD3Xi2MzVcx9QvPo/62252XQv+PEFfyFUKt9rStO4w8OKqz23NIfT4sKYEPv4YwaoBMZ5STN301Bqr2a+id3ci/PE6ID902eIzlPKRR6JMsL5g9CinHYCPnr4iCzhHtZ9uWuchEy5WuPfepEKvd88YL581d4VlZIFW1aHd1umrib//vZXZ3BYBRpANZcNQPCFANF7AipJaf4jTZW6w6LJ4Ekln06RCgwgHsYsONa7P3Lb/HUGEuCFpbHEpcHfBbylTkBPpUJhmyvfeK2rOOzdann/WwaJvWwSRmh6VwjzwAHd6USVmjrZsj/06SWkt3+d218+XXSIR+oP3j3qhi0m670Tf25fu7TQp4eYnn5BPKHgqtwt4DRVUO78c14+gZ4V+fpvfk1B2VhRuvPqeu/3vURT01aNMdJ95LwuaDnzBZptaYTfLLZuaypMlntMyz2s5mCrUxOALMj2w4YzXc6P6EONBDKLuztsTxJjJyhDwbHnp5ag680yzBOXIymJtuU5QYZV8a+oXZhQXhbkFiT0VFkTjffdF6Q5jI2/JJTOQflH3pdBWXnv9tXZVQXAwOGHQcF9KGNg5eqSZeRofTOpSTGzz1BNRPG6PyBFamrAcz797pEds4OrGpuefd9A12yrccc0h9D5M8reB8USL0XhoUvriy44+KhqeetL9xd82wmdBF4GUqRMEUfHxBfXTm8kf3IABAxL8W29xbpT0A0E0k2OQt9ffJH/8ta1d3eWX+ybD5GNI1q1LFGy8oUs/CaqRMsIyti/9Ha8BjHXE+6EHXIFVsMmogDsNP8oQ2fltYKUgZbaxpP1r5vt5bv07v5fd2d/3/+NjC8Lic0tJwTKTz4HV56444Vjz7FNKrAtNrrfT8iy/l19yTCFNgQaKR4rZMJgKPFfeydJrW+jpWpPg56+5apTsvXsSXNJ97Qj9UIrk5OmJSMvXdu29lB3tsG7AyUBut8fSfUf1Hl97rRC5PemI0/1iw4yzshQPTDcry62gpLe7fr6c3ItuQl/6PtVdVtlb3/Ozzj/Has+xl0+2/s1NWjQecS+FQvz5KFgSwnEArF/fKBq7fVRfeXm0vvfOd0Kk1Iw0Paazv+/eDiz789PxqXNA6S+ZFYKyICLHvvLyouGBB6IMFh3B+S+XWEICvFik+/SJSqFX16HoWfm8ggwmTXIAruHOO6MEoe+SsOCwcQkrjznaxUZkSAgWcmZJnRMYdO2JFLGZfoTCJv/lIwdgYVQiKJ4/fKjcAz0L3Li11oiSffaK+l/cnSipuZB1tAt9ArknmA8emI2VQojQXDR/VApqtLz5hiHDrBkLBpsWZBmqjhfUh8X22KMjLbhCgwaTcmqvuiLqb7zJwSSYcSa9/578oySgQrCPCjACJ/mr9PW10gGY223pKN5x26i96XoXMjhP2gEiE9yAhgs3pu6uO6LsqMOkJEZYybVDxi7S8j1XdAunU17Uu1MZR703VW3Ztla46egaRNjwa/k+W+7K3/B7bP4O65v9O/xbyppBBJl7zMipws1GuayUqDQPvHPgEWTT+qqsC0GnERvKwi/j6jwrKa6B9+F9uQb5hxYM6KkkmKAfyqEhIGn+7etzuDzTKyrt0zJcgQi/LbQsKcKeLeFNUdYLh93wYXb1qGQr3HwT06cVbj5Kh3LTKNpmTBSP3cojporHUha8lVDDFlHM0BH5u6Xbbx9lO+wQZTvuuOB7p52iTH4qI6BKhMJIUxHRhq7Ln1UKFcVC0RIoKn/wOlEqn7jxyccc1Z+bezS3hTBPfPfdqLroAleF8oyodhtPjUSf3lG6555CQk8mBWP6fZ4PZeZl++/rOAAQmxZdrrFBBsvDRDosgq8Eh0lJFm+3rVyWJOCM0BN1r5ZSIYYDJXd2cW5BB6Q4KbFODx1i5UDvClTgbTrflVJwBDfzV++jz697oHNbsOlIDzVl0OocBi+zLPR8CAoxTH55zdVRNHKkK5S4KA4lNxp2kCy075jDXRiLai3SWVj88uOPjSJomqTZirYaEwUjRsgKCrLssUc0P/ywDn6Z0yWQYDbIPyrZd19ZmF7tQs8hLztw32jSQydfDhzruHBhzKRy4w3ulEpvOFRWjHSWHi5tk5ATYMlkTVy3nq1kQ1gt6PreQqWfZwNY/J4EzF8RvuzfdNzZv+ffCLJhrWS1ciVk9lUFz1Jo6T1ljW+4zj4m6bjsItDHoaw5R3BSSgoSCl/vSrKussLtyokUHd+zEVjq6WlT1fUB/aDPJoA4LZVvC8RoKKrTaGgq2nxzW0zDZb02SMd0W3pNuuCgz6IJBuVMk0zl6ae6go9YT+X55zg4yRxBqgS9r77SAcHaa65x1qf+9ttsVGDO9de7+Jr9fu678Z5fRKMsKk1VvFbZUUc62EXNAlF+k4LoeeHa5NCOvRqt1js5tUm6cUFTy8RSMHo+g0dDrTbEHBD/ouRZaIrx17idps3W7zv+9Z6UxGmnRFpuGiQt6Y1GuAvOxCyd0sOUG5NqrUG+ttpKRrWLzyv3umC11aLmrDMdvO0o9CziVk3y76mrANmRQWl77ddWOpP++c+ovfsOU5yl1hkQE7rKDZWxpt0cNmgyCnMLilvoiQYnqa93ovr8c6Nw2FALu4Vewo/lb5C2QXt9a9pLcIb8s/PcUhAUE7gZpqXZ6Q3nUufxIMxgKj8F+iIoqQkg2k/STS/edNNouve+mFEE5bFuuBQQ01oKZElye/YwvPpSB5aiikr9ved9dYpeGs3IX6IRhKKIPAkGJBwOdkEcwSFvF54OAgq8RUCxzjS6cMhM7kBkWf9m+CvBonkju6GTEgQ2ZVRP/kaQl9+hoSULw9lYYzrWII1YORm7DcEHDxpEwkJbI6TkZktkPclQmDxCr5101GVeK7uzQp+5fr8H1yiB8ERhBjn89WM/y5nyNyd+8omnDHOwmYcO8nDlnl2VPpGCxXXHse6Qg0C08amnPLkFCilyzi2vv+6pOa3vv++SUvgGPbCCrfeh8o3ZhlOozpNy96YKj+2KvExVnnfm//m5fg/6M4qXyDa0CtnBjV8sxZOSAjPvH8rZEf4+yXPp28eWulZKh2IjnvmCLM6kXb4/fxS1MnAYOmSgXTAHrxvV55xtgzFzalIPQJalljHhG4/UWRoQRbvsLPfpFn/uztWq06ur/LcUn5HOo0W3/bVXX91Cj6XntTsu5IUhl6VCPHDpwz7c+vLLRmpT5fo2PvNUMFE5PXRdob6MzOpMl43bS3/3tD7TN0tyLfQEdYARlGDCeVcg6MSD5wVyBXXLdtslmh9/NKmVnw9cIqVBhRglukSIYfKcKL/ZnXIw4OrBU55J1dLcYAcf0AymNJ9Az6UHSaAjl3n3Bx3owMZXlTRmCFrpw5L6on87h9yqIG5O716CmpvK2lzhoo2OvfJcNwrIQw3OPSchBSHQphuF3+sOM4QRCE7fOl9lee3X45sCxaUA3WJKEAlBRuiB6giVLA5db5S6ArE8bmrZpWLC0osFZJw5XWXNpVxgo7GgGv4LjmOZUSw6uO5Tl7Wi37z+2uuMfji03NOWX78SFccfE2lBeIYmEM023zrKKQvpOwu9/19f9bkIdFKwk9LBcVWlrAXPYQYWSxam5rLL5hR6mjkyfnxq2GDXqJMJ4fmYqZj6ex080kczapJGGu4vh9119Ch+PU9aQl2uzLgrngNbCAOLNmsWO6FM9//rsyY78zM9syym5NRNkQJoePKJKD1O90FuoIVe95yNgnKZsRRu4ZjNovYKKbaPP54dA1qAxXUSGW966KEo2W67OYQ+vdZA8/Y3Pv2U6xtg15n2uSztRRe6nDl/oFCalBE1KCg3/r196fPiFiP0ICCQLILZLvRrSOjPzAh9pypDkGrrCy/YvUmvvoYQ757R+tLLQoGNMZ3slaA+rcqFG+o8Z64XgpmS7bfT53jA6fXOyNxC74GOggowepYdcUikBq9p/5ZKvDxZwAr5122vvBSz5lL4QFqEpgfSTQga/ii0RPUP3N8+xcQTS4Br8hsJVMHwShCOg+MIfQdFwofECjGaCHiP/1YirUVgAmiFT09NNm4INeYWMAed9PAFs5gx3qD3pqe/4+IAonCann7SOVBy6Y4yS6kZHiMcCFBWaBBEBFqWzkErKRWqE6F8ZkQU8JKIKojEQRZ6CvT/6Uy/dwqlsYb+vi/97tA/y+/Gv5YrYVfAQpmB/Gz9zO2diy4aBbq2urPPiamykLgjbju+7FLXHZgqigDTSnpNkEn2elEkWHU232fRBL3y+ndQiv3/FZY3YUnjgw9YOU+rrTF7q0deC97TgJO19AhQjtAHHPTA2Ik0oNDkgnDrzFjA2VIc3hL2WZMyTTXZzf+zrQCmJL8HAmxqFHStd4cZFpbhG0BiDyZBkViZ0MxT5/fj3yYLkdQ/cF+UwmxMIc2aqycBVzgF9DVxy/rY/zWr06efLrClzy6ur/WVV6JcSJCUnevxdT9gfKK3v0ZuEMaMCsApcodrzj7LKTXqGErhanjuWZ+zzkLP52n74AO7btR+EGfBqNqnl9BXn3GGaeQ7Cz33l1hC6Q47JPn63feIVqEsP4Np0+2S02NfNGrj2UKvzbOsv+1WZ8g612NY6NHSbXL6+UDFe++uQ7i6hGFx83CldGgYjzvpvXe+oTW5IOe4338vmn/5SFK9dYZ8vMMP8wglqsRKdtvNk1X4nhRT5XHHRs0F59s/oqyTvCN1+QzFyC4qmJqefNwwn/p8WnyZdYa7wIdlwkrV8cc51TFeQuuBAxJQYFPleedG869fmyNQxaLyjQk81HUX77C9o8D4bOZmR0iw7rC+SPjobjPDKxZeh4jgXeFGw6Nkqy1NTVRx6MFRedIJjqpWX3SB89p85f9p1yTtRcClHEbfffeM0l3HSmA3NytMau0BCWzOMtxgpXlvCSaQjweWXnGFqDn22Jj0dtI22vjww56+S5+7ueMkjPS929JJuJNuOlk7ou1QXHHN+OIIvRHLAP8dSo68d7GUZa38Y3zMKUJ4CD0+Nzlh6Mks9MQKsJ6yokT0IUAhs2Oo/tmnAdOrG2J0fdkGGX7OLIPJgtWebSCUx4hwlBZz1yko8QwEuQIwLLe9/lq0CnEwWablpV9Fy/PPRctzT0fLM09Gi55/s85Hy+NPROvT+tmjj0XDLbd45HTRHru66i9PZxOEhmuWu5KQHopQn5sKQbjtOFcL6tO3r69nOV1cfdppchWFInUOqDOgIKhg89FRrvNNIHRacVFM0eeqOSsj9FBhH3ZowkMvmZhD6LVwn5ksVKezXLzbjjIAy3cQ+tVc9cj96QjvqbiEArvh3nscDCXKX7azUPczz9jXx1TiChH7oHGK85wV+qKNNnINCO4KVYodEXoi9NJC1GFXErncTg+eSCB85fIZC2TBDJdlfXUZ/LoX8A2oBxNozYUXRpmEgTcqHDIkqViTtUr37RupVVbxTvfTTZOmKoSUgco0wXAqvqrOPsPz1SBBIG/u19ZFAsNh2mXTMgvsIteJ9udw4NugiSmiGL/k4rrpqzuPCaLApcCadFwE9SBzgEa7AGiI3+1KqAy7LIIni0s5ML3lpMIIDuUPHexDVnHaqQ52MU+89aWXnOLyAeYgZzf//87b/rc2esxf/lU0P/1ENNx/j2Ddlfa9CrfeQlZDgo8fL/fFgknUHaEn364HRoqq8oADookmk+efd7VXWj6l22qJUEvBGZmwQSSgEV4PJIHVw1VBodjSS+j5XLKCKPLcbl2jcOQGUXnGqa7Mm/Tlv+x6UcpbNnaseQu5Bvv0IB0pFFBL0XbbuEKxWv6uG2FuusE18LUSRG8pcdfh69+oxQfGMjADhFItCFwtRU+rNowzjJuqhE3nOClGxlZJicK5X7b/PjIWe0TpXjISu+4QpTtuH6Xbbe/rKvMEnS1s0UAefl76fHx2BJ76jNzeKwhlDRZaPUxG4wnTUGNlv+siAEjQkfnz3Ds3L628khVoCUjyMUF4KRSqJWsvkU8/ciNXlpYedkg06n0N74VqOi6Evm1eQr96Rugp5OmgLBBWBn3WXHqJm2nIEpABwQjg8iHGpHdRxjTHUa/BayL0hUOHmZ3ImaBs6jCzLPQEjJrlz9Pznt54Q988+59oTXLmv/iFa7yziwubmkonB1LCAK0w+WbejAMD1VIu1WFLSXD4Cs8bM7n1b2z/Dt8LMgPfIY+ou/UW95XbT6yv87BJ/h/ySgoRPLJYF05gh6EYnX0uOPxMVMjACz3sOQKO0vZYoLrbb3UOEx+1vdecQJChsDZ16rCkQtS40kqRHrqe/bSq666OxhdfsHBQywDkNrzqCG3Z/D+wl3+TJiZPTJSVz4JVRblRj0DcwVzyWYtMqk9ow4FC3a9Uz5468GOj+vzzjCBASvnwAsKUQq4aCI/AZyB9HhkE/X9qnYEOunl3jOJr81lhmwVWMl4KSio61yZisSX4QMjyfcaZkNTPkdy/0FBSr9DXiCQNf90WQixSAFBYFe28o4NX3vq+cKexUbjDdsmQDEFsaNbS8q+B4ulRG9n1YeILhU+ekAPK4d7zLIiPgFSYZLOSlHE3GR3IRDhLsAhRqk3BDG2kmR5yR+3l2hE7gSAThFq0yw7JLAOhQZ7T91kIUvPLLzkzQVqSijnzzet+kDmopYZEsJqYAcNaQI4EFov328cl4Qgqrk3H5UD573/vCcqG95KxdqFfjZSd4L0MXzZ6T2ERbb0N998fJXvvpXsj5Sb3kjZgFBKBTuIeNJGBlKhsdeAbd0T3isAjvQm407Qld1RCi6AJESq628hvos1Mfrj8cn4wpUcfFVAY0ceLzkTwzF7z2mvWJMzUYtoHH4CNAAJTiah7KAMHB0ommgd0Mfx79ncdmRckyZfA4gbUMvJHD4s2VbeuVksByLIjUPj9lI4CIamcYk43h/PzzOvQmcZEXSi8iFF0hHV8YKdXzj/XyMXEFDpoFjgExwKoQ4fv3nMFW+CCjUeasguFR9voFN0jw6TMay7o8j2bNk0PPdP+et+9tm74/+TO8/rJF+0nuO7GGFnsHrIoOmR2J3bZ0cQWpmliyAOFLsQuEHSssLMNq5teDA45mImKdtlJB1PCtqGsoaG/fo/PCwxmxFQfOreGmL/OY6sF0YnH0A1WeeIJjnXwjLi3jM/KAw3JNUiCZHKJCO5xrbpvZD/cHOOt7/Gx+bnvbz+5RrgHBAOlcCSgDn7KZSIGQyCLKrIJXZc0AhlPqfMSet/FtTN+NM+VzfVkr8mbegrtHDa/S1BTn69wW7l3557pg26h6CR4C7qAzs6pS7hIoTJ7gaAvbEXM2mPoBZNriWE1PvKQA8op6hZ076suvdjBtc7jpz2p5vXXkzqA7bfS/VxpDqGvPeechLs+g0xmCNkSOC0/+GC9/+rJ519i0SgcvbFToRgxyD2y7i7DQgkKg3q5n+l115YiONTlvCbjQIYyaxGEgwGAwOhiwe1cHTgEEZYWWgsrBC2bf/c7W2AiqwRy2gS9q0nxbL2Vi/xh1uFhALNSgqpUDnH4gMVup9TBLRQ0o8yWA2uuvcUXTay+HhqwFdbc4p12dB6zVb4sZY5YawdidCO4Trf9vv2WoSLKhvfMWnpHvG++OYl4dxB4Fm2saMMKweuUYCFui60sVpADq0Nsv3BFQedVJfCbjUrquAXjJstfJSrta/keUDG7uCb7dR9+6L7y0v3HRXq9tfW+9Aosa6G01YPCWoLDsA9bbIpiECTy0cB6vpfCsqWTZaTJqHj3XVx6WXHBefI5TxME3TcKNt04+V0i22QgED58Xh02yBcQetpk4VQjmIZfDkQvknWGdDR3ySVkWZeMPPL1WFTcIb2f02IoAL4nLUkAjc33/llm8ztyNZy2zKYus9vCn1EAuiYrgcw2VMeS8/9YV4pjKAenzJRaCsqKlwNB6oxShQfNV/++TtNVnHlaND4leC0LCcfC/DJN81sYCQwPgz7LjzjcxCWuxwdtSElXnnRstP7m1zJAfw/4A2gpBuWkhYIg9GSeArMZs64FZbieN09Tj1wang33JKvQCgatFXWXXuqqU/+NNkxIdXAmCkV7og6fVfeYUVbEuIiZODtCpZ8QAnEl6jBQpEzuAfWVyl2C5BPk0dHdXcTRcl28+fCcSljewoQwU6wBAWabfBeCaGhOM9Tc+4solg+RJ1/E1E36WjhagnLwfvbR8edq77gtau++M2rvZAb5TVF91RVRdd7Z9uPK9t0rSgT/itaXNaKfmEEUek9aDYt23ilqb7hBH+Qvc0ASV+6RzntKMPS4Yz0jH+WETz+h69KumSfV8lV10sbYcYEWqCsvG7d34rPLbwW2ZiPnCIXnrK20nNtxy446NBoyGnLm5Dl9sx+yrLgqKsyiyn0qHClXiqENzMeXgPh6SOOhiLgmCw8R6Uz9gJQAMBtEgECQ2wd+4idTTlz/+ONRLbRUeuRhDjpZ6IHn+PxCCP6blZaXsoFY5BDDe7q2eK6kY5OSz3OiaJutI732oEjp2SBQru6TFbEFx4cmNYmQZ4QaJZrdVgpcN4qA32MD3QleZhSXU5wdN8jFbooUHq4OdQegiIFsoQc+u++NFOC6cjMGr+mBJUUbbGB6dFiEqi+5xJHzyf/8zJb6hypoFGEbxCynneb8OFYZA0PFZ/kB++g8PR6TPv1bTPyz/HTJQ4mUKBOXCuDDP+4YM085vZnKl/v0hdFHpZRy0c5jZXiS7lXPYhCaojmn4ZabXUHIe1Mo1/beO2a4Ldp0Uyn/dfW6G0eZXO3ayy5JkIxeG0OEXBBcJY4C2suR8cpZoavu36qOHTC2naxBx0KvRRAsfInqyy52pw+dWgh9fo8erhHG154snw8/3laegJ+sCnTSlCfmrysXYP/9olZv2vryiw5o2d+R5SAvD9Gfb45887b337WGbJbgNtx5R1SffWYSLJF1Q+jRfLn9+rqemYBZx3HBQHyKPih+wMfBHzQlNyWzEmTKIVteeOEbATyWgx3yjQiCUO9uP1GH04EuDnQmGIS1hem19sZrE00qN2FhL/Ot6Z7U33h9lMB8S85fMNVlvxxsgnooIuAx1hWhxafmWonEI/Sy2q6Y01f6FBjACCElBTLV9GrTISj/29WCBAtJ85GtWFoWcrllHKuokOJ033VRodOktJgC81vltlF9CXUTlFGFUgB0BJqCWtCSsd6kK90Tn71WlFQG6mezEcnY6cH+XVKYCERaLgtU6HPsUSOTrdf2hg058z202ulNR0uBbRoF22wZRTtu7/59Ki5BbdChE9FvfvbZmPTHD13AQypwQbvr5rfI2VPcU3uR5GLttduFHjr1kh3HuuKP4PPknPHRklGWoE+CbbQjE/gFSZG3hxmo6rxzdO276L6sIwUsV0dol6xTrpQqLgTBOM47z4LAOgE4gqLEqajyI6XK70z64PduDnJ5uVAwATqnsIUeISHJW42zLAPWv3cUbLmpFM25rtHvWCG4CGV6RJ2rBI3Sg9ZMfAftlC6+TMJF8AmW2VlfQRdUZHolqrNygZpDBRPlN0B5hLaZ2dzki/DFSGN56/uE3pdgV2ZmvT4chAetuhgQBi2fcN2P79JFvhqUvvLPpeVQHtkcPn+H31klbUlenOCPefAEAzlUFaee5Im2c/hx0va4JMCmBkH/ks0kZFJqDiL2lO+MZcHCSDAQLlJTFUcfIS39/Fz5zxbWIhPRLMtcJqUK3REuDnDX1hyhQXiA+lwfm+/5N/+M6xVUl5V1/vzM08M8anJrcItIWVKc4teAl16fzy6VPq9TdhJ8Zp3DGYir5KYQXCiW7jWkl/T4g3QYWV11+WUur63U73OQszyGlKoSJYdSCp+29OAD/RUEAX9b2VFHzN4SUGiycZnKdYC9+b7jPvGE5LWPP1avf4xgsDZ/o981vbben0wA5dMND97vwDPXScoKY/T1QuwHya5pObmewEzkHHifCP3ipiknos6AlanFhTZujQ8+6AwWyDWvd69ISQEUSZhLDjrQ1OsoLpCM4TdZlBXgqBBCph9C0ByuQz4Hlpvx7Hw2hmo2kq78zWuuUeDZAOf9vDJywffUvEA/ViI4ny9YTwNUDv0WZDJOkHLXeaYmJrsWIRDgqbTHHC1B793uZ6T694sKPUD8mmmV5bJQU52bpdWPajbXODMY4L57bLkcbPsOC+TAh2v78IOov+euKJMfmg+xgN6bAhjaXMnhEhEHqBEJh24ZimdTbJGvJvC2uvw5uSV0VpELRlNml6GSLL9LK+UzFQ8f7ixCu9CjuICe+NNrrWH3plrwaZL87o6vs7AX19RK+lDuBp/V9QJYeoSaqDsCi5DzNbt1QAzTbfl1vfD477Fb1MuFYrIJwVinMnXfIGgwKQOfL/NaKBW7UEsvGUWbbRJ1EmgISBxw6uj7IvhkT6Qoyd+3/eEPQmjvBaOgoWyCcafllVdcX04pLjAWuJnsF6KF/5dAzvFzvn9Jv6+/g+PeX/n/zG761a+EOp5zLzw+OWmvRujH9DP+nfdkMjJt0pN0+CnPpTe9c8nqwl5u3b5HruxWW5gCHleS+FPByI2i8tRTEjISCT2xJmjU6uQK0/eeK6GfILd3As9Wljxn5V4xPkNrlQ3e4QIxqKPy3LP1GV/088NgYTQpnSUQCVclz4EyZORgbosz7kY5uWplcutSG64nuZCLvlyXyF2jX5QcuF80wtxbPHuq7SK8gYNcBx8U+d0TEkw21T8MxiNKP11Wj8g1iAB/JbXWWpEaMtjMq/DlzeuCvm1RKUQp6OS/f+LDW7KLoH7PntpyLXbdxVTA7urjIFZWJH65tBn+IYEd16qvL7RxyIHWdLgU7VZLy2WV0nBwpcMuWihYyxBOw3uyCwi8FAeCn5LVdET7nkxLYkdBWMiLdF6rtG/5gfsbfnuSLu4GQp8R0vbN/wP7sda9aCpZVhZ8FUfoaXJpfl1WQEIAKqqnwEY+IOlTMii09CbIAe1PRd4ikdeje5TutlM0Pfqw04mdC65YFIVwAN03IevDGXG1XFW1fX/TX+u+mg5br0HKN7tn6HDBCcAhZqZ7UkOfayRClSRfzZCrg+o9frwtFVkZqstm1+v/zbDVzLlUDsKGq9eHXIXzhkX8IX77gqyZei/OHPUkkJOMX1LnZvnljLBgt4GbgDgTskEsiVFppFmLYNddaSXPvhsvJUEQDo7JrGxNWGF5uS8jzfaDUsTvtwWXAKN0jYxJ/8o4gJA5x/Na/A3Tmhx0pIR+9EaSCz1rSEfk3xNEp1mJ+5ddiyBUWIiKfWRpu3Ztv7CCgWtG9VlnSdDfd1sgFXOwqkApBCVQ0cajouGOO4LRvj9k8djwnWGugUiCWXWpAWs4ks+EE/w0yg0hI4BAoGTH7ZxOnKAHQBqL8lcaQdC6Tity4zLLUVgdMjjpmA9HTwFspwTOXLLZR1ZzJcEgCX3BpqM8iMOzvguLMq8w/8W1c/Bmb4g+IE+US6MHBW0T/QjtOXw9RDMD65pI9ZTtN07C3N/pK9yLuQq9A1hJpSCKDraafPltICPKmkm5TZZwmWzx1JOjcO1BkYtFWmoJKbVVJPT6e6EYLEvOCss4qltx7BHR9ltGks1fWUNawj30dSP8EgLXUUjgiZPg7nHPEXAOrgUbQf6XLJRQ4eRP/2aFns1pw4+ARaTlcxJDMdgffGBjguvW9rvXo+313+ja9FWuGqmoSVh3Qd3JH/3JBWIwvZpOW8oC39bKQJYQH7dj4HdhLFAw5Kb0PDBJiIGpZHlS6ybEGjW33uKpS8RDeP4UzDBEo+bii9wgU7DBhkKl69lA8jW9wQZRuMkmUbzbbj6zjU/D9zBhrlOiFnRZ6KVomQMBaiBzBs8BfHsTllnKKb4GuURwUmTXItNK9QfSZuVMw8w09gMDCwet7SCGyfikhbD2cIHht6QF/fGPmx96KL7u6ENnl6Uh+XZBF0UvzLNjoixBn+LddzOr6GTIDnU4GYPdcMetgqYbS4MuIR9LVmulFVwYQT1zliFWdz/zinpo5PUhLpBGRjOnh6ytB8eU1C7Shj297VsJNlPn7xJeKbZpJaUdXybTDDLDNQqgE2AlGhgNP6NZCpE4BVsWnHJfpq3Q+ksV4BQJpCe16KCCREifNAsmk+EgB0+60OWjuBhZyz4XoSewB60U7k9arlW1fN22N9+MqbpvE+VTum/igP1c0pm7pNyFZbH08i8Hyi2QYqGcOG9Af+eya664REL45zkUZOdFZJiAEtaaIY2UMON3ErQyM+7zz7vHAjRGLz61/BRNQVJJkKv+1ptdfeat51NHRkcuGNFn/OEavvr7i+0yVgu1VJ9zloO7fK2RD19zwXn6twvch0E3G39fd901Loipl8DRotuoZ9v04guupWB45fdFnXNbs/RaSY/9+c6GUONAitVIC77Byy4NWJazDD2cDc4xf9N0331Re8UVtvyw+RDoq9Hvk1aG667tbT07CXxHdqjvtWRkqAGAchuarKJtt7FcIMPjF1/URqBeru20f32Z+QMJPdCrUcJbJu2TFXoOVtHgwVF/1VXm4iLiDCJoevRRkxoU9OsbpQj9Aw/4xiyMBeRtcV70MJeqUgkH1TLc6rgAtDHWX3dVFG4wxNeIb5S3vKCqlAO1yZ7Y2elajCB0YCmIIdDkvDhMMlQb4hsTHSeAtmpfQbJN3WHYIOEhiIJmJIWCNZmi13adOdaL+vK/fZK0j1Ix+Iff29f0FiqiEowMB7RjQDcIQJmk0vjoI56wQ3qn6uqrPMUHdOGcO2k5F9rMQ+iJkOsaTcFFIGn9YdFwzTUx9bN/OAXY+vv3TblMTCJFoG9FKRFiHuTncWFk5VEaVMQRfGt4+AFB5m8yGhPHwLphPYlrEEOBeBM+eqdcLzzfVWoE3cqOPMINJiX77pOw4+62i6cSo4Qp2TWBBhF39pZj3Bzl6bUjhyd74xGzN/8/fP0ooMgou/n/7B7BNNtk+i3kHSho3oP39JBMPTeGpaCIqPtH+dtt6ai5v8cCcuNuUG5M5J1iKtK6WPu0rrvizDM8iYY6kOwyOhIymiHhnyqDwzlBIXGmODecK1wkhN1xox94jSwMTRt9JWRudtwx8uQ+tCP2vn2j7pxzY9o//pn5bQk9wRyaE0p2kNXpIt9Dv2ihl9+SwIKchJe9pNjTM0q23daUQCWjR9sy0220MNbXusGwwlSccJxTMyWHHGShZ5gCvicFCLUXXxgFgqsIvIW+e7co23vvpOpIFgk/r+NytZIgISOFS7CCQ5NiGLfS9pUwkDdeRRZW/jKHqmRPwa5TSY9cEQ233SxkIYt14/VuTqm98sqou/IKB2sopKi9SNbn/PM9B6DmHGlx77NNrlh16qmubmNqDLTeVEaVH35IlB12sARlfwfgEs7/dZM8NRaZKPvchF6Qv72iDpKIVVYx2mqRlZ0hREKajc5BV4UxuNKVffpMCDwb3rzuyzrfDrc7zDnQRaMsOi4OOIqAYB0WtEafzU1DcudKBWUpb00GkW5majGIKEnbwlSTBzUXOXWCjXwe7iubz8V2dkQKlhy+i3OyhTorRU5vinf4eecCnuzOFvKsMLsOgNdalSDlwGQk9sgROuw7CIYf79SVsxlFhe0W+Psu0A4IreGXCVJMCSnmdide0sVFXuVyGQlaZimu57bomjOXRCsFXt/R/UAfZPd8Fkh4EnKs51a6+x6Rn+Hrs9D37Bm1p58RUyVH2bUInT+UvxZvvbXrvhEmoEHRqOHReMctMV2+GpU/cOMxnaR4iy0i1bu3x+PWSRio2zapQOYFv++CJpim//IjZellsahsqpVPP/ETaUc6wQQtawT9aE5oF3pZeqiBodrysMFOQSn85zaUhaBgyb7jkhypucSA032SiDgVcBIsKgkpZy3cdOMo3mpT7c1k/TcxSWbB8OGONZC64XMXyzcrXn/9KBo6VHu9KIKGObMLhwxxyjG99tqmyy5YEwrsgZEevJaRRmq9Qa60SxhuSMFl0nIuSukg7Bnhd74eJIC1lmIo3GJMVFNu/NFHMVManuYQIvGkMRltRNlr9vUI5JGXp7ouBToTmkMoKDHNNjdlFz45sY9KKvrGbu+mqMJBun4JMyOdXRnozAKKSHuAXp9Z8VnhRomyXbnXy9sxk8xOinkyVXoW8IywZ6v7/G9z250Vgr7n93kvfT53K/bq6VRZWve+WO6h2WBpNKmYnab6PgtLTI8JqTPPhd9gmJu8aFEme4WiZbDlt1HC/3BbPv9F85tn88nNKt9330gRRMzIcbpHj6g55dSY8me5cxlUsQg8czWXk2qAKikj9IsuGkVbbBKN99wV09MSevmujBKiWKBIQk8BAjl9p/Tky+HrmZ/9448NgTmI0+SL44dPp45eNwVIQwMEhw1ow4W6omj6NFtoyhZh5ynBCgrCcUPpyWeaLQM4SCtWn3JKpPv3ny30K64QFQcdJBj9gqP05OQ7LhcTCVbR/UVPvoUeyyKrwUG1YAGfETIJVFK5JgHr0U0uACOOYIJdzISHpq9244ceOA/de/FkC3Jnd642ENxpuCWWiDzKWZde0pVcuZmqP9f3E7iTVW4X8I4Wnu+JulMFJ2FxdF/WumD9oS7WoBnEY51wXwQdq0892YMs3CgkQUriALK+pItwCXj4sowMR0Cw3e9NLEaHAAvPFB9eE4GnMYae+xx/Nn1G/X0egUbajNmCtnYdJHx5EsLZO/P/7dY58/vtG2Wrr/TpL8/9FUyGF4AWZn4GTdncNv/O78IirP83KScKW4iCTX9HLl2RS3LPda91Nh0EvvVmxyIcJPueEBoXgSm6rqAUkivYSPdm6aUtTLRfl44TyqTjLZ1yfCTZnMEfT8wJFPPcCVxyvnFp6TUhnsFsSAatpHv18jVi6dOy9NUnnRST/vCHyJLKLEJzgEdEb7LJbKHXw4bYsPGh+yW0KRMc0G9fdfmlHl3t0kzdbAgzy/fc0+T9zJGrPu3UqD7nTMHw8wWHL436m653uoBmHg4VxQwTpRwg4qfzjPpmJnFMLS5yo40ZbajE0uEuk9BTzUQ1IEJPzr7qhBM8cIFrpFAiTxqt8sgjo5XZepRedkqzcWPwd6uvvSaK99o9EXqsBAdUFqpduBA0HSCXjuqAEqWFb2zCkot6cAaRUEdDtd3kAXuO7hHVWRZwCTbWNBdqbCivETQ2FXBdJbDMSOveNSP0OugIjSyiDy4lpwhpZ6Gn2k2uDMKCu4XwlcjKN9xxexKwIpioBw7hA0NCaNQxSYZeO6mKG5QIPambRanvHqDnc4qnEZOKgyXVyhaueyL/jFmSH851TdDncyEPn4nZbnDxUQcPsw/Kizr4jpvgKL/jIKk+q/nuoanWvdF9hKse5elGGb0un4eNMuq4sz+f1+Z+ozDy++reUW2IopalNz+e7rV/Rzs9aJDO44mOpFPf0TGN+10Wf0eQDA55y8io0ZHbZWkLEwSi1MFDvcbEJzIHsyhAa2q0UeuMOhfWojwYl5z+FyoCSWfSnEYPP7UTlcccG+lVZg+dTcnSVx13XEx8+21nkliLuISQBpZRo3RAMj69fPsScrmP/zKmFzIttMxR2wrB6wJaDeUHU+QBja/picmtS7ukVu4dKVnL9JqrRcHQdUzEX7zT2Cg9MAm20IHkgYT33+caeoo2WiTMTa+8bGrm4r330oMU1BaspNHB9ctSDGxm0nsyiGBcVujJ6VfJjyOANrd0DQ+cB1YlX5wZahZ6asGByxSuIGBZS5/1nYGrsiT+vXZYmoWmScTfnYNYnMw25KSTsOPmZ7Z+md8DnhM81OsaDvP+huEZIc/Um7f/P9c1cDVbOmac8fAqDzgwJv7m9fYcNQHOpkce8UwzrB2HHmuaWPq1/FkmMHRCmx76uqsuNwrLRu1RlBTdVHGgt9vW98BWmoYoFFMfXauUgCF6++fXZ+ls4YWeknuRWHs3L/VEuel1QE0rStnREsvQC6bwsPV9HuQUXbu6h5/agtzs1meZvfW3bP2cGE4+UB6FnSEQsZuB8NNbgNLloPfuFeVCdk2Cu8QpPKvveyzukxlvaIml8GazzXztlhEpmeKx2zlbATsN1paGKrIdNLDxlXoGZsqjPJzKBQnwvRSCt9yHOTbP1XtqfE2DV6c9U5addnOYoSC8oRIWlG0ZKSpM6lFOFuqTK9cuIxjGo47yv6HsWYswwomUggn7M0JPZ1PpPntF83PPxHRZYYIi1GmX0nHkXHeXdviQ1SjZN2HzvW+Mdi6sNtLGqSHrRsGmm0QxFMjjxkX5YYeZu52ptRUnnij4PS7y5SNDZwzrpzX1G781HxllwCiAyiOPcBCx/QNJ0fAhyf1mD3LHRSlt65tvOrJduMsODsQ4IIYAZoW+s4Vt3x2sL4eLQ2brIsWgv02q4yQIHhvV3bXUNLTAbttxu1MMeEoHGbAeoSGi3lnoO24UEMoHYZMLQy89rcQNV18d078c78/GIQKm199yc5jmSs+uXeh5TVl73oMy5bxVekj5bheN9/7CxTTZRY69/t57o2iXXSJHB8UNORJaUpgJpbfcC7IBIBKuFd+emvphQ+Tfrpe09DJjjuh6dm+0QaSlYApGbSjUNjwKR4+QQRnuQKnjIiNHmouPRhLITkn9lowZY9YeCFihyoZGmoCx93bbRcnYsf558WabRsGGG4SpyIiB8FwyCs4KS/eZYRjw45dst03UyR0FWcIM9X0gPveYwiRegym6sNe0C71QFVmEhjuFvIRGSdciJ1QvNkluGh/7pVPcpObMIkQ9xd//5oGZZhGS20kdPchr4vvvJuQrb77h+om237waba++FG0vvRhtv/pV+2554gmn/coOOtAjravOP98ltkwRnlpSrPd6y2QcMOzMIfSHH+56AyotWYs0vfSrqDj1VNNMA+8RZiiCyg7a3wMcqboihUMtdjFdaqv19wfm97K7s/BnhZ5/y0Ius77IV2QwAH55wcABZtEh6FWwbsIxRocfvmShflYruDnxww9ien1tTEHon3lGPukhkdbfZ9+LgGK1rn2KbuTclhmBQDL0MO+4vSFzxxRWu8DxdW7Cx89sTbI17Dr8FnhZalyB3rKKsmKGsxnCBzgDcoHZfJ/dtIEuI5hMqhCfmPfHWs1D6K1UYK6RpcNqFcn1qjrjdB0G4GqSLcF6TfoYLsFLzFgEUYmFXu5A++vqdQh4gXDIHDBhd2b97G4r+iWqL75YQjzMVWNM4+Ha/FkRKq5HLgYRciq9CLCSniMTQhUkfRfU1pv9Jrupyz/xuCg/Vcr8jFOi8qzTtE/XPtPuGyw6xJBqr74q2dBjX3+989f1t98ezGQnm5TsOxO67HvuMd9bjc5E6T7jnOKzYuQ6fY1yZxB6XLOlF/c9LtpyUxOQtLzxhuM9czMK37qkKOgnobaCxjMUEAiFs0eHXOFmGzvLA3pCsVCdB2EreX3ud9mhB/mz08NAbz5UbUxdMrXaeWe705I4SuWpJ0flCcdFBffv0AOj7IB9ZBh3jzJapnfeKeH+16ZhrHCjEWamKhy+YVQcc7RLlhF6YjwTic/BsrTqqr5GhD5vxRWj4rBDk0EaNdWONixiCilZ1QI9+KzQ05FVfsSh8ongmquU3yehf+Rhc8ynhq7n2u60rECBrHchww+GDomCAfoZ1FiyxFgmQ30aD4D+0jZ5EmiINIBxedKWeTpkeUtkBEU3MKs8OLjFsvj1UHR9+veY0docU+Ri0Ntevv/+fr05hF6ajdl3c1tzCP1YwVcgLxAbmDo3oWdLYCx02Yg08NaR4gwkJ3iUVQBr8DN9XnxMWeV8Pi9uTofNz+Cdz++/soRwFf2NhD37GiiU7DWwsVravJdnu0mB8ADLmUT65OOuTjS01wHGj2OuYOXpp0WhrJ8JLfF5sdRYZjZoYeAaJg5B6DwRuCUpBsE9oLag8qSTrHB97xH6bFRc1h46cfLizAeA4orx5bhhkG/QG95AYY6sD9RUDH7wV1k3WJWbqFPQ9bmYR+9L7KhVUJTAqtmR9cxIp7LNlEwNhITHm+7Mz/9p6ziJr/rZxI//7CwNQlK4xeaJ0Bvmcw9173Q/QVIoYMpQ4USgpsB17cx2/55+PU1iXEv9XXd59n+70Gsz2LThxuti6uf/sNBTSEbw2TUhQ5N0rIeD6OxBsGE2IboGR2wY6WFCSrAHrTPI9GnwPdqFgkcAqrqlFrWx7Mg0hWzwvnyPrJUfcIDT1Rb6ygqjBg+1lIs8h9AfcrB7IohPUDW6CLC94sQTdJFDDe95Uco30dikPRCcaekCa5RyHRDYZhlbTNVUnQ5B3bVX+ytvViWYXnXMMckIZ8Y366LK9twzSQEJnqbXHxYpQXd8jjyIGgT9PblT78mhmy30w6JR2t+jrCZPjCnp/Gh48MEo3XtvKxA+EDst5VJ71lkx9bNPM49ozmU+PX0GupigcTLkxcrie8KckxW2rMBzgBAU0kSONAu24+MCs50X1u/yoIC1o0bq8G2iB7mFXBZB0J13dO9A6a67Rqngcnbzs5LddnbhShFUUltt7sIOrGdioVA0el++IvRcowTPwUJ9RibeVsv9ommIQAyamqwHPiODDpnp71FUQFui/Do49nn1Gm6rHby2Wy7htoPAA2ZaFoGmtjfe1LM82gQmWaF3/GIl/PrukRYCI6DKJCB4CqmNhxtuSn6+A0dTi4tdvcgY8OnZr/Jjp9fUxHQJgcu3m1tiBmW87LZWPc9J8ZV81q/0Gb6SQM1o0e+wqV/Xv89oaRZUbohpQnjTqqtiKkZHe3J+bjS/9qq7LKk3sNBLORqVcO8kYMQSyLhg8bnHnumm803gc249BguyyHLQ9NLADDo9T4QeYeJ+FegZ1l2V0K3b0ufmyM+W0I/bS25SD8vSeCnvCQQae/YQktV5EuLtjJTZvF72XPP6nTcMUdnN7zImzF2wDz1oZWOh/8Pvo+aCc+Uez+7/hxeDJixcDTIRUI4nQn/C8e6xZuoGFwApBq2QkCrQZMEDbfntb13kAhV1y8svu4xz6pdJam6qtDQjpNrell8iCOoOrBdesGamNbdOfmf1JRe7tp22Swgsi+jV3mJM0lMtpEBGIHvQS0aMiCbBKaaozpyWqRGgdXD33a25+DB8qAId1rqzz45p/5xdbdRxmZfsnbeSrMPO8ukRKFJ2BKmogOso9EBidtZK6jBh6YhhwEiChqavvGj3Xc1MU3b0kW6YoEqNktq6m2+KOqDpXXd2gKd3+Gd1d9wWNTffGFVXXu5gKIUeRWO3c+OGW2Wzh7eD0Gej3IVD1vNsfCq5snlWcwvooCGMpboWFIgDaKS0CBQSiESxCdXAB8gEXkhNqFbLBjyJ/mP5K6SkU/36+bk72wAt1zIE3boIyQ0xByLBVurriZG4Bp+0a3Nz0hAi5NC+W7Xb2rRpo55kgTH9tb73v1Gkos0QEoSEOn6Ki6jDcCYnJWUiwaH2g56CiUIAoAKi1C1vveG+dGYUUl/ebulxvXh+WHqspM4QsRR62kFBTm/K1/6+lp7mFyvYhx6KUp2/3K5dff4s9OusHbVyr6jaQ1HBLEz1ZdmBB9iNzQoz3Iaet8dX0r+ZZzuvnVUE7M4/5/X4mpLBw9UhKM69ohNv4gcS+ksuiILBa7UrEYQekhFKps1GpfuwCHCMAY6wqbQLvaA646V42Nn8+uR//CPI6cPzRtEDteizl3wfNDcPUweDf3cqTg+SlBsPjt7t5pdftHXi4UGGATUWM7cg6y87cL8o0DXkyy0gqNN0993u2KIEGE3LAS/ebVcJ7EqzbzpCf845Me3zLzLXMecicNH6/rtRdfWV+tudXRRjoSdP31HoOUDkzCX0jCgq0qEq3Wv3qJBwVug+VEpZ2R+lVvz66zzBlGYX7h2BUO4LFN1AVhowEMj2zcEVhG2jrFUQF+hL5ZQJMgW78019JSWE4CP0uCAIvT4fu0iop+HGG+OrstmFJkRh+VywGsGL5/Qcwu5YAfGG3rLW8OH1iPTwoRnOg/vdzQZKYFFwZUKUY49xDp/3ohkJVINFsuDI0lcefpgnA098882Y/Ic/JPuP2h9+EJP/9Mfka8fNv8ltmPze+9rvxeR3td95Nybp7yfJiEwS5J/IPZPhaH3uuWgRgmwWRG2ihl5ojqmuDTIsTPOpk5+PH0wQjXPCPSuR0rVPr+eW+PQZhKRnR9qQz0FQk2wUhob7BOL7Xj69FogIpdT46KOeZ0dxTvv5W2utqL3wQhdK0ZBG6tnMTnSs6mxauHFnpQAIrqXkqjGS3bP+5SKn5Jun1lwzKeQaPFjIYajd7IL113eMjWIwAuxFo0c5rkMQNCVFDGceqBm2nlqdpTbJF8NqLPSXX6S/X3dOoaeATe4XQ0r4PItQG04HWnrIYAl9Bt4LLpUdc7RLDF30MnmKO6z4Hk0/P2aSr/Wfp5Poxd0iKKuEFsSfgCvcKQ0pAvtwgovcMGAJdM+07RZttWWimeTDk/JAmeDjEQiBC46DzYfxTZdfw1CIaTrMc1uUCFP3XH39tUmenuh9R6HP+NP4XtA6UUYKAUWlDhcHj5bjbLcX10gnIEqPaydNA2xkkCAWiygvKTCP8JIlnL0Z6tBo1AH0xb+EvLP+lpvkEoyVsErIui2dBNA6CT2op3j9DaLx1ltjZoduRuoPmmmHPvWUSJNC1eewsPOZ4PvTazloKN+WSDoKHAsENTOpIRb8CBOFgqCiTg9c1Qc0Zxn5w8QT8OlXWTnSdDtCgyYLV3XYYVElt877uKPlyh0bVScfF1UnsfV99qv+jSxLJb9/6GFRLTev+pBDouqgg6NKMLNKz7ZSh7Byn33c5EVJcRlzEXaWa7TTjh7qQMCKyH3xVls5Yl4sROhDL+tNgVIyvFL3CoXNV0fvJfSZuQF5S3eN0u22cyBw8r8+d3PU94nes6ilN/PSk08aThOT4vwhJ4US+joJPYVp0/X8SZs1Sp7KDz3EnaKwG9NhVzx2rK1yqT5zib6W6PPDAF122CEmX8XoYlhw46rPPdc0WaYMv5gmoyui7sYbdF5uiVoZSQgwQW6kt8t0ThH61j9+4DJ0hL72ikulLNbz9VnoV5TQ75sR+kzV6myhh1c9K/TyMYnKknqgbdE3jDnX3/PGzXP5dWcllU8SIK6liujuVVcZehKpBibSNFN7281RsucucgNmE31Y6M8SvP/888wLzrkQNiZ71si9KNln70ToqQwDBmNZs0IvmJgjH55YRvEOY93BRWUhUHV27lSbXKqu1Zt8q5SbC4IW5L7wO9r8Pkqi+Qm4ynd1pHnCkrJOBOA6CL2zAIKCJSM3iiYd3pmZqD0Ll6vpMVmeA/Y3XRnz2xxkxD0B5vYWRF9OAtxr+SgYNdxc/wRsO/q2PPzJf9a9ufj8KBgxzLl8+8Py6Smvtbsh4XcwlqyLLAaNHBwiFGd+XykpPYv8/r1m737apCRd798tGU/dvpdL9nLJzl92WW8yFLNz9LgV2Xx+F092TbYQiKw3eXuYldtHVRN/4XuUFJ9Z7gmFUgWyolVHH+3CJQKeBK++7+J5tQs92StdwzeEXu7HdBkYDADuBJyFxdtv62YjhJoyd2A4Gze17oH73Yvf8PijVhLNpOOYk0Cw8513tN/13D4MFg07Uz7/p40MqT8auZgcRcFZtVxGxsfb0ss1stBfDkd+J6HH0gtRzbb09Jofd+ycll5aCt+b9IOF/qdYEgiqiwgYkVunX3qWfMOvmprlHnzsTqeSvST0q638TaGfl6Wn4UZogsadkv32lUANaq8sQ7Aoc2WCjy0rB003qFhWpunBh1yF+GMturJa9LDLdttF15OBpD0kWBnLhU9u/1oQu1TIp/n++2Nm4+xaeSb3wjHI9FNYWnJI760m2IjSkKtCzMKDLeTjFo7ayL3bsNXw0JkBwGLy79Sc8VF/z51yfXbSPeit91zC1pIx2laKKBNmBOr6uEbu+Rxb6MB7bv+W2fzd/Pbc/mZem9/PoaTZY72onFzWU5golHG1ZJclDZ8JuDHanN57yr1/yEKx02zmsdSdLf2aEvoLLnCvv9Gs3AgXz0i4aQeukdWlu9K8kSBbYl8yYHSOOkMhQW6vTJWc0cnKazgQKjcZl4FmHRAzvjiIhWvBZaSCFXeRlmesPD83vL/0QqGhwb6+eQt9NpA3h08vS/9TC70WQSbX5wsK28rO+ErCR9vgnyT0NyaWftUFt/S8BimfuocedBtoPmOKOCCkw0ijkYOmRl3fk+4ie0HBSOOdd5ko4sdYYAIGduA+UITiBg59FufXM003htigEfnaZXvvYb+XoFl2TS8ojPqrr45C+YBUT3Lwbelp5FlzgKPvlNKSIsUfJDfeImXqzjqQCUtKdkYtKc3XzT/nARy95RZwb3g9Kuywon16+1oQMIhIYeTxXIRu0FEv4/Li9s3PTFnN73WZY6NM5tj6HbI3prdu35m/E+JAuOfYkJ9Q1Ue1IBTZKG+e5eKLu2w8Z9FFhQD6RfHOOzlWRJyFzJOR2A9Y9Mh7wMovfxmle+xhJDJb6NeM2vPOdxA76aRr9e/ivlGUQwoNLkgPRyGQmd30nkxssxAnPShT3INCbbwRpFEkVXxCkp1QJEiN12DGHy4z3A0YN2JpcPFXX3CODPigb/r0QiqdhJ6UXYfo/RqrJaOBFoLQc9P5QBSTONCnG8DDMO2SvrppQH4/H3Bui95ogmAWevn0+ask46st9ATyzjwrpv3zH5nfnnO5+ygvzxCo7MgjTfNFusQCQWpLAu/gnqxcUle/aBRuMCzqLr9c8P4f7VB4YS67HPQDXHyRBZISU9fu9+qRRKKJ5gu2QnoBhRez/FoFGVFg2TV9Qo5hZcGAAYnFlMKy0A9O6LNdustz1GsXjxkTdYKCBBo7V6Zx2OjOgouu8ozT7Tszfgzr7mk7fXolm/xxdpO+dO1Cpn6BTIEhdmYDualzAH5nt1yF9i0XxJv0aGb7//k3fpe/XS3zGtRCuDJQv+eAXSbwyv8L2eTpWhH0/IEDHQQulSWGCpoeD0hM5kcztaCLe0RGgRn5pGPnEPpBCP25EvoPnW7E/UMgGWxiYZSlxkr/FAvZmght9lmnRVr36ptC39Gnzwr9ehL6bJ5eN7Ts8EOiGaGXP8NBMRWUNNCCLo4WvcRE0PF1OFxEtyFapN6bFKDhiQR68r/+ZU01t+UBETqwdE2VCg6nsvlPbefpzzgjpn7698xvz7l46PazqNs/6UTnnSdIsAlauRuNAJCr9ASnBYdzloSJd1BUnXxitMrHMiVxBg4vjMVr4cJQogmSIgLrnLisqOvcfeglOBx6HXCIE5nKQ3mlu+IyixRl7dnS6KutNlvo9bf5Q5L5bjSlAMnzl13Os+Aa7rrLAa2vOkFdninBRq6JFCt0ZSU77uAMBkJINV9OL3jttRF4hByhzgovqIReeuIQ3lI6g3UNQweboRilRfOUv0qZUt9gCu0RG0ZqI/bw5OuIDZKf8+/+vfUTuuzRG7vXo4CpwFtvEQXbbume/qLtt9GWz7zDWLl8e+peHhHV55zjmnSgNAFnAsDti8OY3d9xYawIPFMVWLLzznMIfYGUbM2FidBjuR2f0jNuj/dkXuOnWCANOPqqTjkpUpJfrjER+uWT9vM5hP6F56PipJMiPaxDcY58ubJDDkyEvkSQQDDEqbjCgqSJQB8QrebWWB0kfFRmalHXDZcdBIhmDRHMwUfnPUhx1d1xu4cx0ABDPTz0yrS90jhAQwDcZ2Yh6WCNgC6kvijPLN1t10ittOJsoe/dO2pOOy2m/PWvmd+ec3HjQRaeC05T0YYb2Kpi1WcLvQ4raTM64ARRUwNXdbNR7bXXmvZoRmXVD4aILAfwhG7o/DKN9/ZbZ3Ly2VSbhAlLSSAMKz9siOfuQRFOHjibamPRwlwjZQd5qYV+ycUTocfSSxBdqKOf0wxVLuvU/MgjTjuRVem8uC6e5fR02p2MpMcYtEmmhNrydmYbWGvGbOrgVDHluHDQ77xjwpizx26z9557RPE+e5v5iHJdf91vn9mb/z9w/yg5+MA590EHJD8/QJva8sMOjbKjj4ryE4/3jMWK0091hR08cNRGcH6qBeOZHYfhQtgJZpmGvfPn/CFC/42KvA5CL9+55tILHGzrPGJ6YS7cXpptslkiG4BOZ9IU8W+8EVWMJss0pbULvfP0HeC9+6glOEntfSL0QDv41iz0hUk/PAGK5heec+6eQ0ggAmGEBoiDTHNOk3znRuqnr7nGRQtMW6049tgoPVAPdXcdCPlbHnaog1K4685RyNBDDo4OCmkLxiXTJms64ExnFGWnU8aPj4Z777VPlVqxk9CfcooJAjoqivaln1lTyzLWQyU0ZjP7ji5XFUy10GOhgNQuz11JQtgr0rJWjNauu+56HaYPYnpNrVHD9zgzXtzo6VXVScXUdVdLoKgZkMCTZls9KTCx9SRy3n05+9OUaiJ8nrSTM8GvwcKKQCZpboGspZcfPofQ0/wjxZbSc6TbjKAhtRPzu34LfnGxn2fz889FAxODmUxL6e1llyRfqb7Uz+C/q7/9VglCUqxVf88vkp39XhaXSjFvwWLoyvh5Hfx59+h37tVrE80mis1kHn6Psl59rb9ff6u/aXj44Wh8/DFndMgiYTiocQC1UX7sgK+UOXURFN/AHjPPz8c/ZPd3XPjfHk5y551u/JlD6EduELVXXeaoOr7/j7FwMRkHD3Eowy4YFOPOOrkcGOKERZdxc/XR9rvfRdUJx0eqTyehd0Xe05ZjFP8izYKxlRmCAIQeXwC2FUoJEfpp0p5TpOl4KFSTVULwd9stUSfrzNiq6muvsvbF98SnYk42DSAUGKQGD9Yh1OHW4YTZxMUIgm/pzUYndFGyHvlD1tWBh7lm3SjabtuoOvusaH7xBQdEXA8gjcZDJZBSxlTVlXr4GtmQBdQIpUyWQpqX68HPnXJ55GEJ8u5J0G7Zpf3V/iERbwmKfcdsoYx8YoomKPulog4uAXKwRGixuN8lBcTvU/6IW1N7x62uoEsPhcxDPjPjj/HjXY5Lw4h+JiSSv3z3JACne93ym98kDSMZzY5FMYyTkqTYA6Enau3oPT34CP1K3ZwGzF+lZ5Tr/Vqef9ZW4tsW14olgdzRVNVCa1N0oCf/VUpein7KJ3/1kMUp//hUivSzhDtQyt+b7yUc3vC187dEqIlU/+1vtoZEmif+6Y/JV7ls3hiQTz811bXfU64G23TZQh8gFJ4/3Z5U75lqW/eDnhBcPyr8MAw/ypLRwFeHQKZOxqxk++2D1CJnDxeRvoS6G6+zUckSVCzsNWvKVLMIM7SVwSJlQkNVF18QTRJiyqJR5lk32mPJ4JxYpUP7+YordKi9l7uqz7QIUd2qCy/0IcsKPSWDpbsLFj4tSJCfcKpTGVUkeF2w5RhbaqBY8UH7R5EgaOGuO0UhY4/kiyHY+XrT/L6yYAj7AAk6tFHrrBNFo0ZFyU47mr7ZfHH77u066tR6Q2T1ZOlW7R8Fm4x2ntMdZdWC1mg6uRRNzzyTVDr1TAJ5bJpvqnX4J73/nivM5rVMZawbQgEEJbVA+zz6wEnbISwIP/4oAqN/Q4iY9U0as/TQg9wlRVCTXgRq4DnMFBlxEM39ruvz1mF0WakU5bS8HB9kio/Iw0LcWHLw/nr/9aVweiTuhKC8FQ7FJvjisvL2xbt0iRJGEt9wgy0ZLo6NlB4Yiqfl1VddAEP5rIV+6aUSoQe5rIny6B4Tll488oUiyg8/2HPyzRS8gAtFabctU2GJgMGpQFAXBerPKLePYqtpRRJKKWg+M9TeFtosrz0pKQRfimLSxwi9BF4w3O2k77zt+8lXpregaHjPH5JTX+gLoSdAJsVXy4SkbbaRpc8I/VJL2M2hC9DpZaLxUkAOTgtqLywlgNDThlstl8aNRlLsjACvOOM0F1yRBuRMEDi00J944hxEM/k03Bwxu7WWc7QIkU7aM0lVUQABbCHYVbLT2GhmMgZCL+1dKzhXuMP2AclFfr++bpyBkLAAskQJvWeVj91OQrx1FMtil0hBlB1wgNv/qk49xcSR1JA33H5bND14fzQ99kvBuPvM70aNdMkuu8jiEUnvG8VbbuGJnVgXot1oKEg0aPShgy8LXZi3VyW/byKFPBKMeS2mhnJz6sjXU6RD8EnW1IUhRM1p2BhMlZd+3m8VB8Io6QQNpEcMi+Jdxkb5oQdE5ckn6F5d6Dr7el07N91dZYLDpoR+9ll3nRmm6jDU3XSj6Z2Zu1bM4MINUW59hCZWcK08vruRBnPh9NUNSHyuxZeIMlmVZqEbFF42Cm3UUlHmFtkKRhhLuVronbKT0FOdNmA1N54wPim19gC5TUdH2+uvOUuyQAuXqKXFddp0t9mFoxsO6yz3hE45Sqpb3vxdNP9Wbt1rr7ogxVNtMvcgYQB+IqHHfkSwXVC+QagQl8CU2Ndf6zw2M9khFiXQOPH931vBfN/lPPbkSY6Wd05zfe9FHEaC4gKva+SWbT7G8B6hJ2UIcmyS+wUt3IzKcsnJZ44fwfdvRt7My/yQ9fX0GTFVyMnDYKgTWEvnhIGxkjNKk3kWcE6glFv1PBB6MjBco4Ue8hXJ4EQp2Oz47EVo+oefG8tCu6uFXrtk2y3loz8gDS7tLS1OzXzJgQdY2PNXWtFjr8jtlspiV8gy074KISGBICBx4y8f8UGgCYeKpamffRbTGFCg15oBVMZq6Cvc37Rb1t99t90Dt+0OGuS53AQfaLYxnRasIILyWLes0NN8U3nYodH66isuaKAEeK5L1oN+45Y333Q9dpGUSqqnrO3i8u0l3O5KA2K7uGWNJIpO373gcR6VZ6uuHKkB/WT5186wAe3gIBVRYyboMoPNs9iEOsqOOtKtlfSdE2EuHD0y0vjaROVXEbqAgw9hlw/f3lnHltCSv8bSw2tWdeihMVE+mhtkMoeY1CeFHE1SNgRnXN+t3/c0G1J2IJY19DpSKDkrdo/0+jTMnOJy2455/nktlApuAFCcGWq1BF6llGtuuC6qr7lKz/fSqLxYSuz8c6PinDM9Frv8lBP1+Y/zuDFiEJ5dp2fi+XYH7hel+43TYd0zSvbYNYoxDjIm0GNDbY17kh440MU0dbfc4m41R8G/w5o1lfFoFUlptxAFsSb7+LJ+KPsfsqxkMTgyjFSKUs+P0CMj/9feWcBZWaZt3KAbBATFQOlQQEIxUEGwMRAUAztAsbu7e+1Ye6011y1da3tdd11l6syZ7i7S2Oe7/tc7ZxxxgBlC8Fuf/T07OHHOe973ufu6r5s2WJLd1S+/aE+HGLvqtVdDqYSzHECOQkJYnJkL78Qi4dlqKiPq/LweyL6MPSeFFD332CDJCFB5KVxCTzaGEWqsdIXSCH2DYTz11LDw3XcbksEbMe0UIoPsSXtY6O26aGcrXqm8/z67qTTPVL31hlyK+cbGMyI4Z9Ikj70imUOihQQfAk6chmdA7zcuBw9xRTX4xCIm4YFBqoBAphPfT90nFN14faiRdaHhBrAD2GQIBLhGdlpX2gZnOfFE3Lyy9wELsBioLwjE44+3YjGZYhtIF2R5Fc+7FpwoO+nfqf02l6vcOSR3bC2XfxN9bRt16MGgO3xoiI0e9e3k1Qnj/G+Xo0YOdykLDDu/H4FW9LeQYm7RK3Lpib+H6H2I5WlnhfgRN71Xz8i1h9desWLj5ZqxPC+sS96MI8xdgJJoEHrq11JYZpDVoSTjXiQBXah7yOdf2SKMAhRF+FJ2//0h7+STQ+YB+9u7ozU388BIYONyaZkgm77HxBCbOD7EaBOm7MZUWu0YIR7U2HgvKLvBKNP62vp29TX6reShtPuWeTmmMLDgzDONMrMLulxmuqnFvSDcgNUGz4JOTkIokJv0ccBOY2rqNbD63BPKXAxAKZCCI7lKvmsBJdL+WwXGrmOMCHkWyyuiozRPSjbvzLmuujD3gFDGvRoKeRwO4v7LK+XM07TW3Ktzdl7yxdlN6yevTl4eDDrwBcAsBSqP9tmCOQr75A0nhB6atSJZ/0UffmglxtqIuWHcsGy55Lj3/DIPIlsHukJxzFLaZ3Vza+QRFMutpcmjYN7cUCoBrdaHWvzPf8p6xxznMW8uQh9V+6F8r3SykkXbJskGd59BNqBQAUtS8eILdjHJWJZccWmIS9i4Pgt9l64h77DD7EbS472yhA7XQssn8SNVAhhTXZ+H2LFrB8XyCDMusg4ph1XWl847ymnEyI7BTXnV3Wg+l9jwCJraEkDTUQNskdU1G2yCMcfKRUKA0EvB8DpGo7WS8pEHBQ8bXAURgcl3k28JKnK8KFMdS+ghWcBD4HUMduH9YfWRYEGLzTQZ6MQa1/mbWvycxBneGU0dWDXCuJS+8kpQUtyToVQ7FAJJiFMlxBz8FBp8wBUYTFNfhZDX0lCCBLxDfd9gnt5ShAqf9N9JbVt9K/Sy9oXnnmusObiBVbnnPEtyCtXvvOWyHZ5V5u67OR8U33ViyD1keii/83YnHTmHq7tcOYJa+pmnnajGc6IyktShrTERlBE5l5R14cenrTpr5gwrRUqZMAkVXniBFNFtofxxeb4SUDzrhboulDfeJ0quYfDFKhb8EkxzTh84QJ62lI4EnGEbS3Oz3c1qCmz6MeqJZtjkvYrrKeUSCnAjEi3l0uwk2GhuSDyIzGHDQhm89hI4Lg5tBYFluW4AFw/0kEyqL3YNXJfEYh6YFdDdd4bs444OcVmVrGNmu8zjBNBHH4TSG68LGWNH2RPxYVFcnnvgAWbcxbsADbWqhWKiLFiImw+F1kC6oYCZSvglnOZRx/XmoCOcfCWzLwuVaGjxxrIahcahjg60QwJcd34m4fPvJf6u/m+tSCjV6eCnAHHtJk+iTWspnq5uoyykB1yCtwTqcd2TxsvlR4VDfriHHx7S++g1dB++J/Rch94PEEvxddc4N7Kqw89rcxDdGnrM0RL4KEnIwTFaUV6O4bfAbPFcunY0/x4juVLoXKxXhP7sbP6d2PXfa1AEfPYu+ttNN7X7Sf0b7gFc9MZ4hKYWAk9i0SzOV10uj3CKPS+adDwwkteUpTNFlO6j2WJksVfnfBJaUVmgwYUx0LEhDAKFWAWSjtGh4JKLdDb/6HmOyBHdcICIrNjkvaXpukhuZ+4zJeQcdZS8mXmh+Jqrne8Byw/vBF2ceGKLP/l7WCqhXibPImE8se6caRQy10JitOQyGb6RI9yKS06Ezs9l8qipMKB0GEySqnuaEHqYcQGwNcaybLQkLpeXMbcQVNQLPb/sXuGLLvLoJl6U0gButimpM+JRzLSGgv6dJdfch07ud96ZZzhBSA2/+NqrjSlmeKFn2e06weUShD5Nhy7bs+xuklL4yCUcdwOuZLmEJosGjRPjrTMP2i+kDtjGrLHAc0mK0bNvIQXLbje8fpMdJ/5GEdQLvgUYwU9sLDk/QwBRGngOhAyD9Le4t1uCZWcAZ6uIVlufBe5ASqYF0sgk6bgP4LKXz1G4Zowb+eADtmZQkuHeNwg9DDwIPYKl986cto/iwBtcR6ZLcGWL+8JhYyw0XZe01nIWEr3j3O/lNxThHomMJwOiUPfCAg43Qb2guzpSr/zoJaBLzlgEKWxienjnIHvEdaVcuKplsJU8gmJ9LtiKUhW/grvgerheNsoqa9Ie9mAZQ0YGfnkwS3MW8TjnCtYh6NZAS6ZsLo9QXzMmTwpFN1wXVVeKi13hKpYSiClk434l5IjrStbzpQeeXnnmRgDnzT/ySLPUFp1xeig+55xQctUVbrcuf+gB52wwrCTpIBABHERbtAlhZBTiKJLx4zxtiXFvNIe5sezWm503AefBe1uOt+8fSi65OCz517dQ9Y2cqNBBw11Mq69BstNpT5RmAhSA0GN1iAs5jByQVcXpLV56KCREwIHnnXFaSN95XIhP3DkUXUxM+gdrUqbWUiahHMXNTJXWzdx9F0NVKWMBLoHPfaVLigqt6QmjuolF11+teFWCL62crM9Pp6G51SU4jkMRcBQAQsxXdoPAy3IlrBcbBcB/87OEpSf+529thfX9LRQudO9goWfDHYgrTUxrgZclJwvdlELl8OIaekyXPBzYgN0Hr/AgEnq9F0LPNUjZZO6/byi55SYnyFaV1MKCcl8I1xg4SXkoUU1AsaSy9V6pUoyp5B5k4RmdRcMS/e0xlBqfl+tA2OsF3bvea0LonbuQZwO/Ib3ybgZ6+60AWswWeSULy4cQwAIE+1L69grB2rfX67XyPaCMZiGTxY+PHWtq95rf0mi0esSYJD8Z84UbT87Cyo0WaH3mrEMPjgas/uc/VpZ1778XCuedbiXHNbC5d75/MOZA+91Jyq5bN7vfQMjTt9gixCGJ7d8/ZOwwwvMUyZtQYQKNSCMUSdTShx4KZU8+GYol1ExqYtYfxq7ivntcXbMilHEuguod5dSnHqq+6UYhQ9ddqhCIJHpibYTFrn3j9VBw9GyDQhJCjxbO1xtXvxpNU1nrQt7EQugp9eQcK/cSmirdiKJz5wemuPDhAAtly31Jpg7dRgevd7eQPnqkM8bljz7qujgljuYuDgM0TECDycZjbdO2hmBR7iqtmyDb6C5jcoy+enNoqafXf/Wu/5l/t7MUh37fm1idzfeZ4gLEVlYitv1WZkvJGDMm5Ezb13EaSR+GiSLwK1o8K8/mu/12h2PM8fehWl7oETp5JjANkdjC2jU3k00egdIPJTX6x3P23jvk7LVXyGXr33lyVfOIV+Xu5p+omBXW2znHhqy99wpM2THPv11bCT2eDslRf5XQ67rcPahzxtisgtNO88goaKbgzmM6ME1S7iIDdlpU5Aw4VN3U/YmHYS1i5BlnA6pruPM9sFNhmbsBmUIk4Yrr3jbQZWVJodQnsVqygL6iiAHEgCFJkkcFxBlOwhyFoPTEm58uMx5q3no95Ol+uMsRUliwKQqRec7gVWDPcUhTzwnJTiiH7ygJeZrJm8kb6r9tiI0d40RqluJ0Bp5mHXGogW3po3cw0xRIyy8VYlMepPReIOOXscdEeWkSeinnJIVkmQo3yu6602CnxNqIG1ynuKLg5BNDTC5a4gJA9eQddaRdDcgX1kbH0qoWMR219MwD9gspOiCxoYMl9GeHRX/62OCN6jfftICn6iBBegGijX9j0eiuAuv/3yXNR2d5tLAUWh0lqqeeCkUKZ7KnH2zOOYTe023qH4az5I32ir7XeCfupV+jvZTUln0MzqF/HdgxQzErH3ssLPzD+1Z4ZnhZ0ZLlZzqpLd0tt0jT7+PMLO/r2QIWegmahV5ehpQmM9RL77zd+ZjmCr29oMwMh3U1cjHhWq/++c9D9RNPhJqfPxlqgIG+9FKoffONUCcvEC+M8NAzCWhdlhCi5Kx4XI6UwOPlJLwjxfMxWejsA/Z3CYpyLcSXCXalJTqciz77TM/kL8YEMHedPAPQXcqtOTNnePouxJ8gJ5nsk8Ycfn1uj8faZOOQJuHCeyo8/7wA4pTq0+pYesBhlQ8/FLL33lNKvGP4ghZeeYLxnUZ7tl2FFII556Wsq1992aXL+G67hswpU2wwC+W2M9MhZ+ZMV6PiY2VUttnKYCrORCIcwcgm/t04LEjqSIK5l7xQKU4qSpDADN4upI8f4wnL0J255yU/3xWGvLnykMeNcgiS1L61Qq6eLh1TVSBXkFgbOW6RBi08Wy6MtLHfTBv3g4mwsIAyV50JHutioYE5aDSjwApCWRANl9RbLpBil+LLLjEUFK1f++GHniGfvss4HaoIMpus+IUuLUgqmdeewOw3d1EecuZaoUGttCUDHiGupB4fY0CjNDTuGALGYEAwCqCcwAjwle/5Z9pYXn7XU1igvtY9JMMek5Uw997kPZ3RBctAzEaSiM/t5FUz8iMIvUcS33ST3TtjDTaR0AMkaiz02igu5veRGF2smHB1EGJuqgJpRkJJcaN5DsrLviXFpNFK/01jEiPN4hJ6+tshtfD1GPsgoccDQQnounD16aBDeAG8kLSEipssuOfey5srf/xRE58U33S9k2W5CvfwxDIlfOlM+qUiAKISKDWvjXLRV3tcOrskeIGDc5/dUsxoq5bG9ChZPM9bbwlZo0YpjNrYAomSzdhZCoXpv++8bdyEx65JACkZcn6Lr7vWoC26SasUdkIXXixFjbuee8zROgeTFN8PDTGYiaS0Yrj8CvNSu8BN2NmeiluuFW4mKSzAq4UUJbmrQpl+vUNc1pxpURg5PCLC2opnnzV6NDZsYJRs7N7ROamc448z5gKPKbE24sBT0yy67GLXWWHuROhJ9cNbVnrnnWauaTaiqxmL421XTgJKbE3mnQdOfJc5ZbItVZKEmbiSBg+GCVDKgXGE8kfmQQfIC9jeGPMFsnL0njMCmmxtc0AoTS2uCVwBdWoaG0qvucodSwzYoDUxTwoQrrjc/fcPOfvu64xzru5P3oEHep4fP6c3gNxIPjThs2e7Zlp48smhaN5cd/mRqAFw5CYeYKct9J4s9LLAkHNmT5PQU99vI3e2qywrQoY1bSz0ig3xnOheXB1Lt/ziHvnZSSBoXeV6oMJm+hCWLV3uPZawIdxIWPr6sMNfBw+wpYYNOU8HkqasYglQ0XnnGTfO6+TOOTpkH3VEyDrsYLMY01obkwHwxB3KoGAlNu8Z5U3AAdBSrNc2wQcGS0LPc6kk5CMpClakGUo1sfhdZ8sVFpXKu8iQi44xJKnJ61MeRPGiUMx0I08FxUrNvuqVVzxmDUgyVF20di9U3A8RDEqCFteyu+9w4o4EXpE+c+EJx3sQa+4hhyhs29cTpDMmjDfHRUq/LR1W2Bi3koKX6545bXIoueO2QH+D0ZPyxOlUhQcytb88ns2kNPr2CPGdxxo4VyUPuXH5dyMD+v/+d2spML1J0jIIPfzyxGm4zWRL1wQiGS3dyCWy6Hbj8h1n0UdPLGJqYwlGxq6KR7YABiutt922IUfaneGXNF24pKQDVq5wI0fWMn30cLmRbcLnkGJ0amuSyconH5dLtoJZ4YkTm9hNLLwOlAuacwmYcQlYLX3/UiZV0qSAYip0c8vlatJfXfHQgxGLK9lWxVfEf9WKzWsoxbz1VoQr/+ijsFhxOFlWaKwpcwItXh20mCm9yVzrmTAjkAEacNuBH7A7DbcdLnQjoac8RCmoOZ7EitZXNdVhWVFEbAoIhOeG+12lQ16me14AF72uJyYr7nkBJLtQQAg98XwiCcpXWX9mu3N9DHyID9dW7JsxeHA01lu/D3w4Jjc2bYg29GHkBfR6KBJbeTafl9dD6IcMdJmVygtCGe/Vy4jG2jfeiO51C+N5nwPda4+JwoPpHwHCEPoUWXw4B+j6pJplkA1Jbp0bEnomjy2N2l/txS5dagIUrsM5CvoWQJnKkDEznvr5Qp0T+Pw4R5wtsvBFl1/qEIKpUsTwHrHepZ0+cz891+lmN3YrsYSeXBYeKiXalD4K+brJ89t2C5eki669JtRICUGmmlgbYW0Wf/afKJaWBaW+yAAKyA3pIirAjfndb1wbZYgeMQQX7ZqihIPkkrP60qam7dEH5oMbmkjThUIDurNoGqgDsy2LjnBUKoYGH1B0xeWBEUm48rgyaDQaf+LjdvIHr/3w/cg903Uu02szvIKuvviEMfq96EFQR87adUIov/cu94U3mXRshtA3tbg/EBSYzRZlpfjQnV9saXHzmpWVhi+r5OpKOLgPxoBLqFsiZr4sCSYWmcPir42aT/g5UONoCu91IWv/qRLyvlJ84AsU2y4v9AonLPSgKpOToxdZbpnRSIcGD4eYbynxKeWhT/7huu6ijz4Ode/8OlSDqQdHTzuszgnJwaJrr5IVmR+yj5sd4gwSGT1SB3LrqGxJ6Q6BrE/gOXvfeG8rb4TGpg5tG/IfbASW3fA9Spq4tczY0++7MoDy4DUSr4snIeXCZ3bCVGcIwkr4BhZ9/HGLBZ4FCIo5gfQREI7F+m/TEHenKrbHo6t6Xi4zCe4WPeWmF+EdnjQ8d9Br1f39r6Hmvd87CYlwFyh0zdxrd7vu4ANyT5pjQk2U8NdSJnQxUv8HgZkEfkJGEPwJz58KQ52eZePelI04XEtS04wYgswAF8pcZNLY6aNGhNx5p3tEEZlutAUMqhX0QCtWpL3Po6d1oYvoKAM598H7vljiMkMjJdTF55xt1426pN3lmTNDnjQY7rEpmkicdevccGOJZwAZ2Mrrg1lrKiYjs8sNKdahh9CBcpWFXjsTmqvrrjEKa0Ulrw1lcWVAMLES9IGjLJgA86ViZ9OJkZyRomNCDB4Owkl2e0lmZqiCKOHqqyJLv+2WivOk1XsqJrTQy91tEPphLu9EQp8SvXGjRe4DpOXCTz91b3ql7jUNMXY75XIXzZ3r0KTg2GMd3jCpKOeA/eV+TjWBRuaUSc4Ux3QIYcqhRBhZdCmehGA23gkFwO9IeF0dqa+v89wTyavEbvw9k55061JfRkXQCRvqvQj+m9fUZ4ZyDHxBpjxGylQwGq/OQkCov5fKKGXPONSvDabiC20Ygmkiq2U8up7X2lxR9WKhzwHGhB4ClECV5IwO0Ux5s8w5yD//XBOd4jVCzUXnIi3pDPZc0FbheZtN/W8otsufeNzYjsZ0axvh9hFfgl9n8CDZZQYzJnfvZNBKlmKrclpsJXy0jpLRLZh7uktnZCsNMZQV4MVhMQEWmX/WXCOYKBcg0DTnJObZpXaWK0q9UtsUyMy3694lqglvAjllazPcgDyi8cNIsvokjBWUXBoOcqZCD4Q9IfQZQwaHIimXGgkFNyxBOrE2li0wrhqJLWll4r1vsOYIZOONx1NbY1fva1l/T4QpKDCjkC2pXGOglItlTamdM4CSbDyoLjZhFAkt3Mrad3/vzLZHSSk0MAOqvg+PAZOC0Py4vEYR0qILIOY7Qt/Y0n8r9NxDlDfXAO0yBBeFlOcUX9NIBEsOsTntmWC4mdTi5CTPzzTY8ip6aPfW+yq+BGxktxs8QgLX0NTGRecrAoqrXp+MM9Els/vluqbIQqXCva8zkNpWX6ltM8YaSm0y9CiThPJICDzfwwMAI6HPDuNQzkyd2YcfdBPM6qxl+QWKv+VRXnqJKctS+/WWx6Gzqetj+i6c9HiuGKN1tuq9Ps4/6FemKMEqlHXkzFAk40afAjkDmo0gsaGTk8TmFwo/SDqmDx3sCpGpz+Mxn9nE2oj/I8ivluZynW/P3XTzNg9JXRQfKTbL2GfPUPqz+1yWoDRAJ0/uCcfJzRjj0dM5Bx/krqrc2bPNV+ZxTWNHKSZXjCUrlNDYiXIEG0Hla4Mml3aithsbMiRk0TJIP73ehxhp+cXMeZJhtOJCcpkQ+viA7UP+ccdGTDNffO6QY3UW7pq1bXmZS0hk9fGESJqYDAIBpR8cwdTNrn1N8TtxvNy9mmeeCTUKW6offyJUP/JIqJJAVd57X6i4865QfpuU4803hTLF4yWKs0qY3IoXdNll2pd6e8DB+efr85+rr+eFIoVW/F6ZFGmp3DeSgTzILE95GeUDz4O2QNA3UI+Es6uvh053m4U+RUIv94JDRFy58KOPQsXPfuY6do6sOIAOkmtg6ZPlcSW12rjB4trNXm43fB9gkIQBwaUUZ7jyQDL2ssIJYf/elrDqd7BEHhm24wiFcqNCfOI4T5rNmrRbyN5zkgde5E6bFrL23jtk7rarjNFol3A9QpzXoUPRFl6fl56Gvr2sWOKTdnWvedWrL8sSZtU/1ZatpXi+lOpkuMgXOBtOnLxVH88kZIJtRJza8tChpYtnRnUDDH/WAQfommZ6iChGwB4BpWxQrIcdIqXZ0XLFswGqWygjWE1DUEHed4yghZ7EA2558Y3Xm8opbft+Ian9pmFBuzYGvxSDwZerRFxLxtIDIffYLeqp32or111j/fUwt1KsJheMOmFyN1nuttEBSezGCoCvXBzUxliK+MRd3KpKrzp4ZGrFLmUtt9B8CFveUbMMxuB1knVIY7I02Qfs5xZQN0HoWlu6nGgsLjQXuUdxvfu7UPk6deLnZBEfDCW3Kpa98grXf/F28o+X6ztrRsibflDI23dayOOgTp4cAVkm6eACudx115DDHPYJE0L2+PEha9xYMwsBzPG8dkYXJTajjBhrVD/eyP+t38saO1Z7J/2dfp9uNrwneucRMoQda8dG2LG6WD4JFTVaOuZgpIHnnlABclJGQuOyczDSqAFL2Gk2cqMObjcAI3leDcCiBNiI7DjuY+uNdc+579rtNo2EvnH5bHmh5/sk9hDSwYpL9RmozMDB4LmAJyfmAl6o2PQqs8RATlEhwQOIVCAjkCXjkj5Gigml4deLPjM5BOc0enY1Np7zS/gHkAcDsTqLKcgoYebte+hkB3keujd4wbmyqPAoQOmGNV6XC0GlW5XkXvaBB4b0HXYwZRz8BCRUMU5L5flW6r9zp+xt4E9C6Dk3xZdfZm+R5HnjkqWFnrorMQw8ZqCP0gduKysaCWZMB6hIFgF3hmTDYl0EnGbZislB7VEXtdZnA16ga22zziGlT3dZILmFcv9isgIA/9O33NJKgnFJ8WFDXe/MkmdAlr7wogs9jpqZ6cb1r6iuqhtNVr1Q2pyJNUntOZxyC7forYc0WgfoRJdFlin+Xdmy6yQh8Lgu/S4JLBofamS5oQYrkfKhfzwfKrDTTwvZRx+lA3VgiMsKuZ2W1lGEBSsj65gKkQWw2sa71fd3irZhmS3Y/I1fj/fgvTbXfQXjj9AnXF0EKiH0QIL1Pcgty2TRQWPRd75U4RmtxXlz5oT0QbQWQxK6cSS0Eh67yPwtrjdNMXofN9PQKdg7ipftyuNRSIhjev+YXHqy9n5/rsdftflewgXnuvpIKehvIWCFUJP++wIdSshZyp54zBx41Lod0ij0wbOkFZVyLl2UeSed5BZmhxG8Xv0UHoTRLc+d25m3gJnwgFHAljSOY5u7gAIDOipQuJPas3tknOTREDpRPqRfA9caQ7kuFmEk170sN8/5MqpEjMOiqpWqEIu8ShXnuzDfCUdCv/JbbwnZE3d2EjQh9JkyMChPN6KRE6t/fZaFnthksVxAj7g66cQQHzTAf8gHTpOmL6D8ASV0cZFH4lb+8tWQd8LxIbZ1xMbaYLmpmW8pNw/U0BhZKty1fWX95Hq4bg2LzhlnOPYu0QOnBk+HHEIK7xsEmM3plFvy+WdOEtLnTZMJiazI2vTxOGgYayiJrGhxYz1aWGEAFEMViv9IYBXOPcPdWTmHHCJlNMVUXnD5xXcZb/c3BjBku/6RNwMtdFcmrLSJGk/4/MvtRDa68eYANexNElt/n9jAJylD8pX/rv9diC7p/TcQR+/tOJYYOmFZGws9XXb6b5ovODQI/dfVNUa6FUN7Nnkv3bMIwuvr5N6Rca8PDxhx7Zbi7p0cx3pjTckV7ChPRPckaxr00wd7Z02dYtbc2EDuDdl7FFL9tUnoTe/duVNI67VZYAijSVBlvSj5mSNPz4psOfEppa3GiVjGWdf8+lchf94ZChtHu4ON+2/PAUtPFUCeXoruTYY8ICigqRB5LHMLINksE0zS4q3wke5NJuASPuKlxhROAKwpl4IyUWkLMRbNXTwnchE0PhVDbrPfviFli4gJh/xG3swZEfWVwk8SwHSfllxxWcjU/edZJsLdrIkTQ4W8JXvMy1UwLPQmC5AVwP8vPGd+yGTElf6QN0rdZBODUqpxaeJxC3214lmyhZBf0twAoAdyy/huE928AmMK/ceMU6JLjjIPzKa0EiJknvzxt7+5vgjTJ7kCSg9ONizvMjXhQWEBKl96ybEbAyfTdNCS2khQ2rS2BS7S+zrR0kRnmQVe1h1rAhsQzTrZhx4sd0hCLVeXBBYoPNoTmfiCANmqcsh06N0pxsEDBiqXtmEYhA4f2WNv/o1lbNh6nUY7ZWWb12q8/f3612DQRKJGjYubsKYJS08iD6GnzVfuOhl+Jung3n9VVh4W/uUvnrwLnyHX7kkyTKploCefCWFFoPhsCD2CDvHH5j0k0Hq+ExWiHH5oyDvjdENi8YZI5DLRl2my6QopUlDAul7fL/031wjhp9toO3c2LVvxlVcGILZLcnNc4nRyVELEs8HDa/zIMQIwI7l0pmfr/gXdA39+fWYUIENKSPwRApUo/ILa60t5ry2p4PC7CBGQZUBUDM9EBhJCzwRfYLVUOgDktBjh18xFkhVYOEnx3KOOMqFMUteuYUEbhdq6n8UXnhcWQRBCPC+5ga2n4Ky5Or8jGoSe6yYnUiUPyZ2Ly92HSOj1ASgZgUYroRy005iQLOti7cILKEYtZwIoABM9KOJ6II5YQzcWjB7liTjAKksY46xYjLin6pe/dBaaOBJPwqQBcouiaSDN0MJcaxPPDWvgVkLdGKaAYp24VjwOGj4g0ATeiXBzkBovMutu01UcxBhqC4AOEPFqwvLxkPma3EaudWd5LzrIThQhEHYtJVwcagTNiSlZNLfQ6pA3ufUzfk4cnrDMCdeX12jYHORGLjI7kRFPCHdi873Gm99NCD3JPSkqEnSUVpcmJTk0A/ZbcvONIVPeFxY5uXW9F+HP2SHCrqNYEH5da/rIoSFzl50MfIJgs+jiCyOmpHqIKdUHnm3lc8955HV8yCDX3skJ+FpoRx4goU9M3GnbTm7oRJOYQGv1dROCE2Wso2nHAKVQWBUPPRByph+g19wyMNLKQu/7Iy9CCoaKDwM2c6ZMDhUgEGUprUTqX7M5y4YvK8vlZhKcTMgl/PkcT0tfM8eNM1Ep7jTeB/kRro+vXPPaWggznZTljz8WCs8606jYzD339OTbAp1XynfLFGIjA4tlNKnj5x5zpIydvHN5O59T+disR8ibNSvUvvaaQtjvJ7Qt9CzAL5STynXT3GDQtrUFCa2RNWGClUHt+++7l56uLerwxGXZ0w9yUqvy2aed3V6s2JjXoXEC8A6VgYTLZnqgFmjfFS0sOGOLPK75lJMlgFtb4K3lYJKVMoKnjz5kGEobL66JuV75Jx0f4jvtGB3+zbo6NKERwskqJ646+rAa8okgEPNa4CO3MhLIemG0wDdH6LUbCz2vwWs1bF47seu/lxD8xgLPRtksL/QoIl1jdL19FZ7sEcGYuQ+ymBzqCj2nvBOOC7Gh4OQbKThmAXSVQOk96WUAzZU755hQdOlFChHudUMJ3hO0UFBIJWif6MmgGlCM5zdoUBSaQMmN4oBtR9eKMuE9IGnJGj8hFF9zrbsFv5LAJBauNQkn3HLieWi0F/7lr/IOfxmKZN0yJ46TgBPGdYyehe+dLD3elp5TTPcj/+ijQrUUkoFkLTxnxNEoMbwXqlCxwQOtvKh7p0iIGLRS9bRi6ewsC/viWFo9Aw4DNnTGVsHj0NxFMhnQD7Mlql99xUk6+CMxUuSbaL3+Rgaaic7MKKB8hxJP6w8DU9uQ1L1zYHISnvhCyWtTjDwNQs8ClE98DTU1Lt8X1M21qZsXzD8zVL76qsECaNKa3/0mlErrk/H39Iw0MsTSeGtBqJuzsAQ0HBRdfHGIyfX6XC6ehV5aOWPsmFBwztnuPAJf0PgAgBJEEMAQQGHlxGPvHpG7jsDUx4qJmPE7ljchiPwMS0a5iL/BNa5PftnKEsMieI033+fn/B6/n/ibxv+9/PbP6n/O+3zHw2gk8E0Jvf4Wuix4B2lYAlcAEAjsQ+ntt4ScQ+SOD9BnoSFIO13hWYY8NkpSuVKIRVdfYYJHsuBgIzjoWEO731hjHaaERbbQy/WNDxz4XaHH0ivOJ+TBWlJS4izln35aqHjyCR/aJXKnl3z6r8DkVxiNqn7xC9OB0ehF3wdlzJxDDgzp9FqQIAaXkAi3oOXiHukzw71QKOVQCwnoajSHgTStfuVVE50ybisFVmS9FwYByDCsNzQWkfglzCVvwLCOKsvEAimN1SsRN7W4x4Q9KK8EGzXhKLDfxHNwgxphjwwuMF1ja6B921rKHh4FhV3wTjblhXxH6LHIzHDLkxuBJUnqIOvXnqzo4JArLcqH5M0hJKSRAdBA7R8Um33+uazvymmOVra4MCC+ngHfXFcJhttYLJTecYcf+IIuncIXOmxYaroFSTCV0FaqMABEW2KRRyiRdjRkEQooYlpcdywclljWCWy4rRSHFvYcrDXWFYFH0BFChBgCSmJYxkjh1upgYzFJADnxhuvM5r9lMTyVFZgk+HS49uSa2p1eXhkg6Pqe8wXE1sT2WDR+D2FC+BOCn7D8ywu9XiNj94lmpSFsAx/OYSJ/UqeQq+wuxeJnnBLyjj3GjMKFOuzFF12kcOAuA7VIENFSDdho+YXHRoXFsFHdz6rnnw/5J0A2ur3uZ+TeO++Ah0NyDwECYNOrp88SzTb5J59o+uvSSy/xuOeSc88xkyuJVAYu5ihsY8pQlkIUPLK0/nwuxfO6By5TEsZwP6QAEMqsw6breeugf/L3Jq3bqtayeLpC2HtDlkLZ5D7gVDrZKABnJWHMSDb48uixB55ccsUVkonZoVCfAXQcaMmWJg5XtUjAfVleqtA4yeHsQgm/Q1bJCnktFCejz6iq+CzrHFLRojel/Kmfyzin6EW+H0J9R+gpYdV98IHpfuO7TNCh1KED/ij3GdBN0dVXugZOUwuWg5ZLsp12b1q40FYg2DxRpSDfWo3XWxm55fILrcuBY/BGCgdOWhk4LyUtarr5c0+zS0T7Z2ItldUql4eCRaM7z2OPEXqECaFe3nqyLew6aBxkylpkx/U3LtdRztLNZryzy2ubbhpS6F1ovCm16XdS8ShIDCKcuPg0nowcFtJHjdT17ugKQcNmmOMOw/xzDrU3v8/fJa6L3fhalxf6XXd25yIwTZ4tC8UK6GnRp5+E2t/+2taCbDDYCJo/nFylKYgWWuJVrLuE3I0jVYqxs7NteShbkUzFEFBuzZJ14drwEPGcGj5jvbJ0j782CpmEXHzH4SFj5PCQKS8tUx4CY5/j22ztsm40LKWvBzHG9Dqx/vrbbSTkVBd4FmAKULh63jw3zipsSxXPPWNj1FLCFwwWU2SKpXxI2C1QXEzvPKCcjF3Hh/yzz3Sn2tJ6dGX1U0+ZXi59wAAp1t1D4ZVXuickUpItLxOSfOC5IA/euu8ktvEoSOpVvf7LUK6wDG4BW/uysrA0SfH83XeGzN13lWfVxuO6IemITxjnFt4Ej0BTnvd3hV5vTJ285PbbPYwQ9FPCIsVGDAt5xx3jRoOvZC1WtojPnEjRgWmsadDAfBi0KmSNdTp0MI7U/OYdw03RXislklhu8R5MDEUZZUzZy4KZ0qWDtJ5cdmm/rP2mWsB9EOoTeigXuubyzzjVgsZncwxPLzZDLojj2fzbzDj1bDkINgcay4vgE3fLipkuSocb6Gr6AB3cwYM9Nz5rxx1D1pjRIXvsTiF74i4he+9JIVvXA/97zuGHGg/BlB+y0lg9kor5p8vSsU/T1vfyTjw++hmc8nOODdmyZiQemQgbCZOuAeFCEBopJws9uIWdxykevsB8Cd80OoyEO3bNiQ1lsd0opFgyyp5HrjvUXPRb0FwFx17du78LNS+9GCoeeiiU3HKzBP0iZ/FzZO0QeEp2tup4KShQrifhhej73+Yx6gE1eDtMEiIka7QbJ1Kda2jfKqRSRXBFQp8VBaf7T+KREiZITvrsi66+yhUBoKktieej/FC25zSC6IzVD4pwElvvS2hRev89srL/DsuAL3/6qUeZZ5BV53e6dw+Z06bZUGJ5MYpLvvjcSDmS1oQahEB4THjSX9aTXkCbTW4EI7T4iwURLPvjjzytqU6hc82rL4fyRx4Nxddf79em36JMr4/LTsxPMrr4qivsOSWS2HSnkvAjL1H31z+7rLdKoeehL0lKViz3ZMg9+QTjjGnpo58XCp+sXXcJZYoVlqV9S72z/DKwgK4taUUykRZ8lt6bzDlUwdU6PCXXXBkKTz85FJx2kuPHSt10Z3SXS7ytakFVVPniC6bOhjuMfu4vFN8v0FeAINBJM3WEWIgFPbdZd++4zXDWtK22dAa78UFrOHCNvjLGGogqdM9pIwabyAPyTkqUkFXkHjUr5B1/vMktiy843xDbsmuvDWU33RjK77g9VNx/n1lYKh9/1NN9yJ3AU86wBJQQSRtKmg2b72nbCr/9VqiWy80150kJxPfc3aGHmXXr430LPAKhr4mQAIaXwvPOcSza3Dj3a4VClG9JtJEoLX/kwVBy/bWh8My5oWDmzJAzdVrI3GMPc9DBG+dR1HghhEHg6xMViIQHwkbgE0lMhF6hjONlhVYOg+rvc2LzLL5NMOowd2kfeUnce30+QisEnt+hWpMjAwViknr/VxKwliyEsPaDPxjbDvYgTa+dEPo0KZqCU0+UYXrDU2SWUK6WBc0/8UT3JfD+/B5Tmeh/Z/5jwTlnuV8esBFAI0BC5ME88FWGrva933s+YeUrL0WMQI896vKcB4pcfqnp4QokFyA9s/bbP2TstpvhtwUKfyqee9avRSMO3JWF8+bqevtY4Nlpm/UMuXpGnK3FcXkdUuRNre8KveJpsqdVOmRMrMncew/d1K7RTdhkEyd7GE8FTPE7S9bc7DfSbsxu84wyuZSePpuI9SX0aLia3/1OceblZg+JDdgmpI9QDHLkDDd+JOa2rWqhnFwykZUCV4wQl91zlzvAADBQZqHxIK3fliF3xuEuIXKzACERJ7lJAUyCrCAdWdAwJ8NYQjMQu4ssi7Qmw/9oNElXmJOuEAelwnz0rJmHh1wsstyoQnD0d95uN5eH4qEf0tbUxLEKaH23ImfEnfn1AEZtmpdIxjgLzi5mF9fv6HscSEIn3D1+F+XFAJDMQw4KaSOH2qI6tyAhstDbkm5joWemPO3KIBfrfv/7FQq9rT6uO+6krpE8DSU5DiEjorOPOCxk7ikhHz7UlNtpZnfpJG9KlhYlKE8Jyx3lGeot8fIbZcC1salEyGI3XLuUEwIdIf8k2N7dDbgCEWdhJ4zC0lvBbeFchystrVvbuyo45WSzLhEmLg9EWdniHFEloD8hByTq6B38XgZbtW7l51167dVuNYaffqEEl9/NPuwwYzoI56DcphWdfA5oSXoK6EKEuooZiKBX8QCYxAugjFFUEIfQrMY47qzDdX/3m+YZkYSk6ShPpiF16xjl1Dp0kBc1PhRdckk0woo8SnKSk+dA0WmCSgg9CNmC009zqGbo7Qo8nu8KvYQXi4irDc0SGV66qRo0SY/uofCkk3WI3m1IjuEOJrq2qp57znjfonPOCeV33eU4qQE/r/fHnamURaObD5cvqY20uJRKllzeMt0UmEVXFRO5tCOhxeXEtaeEQe8+mV+X76T5vtADWEAsvVl3j5UqOHu+hPF1/x0L95VSC5niIj2AnP32dWwGiQfNHbC0Zk+ZbJacvEOkvWfNCgUnnWDQD7jusgfvDxXPP+uWY0Ye1ek6FjHJFSxCrgSaDjtAJ1J4tEs2fetbvnjYpVKOWbNnycqOtABEAiFhXF7oJTDpO478VuibuK8oeZQO9XtIHMrvu89xbZ7cXHIeIBHTRgzR+yhsQsA53DoHC/CkWm1iNCK97hGOobcOaxN5keV3fRjioRiEIvwb/ALegoQO/jcYX+J6biRbCeJ6lr0AAGPqSURBVMHwJPAU/LsIPZ6CLDxzFSEILbvllqilWqFhS+41PAmMdy6Ye0aI7zAypJhcU5+zeyfnH2jvrnr6KYed5I8gfCm87NKQqXiewRrpQ4foWraw0Ce8A6w/CcD0nRTeTT/Ayb68o48OuUfMCDkKAzIV6sVH6TMNGezrT2F2QVeIXls3eA5s5O0zbb6XseuuoexOaM8+kxddFGFU5D0SLhJ++m/0POLDh3l2Iq7/ynJj3xF6/H8EAveh8oVn5a4eLWvZu0HoG2Zdv/ii+739JxJ+soTU6Q3hpZFEm/lZEG7yc/+e/ucRQbKEIPVIVjk7KuuAlvWUmqQFtuArW+b4liUlmwqZA+SA0CczLhjCSDL5yb2lrYnRdVDJtoNMY1Cm+d/rww2sJ6OGanQ9DFCE16xYcVPxNdeE0htvMIMoLDnVdM5JUdWSd8Bdk4BQsqTej8eANQb4QnxsLILuH4pwbQl640X9GssBW7A7GZ20a4bQv/v778T0LO4DcSUJuRIdqDy5rGSuacKJ9ZdwkiFHKMlf6PWxwo7DdU+pPjRUILDMiWsglifuRrBXJPD8HKwDXXIKUSiPxSfVT0KedYQ53XJPOTHkyhLmnnJSyDnuGKMAM6buE9IlMB4bpk3yjgoNJCw1cpdJTja78qP1NYof4M8DD1gY8e6S2rV1lYWkIRgHUIfE2TxfDAYdpgUXXahrnBNyddZpR87cfz8J8CDPHkiEJ4QkNACl9e9n/ABegXtO4EyEX1HeZLKsOBOlQCom+lcQ8MROCD9eDYqjRiEf5DSEzXjiNCFlSDlCleb5CRJ+PLIyhYDgZFaW1/iu0Gvxq1h7kHSF554ld2P78IUu7Au5zCB9svUh4V23u6yDA+KHWIVGhHQ9iOQuErSt+oX8Y4+NhF6WLnrd/1pI6B8ve/BnRvBBhAG0E+YcaJ3QUCt0Q+WKfVUuF0u/YwCF3KJsaU+w+6C2XLeUAFNu5LBjCYgZSepRiqPfGC433ObE4YA510kReSkMCAR8RE87JS7PH0tL9c+dybblXmpvaH0srhmlSAyIYKTLClrogaViZRsLvVzm5M26mSa6cP6ZkdDXK1OHRlWVztJXKa6kqSgLMIosjymaN6XkuIlceMXR9Okbk48C0HuhACgfMkcf9B6JTdzzRF6BZpiEwNudbyTsbK7RvycB2HGEEYMIDkxI0DrRMloGGOWJx0KZjEDZE0+YSs1Q36uuNPaC54trXHD+eWb6JT7m+TfuF1/VQiAQngh2fk7IkJXHg0HIEL704QPlNeq8MCNRyp2w0OGV4mjOackduk49B9q4S269xclXBm9kyoLHt5ZCo4rUSWdPnqyVALIjhRJTuGjB76NwCHzEFltYGVC5yBg61JuEMLByaK9Stu4TMibt6ilFhBiEenio3KPsww62t5zSvWNI7tjGieXco2Q8n3rSScSVre8JPYss++J/fxpKGCM1cbxrlkYmSasjpDwk8PfEDSTe6j7+UBrw/JAm651ELXZHxZJym8EI69Wi19T/TOKnmARsdJk0bP6ZZ5immRZQEk4ktciuL7/8kBTnwppT9sgjsgiz5O7RojlK7sylip3/GYD22v0FmnvwQSbu4IZbW8pdo/Gn9NbI2jfOG1gI9LfUP3F1I8stIZfyWatjj9dwIfR4JhCWYAEZBmJXl/hX1sACRZYcoaciITcVtziaWvs7H1wWn4v7xWgskp9MkAWHkNyjm+NYd0qSVXcDk16XMhmJOcpkiqtdxWgjNx/sgawbvQGMT2ZgJRUeD75I4BoSEOJ6gbeSIv+g72NJYYNhlDV4dsZgkwdZ9OmnTnrBw0e4B/qT79f+4Q8ReOeVl71r3nlbxubP9kptKFrwmLgXNPp4IsyBB7gsyFnBm+VrxvjRoeR6CZrem8w7995nV+dr4ccf+/w6QffF5wY7Vb/2qjyG+91Elj/7qJCpsAhyESjUrUgk9GlSjpmjd/REH6b0epT7oYcoLj8qFCkOL1HMXnqp4n06Og/aP8R3nWBuAIBSzNKjccbdsHq/oksvdviA4qWFHTITEssFF5wbGByyqpbiJoWeO8ibVLiF9hDHXoBKiN0AXACEQNtgCUmmLfzk76HophtCXDFG2qgdQqbiLHD4iz/5pP71osXNox6JuwRNU/kzT4U8hiVOmxKypx8YShQv07fv35MwusQnr4P6J73tkHnkErcPH+4GhFRpSzwKmENMLyVhrYWO+cILPEyBA4yHktx+UymIER5GUPH4Y46NEkKQWHbJeV+2rfmGIeyJxXVxvyueU9g193QrX9zpBuYcCz3ZcQm9lDPPC6AGWXeEnsNLwhWEIkND8k88PqRLSN2hCFbBSbPIa7DlJtGW2Px3Apsg607nJZTN6bJq8Z0Uzk2bGrIOne5qSMak3T0MwteDl4A7z78Req5X78H3sg/Y164oxgWBIvzAG+G5mJloSYKhSP+t7yPYCVyIod1ljQY/tsT7woAAR5byzJGApuke0MST3DaqBmA5c6bvHyqfftIJVX7ff6bzyLX4OrjWxDXqvrr7FFguSdCnfh4RXuhMQ7qR1Fqv2bmd4nidvznHyGpfZz7KUnmo5ZIvOltJvCErS8ityHOhS5SpOjSUMc0H5CLEtIQwuPn0loAtoTbPRGVIREm48roL//a3SAmuZK1A6KNSRvVrr3nsLmR8KVvIZaQGrgNFmQYiCbTe1xJ6tG3FL54PubjWkCPsMyUUXXZpWCQNnbhpy6+v6xa6xEKoQN83hxgXnHIVs+aAy6Lha95QzC2voIhYSjEfvexkNa2VN944ZO62eyi96w6XArH2KAhYa3OYzbd57yjL3HYTx5wZABdOPTVUvfSSM+g/poXQUw2B/sjdhbtPdOLMDShNCX2n9sbXW+jl3uPdcFht4cBrT9zZgCIsW0qndhZqW2WsNBlkvQ4ehEk0sOhMkZGwxuWWZ+lvc/fdNxTMOS4U67nQrutZ9tdc7SRghp4R/fOpivsd62Pp9dooj+SunaVceobsfSa7jPll7g/3HNw6q/OKV4FgxqF8l8vtknQHug03k5UfEzxK7aMPGvJRzV2EgM4TySPBJc+cspcxBpQcMyZA9HqJQTN1ctXxZgxpj6dbgVF14BmTO6DyxXNm+g/kNuSsSDouTZGnJ2WRtecks01ZBuRNxMfs4FHaEexc4chKknisFQo9cR/D++BYN5sOxBrtWoUv2urm6EbBCFr98ssuMXGYQHhBzZyx155y73cMecccE2refGulsRZZf8Y55c6eZW627AP3dxcYH5bYhEw5yUE45unkI94BjEEPekP8NWRogD4bt4bMJuQGHjp4ycVO6jnz3EmHWzFVSs/NQibNQ1ddZYICW78fyYL5Bp49d4Gdf67d45hcb2ebe9cP3ISqCqGX1QYWnC4LUFQv9GYp1v0hjsWtzhg2pKE+jsvuxB1KI9EcJAGHm47hkB6jrfvO/SQGL1Z8Xfnww8YPLIIYtd4lh5+whB7wPfZwuTNFZ8W9/1Ym21voPbZJSpsuNsadL03+dsbaul5RB9s/PS0n55DpurZeUb5qk41ljTvqjI12yFMlAwYabnUWFQQSbrXyTN1+PmxoSJWiY+gkZXBGvlPhiZiT60yE0ThPhMBi0fEcGhqbCD/lxTKfAqJZKg14JYneeSpOyA1VNxqgVpV3WqHQ41IxKZN4Iv+0k3RDhlvYEv3F9EXTbsvNIe7loiqffVZu2wE6gNuauJLsd2OS/eUXQBmy53Y1dxplSwzzCZlJQCiQPaRts7XrsbwnH9D0Wt1kLTbTYdoSIkRZnhnRUAesPQrILiwDGE47xUixVMX0KAleI63P5lHtXtcGbnz5cdArXDgsib0eloUePjRZisJLLvIgz5gElXzF94Se7Hq71iFd/y6ae1ok9DSKyIowWYeptPHt+jeg4QxdJklHKUzC7bHTxN59ZaV1v2ikyZq8t0ufZYrBmTTEc7fSTLi/2iZYffxxsxzj/ifLE+NazGs3NJrFz5BJK2udkcJ588yt0BIU5uouhIkYnJbVXPoEFP6lyBAg8EBuKfWC+S9/TOEf52gVLvKqFrTiVVBoK2aPDxmiUGp4yJVnRMs51a6V4gko8zaaSERuCY8A/AQAMKjpKJvSZAYuBa8WinIg0t/IW1jV+lbolzvMlHSoNwMIKb76CmmTnRuEHgHCwhYxyppavOIqMvl1770XNV4MGew6JnE9CY/l42fWN8SXcrFN3ySXMB1klywNQgrU1MKqg5fQaGzcGSCzxIxkS3MOPcQlE8AqjPnBwuNZcIgoq5Xdd4+8h/0ct/K3Turp7+E+izT6C85drHQlBL3xXh/rG8WiuXlOekGEkTVtsoRelr5bhyjXgtAPklsuq+qymqxzuixr0Sknhbrf/s55FGCkeEQAOJhKnLD0eAWECTTLuEuOXgHde9zfHHlfRRLOcrnvNW++aYuO19CUNcFQ1P7ylyFv5hEe64WXQIbfHgRz2LbeUjFuNMCRkV95R812+Zc2ac7QulwOV+X+5p92aiTwALJA9bVrExZgieVJAoDBA8SVRsmuyeL+AMyqeODBSPDHjQsZssh06xG3Y+mbu8hdUF1i3gE9MCgoOhm/UOga23abUHDKKc4LEF40Z61Q6NHgAHAAv1Q8KHdIwkMbakJ4mMQJsweMOGh4khpL/qMYHXLNqZMVc+5mRJcpeOUx2M3HKujwYuEh9vOMeLl4hsPqYDgTjdWCVrmvLA5TSAGB1B9OsMWglmDjJfNKpr5QAgA3f6FiKKwG18ENR9HU/eY3nqoaV4zqYZRSWsS6xK+UC4suusCstqDRVrnWt9Dr3lFmAl9OD7V577dm2EUksBZ6ugIR+i6dbGXTe/UMhZROf/WOM79f6d5QXiW8gZwzhWy97itdcfYOoDuT5UiVwDJsBLw/XPiUqkAVEjqtjDSCe1/329+GglNPUWgxMEr+krirzxUg9OYr0Hum9uypz7CvQSburW/OM1iNxeMiUejPLSOUOXGizgC1bZRb6+j6hg/RWT4yVD7xhIxA1ird4+YuKluEPnBPZk+fHmJDh4SMXXY2AzLXw/1qzsJzxUMAs0BFxuEb93aLPq7N0z5Nz0xzG41WLPT1i6xhzS/lEjKGVwdrgWKfBYAYgKdOGB8K5s+X+/ius+xfS5vWvP2m3MAz3T6ZedCBctXPNWkFBBtLPvvMnVw1r7xsOCO11mzFVsBFEXgOIJadjXtKJpl2Tfd577Wn3S8SMBU/f8JlE9p8iVHLHn/EHVbuH25kMegRgHUll5qmXGEEHgw9SRAsGV4AeHbohBPY/BWuDUDosVbguYtvusHNRChHGlIor31H6Em+6R6mK64umBkxqBjOq5chKVSl52HvarjiTejBtulnLIOHbO4c0ZpDn0xZD1xEc4c6cO8X/vFPoeiyS0JcStVdjFv0jvIFJAb1Pq7tM42152ZW4NTdqUiYXXYdLLw+Sm/lD9wfco44PMS23srnK5EEi+m6oAovvevOsOjPf3Z4uDYXvQAkTwsvvTSkjx+ncHUbn2UAYMDZ/7v4W8HHu8Y4NvSraDH+zDiYq64McclbMvgTKWeSpLAi51KRkuFtSQ5ihTF9YnERC//4kfuyKcek6HAB/EhqK8Hv3dsTairuuy98mSUNqYdOA0z5ow+HHGnO9HFjDW3NUwxJ3ztQwhIpgXyIJ0F/jR5txBKILmiGeRiJ2JsaJDDMnKNmmUgBrrfqV14JCxVPEhOZdkuCCqoMNhcyoeQPGluhr6siCjBIM6DHZjoJioX3cKJrR+Kso0PZww+Ghf/6p7yDlaMB1/fyqGqFU4CTYJRN64MLvbEttTvQ4ACwpY+EPibPKP/QQ0P1L37hDDELV5HZhVgf502AIMtlBC9Bp1/J9de77EQeAGQX2e5mL1lI5gNAruLJMMMHB3fdGTcf4fNdAuzTWxa2p0kuIfoovlKW708ff+ewr61FQqzyCcXxxx3t5w2wqEHo5fll7jTGyTEqUSSlm13+a6YR4MckUGnA4X6Tg0Lx5EyeHCrvvCt8mZ7e8HsodTobG+cTeG4gAfPmHOcSNaVqQjAmI2ftPSkUXxux85Kzae5apdA7NqFU8OQT0ionSNvsZAscCejGRhcVy9pba+FWf/2V64pkLqHtSdEDjslSA6WEFCFjxHCjkxLxJIfWPHQmYVT8B7hnwICQKaVAVh70HiOkI0xAxfeJNvSerunrwCzvdroEIk8Ft7/4iiuMe05p3y4skOuLlqfWydCOHGnL8qee9Hus69hyTZazz/JugCAz3517Zfcczd9Y6LvKvdf3EXpITcGPNwwOwWPQAVn4t7+E8qd/7jiRfEjxLTd7TDR1Xg4e8fmK3PiVLSfz5MnlnzPfIRToslSAPsT2IPuI76XoQfKBlqTsmMfE4ZdftIJpPL9vTZZzUjICdCkWKMx0GzUhTKcOjoeTWrcOaXKP82fNCjUvvWRsvcPP5q6EwDfjTxqSiE8+HnKOnOXkNGi8gsMOC7XPPx+WJiU7eUh5Ds/Kxqv+XBuFSW5q2lSfXQyWJ9hIcUAPhteLwYMVqblrlULPAvhS+8EHnmybvf+0EOsbtRWiLVNatfZ4ZpI8iSwstcLye+4OGcRPuJqKQYzYkguZQtlPf5dIzNmqK64CSw7db/4xx3rKCwMZKE/BQ0bZgsTf6iziHEMuX3k15J9ySogNHqxr6hwpnNab+tpoEc07c57fDw7AlZUZ1+cyW+tn/7aVJmMb69XLwk2cbCqt5YW+S5eQt//+nqxr2rD6mI/DRJKWw8KA0BrF7LUffWRsP+WhNVn04aM4qNtnK7yL0cRCQk+elSG4wwYrDBkUCf3Gevbt23qqTfndd+r9kyOO9tV81g2L/EduTqj5zW/c1QbqkH4Ezhrb7Er9+5v3rlzeJ8xPLV4rE/omvk9ycPF/PnMYkSmPmXJhxsCBnq5LCzYeFuVxPAJcdYwP2Ao3+VxwnrEPKW0i2QExmbHjDqH44gvd0cmzZGBqc1ezhJ5Z5C4ZgOSi2aPflo2EvpXLOWXg8eUR8Li42Fpw8MccrXhO4QC1ZN104nYmoiRidx46XgPTcmhFBKhT8/rrYRHWJi1mvDOuDod0TZY1LS2UDz3osCM2dKhuXNvoENDw0K2bE48FCiNgJwFs1KSVW9FD/oEWSTSgxiC5cmUlwHFTdqPZw1YUoYd9tmvnBqEHRMOkGHsxjQ4G9zTRngxsEy+K5Oeafjzew+3ZNKecfHKIb7ddSNlEIYgULHV62IKc1JN7DyadZGLGqB1CkQ42/HZuj11DbwuXmDZUyFXILcHsC5WUz5w22e8cKSSm5xD+kY9aqytxThrdTBQu+QJq7caQ7DzB+Htj74ePCJm77BJyJC80VJlsU8qXhiDj7GccFmJDBoaUTu1lqDYJ9D9QvWIKEIl2h0Ut8FKaJfS8HJqKLjMIImgMSJaLvkACbw69HUaEvFNPcg0YrwAhQ3uWQrcMxbQu0km0zrJIvWVZ4VAfNVxx/e4hd/aR7pSqeP4599O7HNQSN6uZ60vYQ//8ZysWpvOkkdCpb2fkIBAvZey9t1sn4QPAO2gyxlz7l9bs9TX3FeUrdx2K4/S+fVcu9J27hJypUwMDL9zBuAJShbW5uD3U7xf945NQKgsGkzKDLuh/d2OQG3HI4yiupzTYoX2IDxpogBa5FU9kWc1kGooMwBdw2JJbb3LLNmEPHWiU55I2kYLv0SNkSsGXXHN1qCOOd0ixlh8qL5fYyy0P03j7TYeu6fJ47HFqWxEdNStUvPC8QySgvbW//30onH9WSIeOW961p0krVKJkTdMR6FXnIVq4miX0LCCMMHNSr82asndIldsGpNL91BLqjF3GOSFDXzNCD06aHnbooCA6MOmBLpqMI6QZRZdeaE0FO4xZUaXV8BDW8u1vWI7xiO/1oGmjzZi8V0jesm9I0nX5xsvip0qI4PIHH03HXUS9tHZizLWxAF4wOwAYMQSSxIUIt4VnOaH3QVIYAy9AGTMLFBZ8pfBrXd3fxgv3HJKQKogeZh+lkEruPNj++q495x/6baE4X2GfNnMIM/bc3W2r1b/+VYuSUo0XcTnPFxc6Z9aMEBsxxD3/DYq9x2aBmYkF59GY8maLqbVWay338niQS7MynHEnL4PR5PrShw218aN8CdANWat4+OGQvc8+IblXz/CFlCPAJsqesN1CcgIbNLmXlq5mCz0LNxDtkn/GacbAw3IKHn8BLodc99xDp5vWCU5uPhzWheYBpoVQl4XJhhJd6b33mqIINltPtsGttItS/0braPkwAkUFoKJ4KA42erttHONZ8DfZxCi/LMXLJTff7M4uc6ivRkJrXSxuDwcCcAcjwmK6Vq7bVrSx0HfrEoVOXTpH5aFbb40gmoq3f6iuQRpRPDzlJiyuYntIMMBh0CvgMp4Enxgf4ZcB8ZTdmUeY/pqGmJYsniuwcVv4O+/Q60jgR9JMFJWBnTvo1ClkjB8f8s85O1TK0DAYEuO0zlcTt5sQiPIyjWEoRObUQbKBbC2jscb9AX8IxRfqjA4dYqiwkbAArsg/zZvn2J8+k2YNjVlutUjooVGmNZXOH7LxsUEDnFRw+UM7c8zoUHbzTW6W+UaHi5CAkUT5c44P6YpbMuTqGfX0xz+5/LQ+FgLMA696/VW3A2dMlkLaYvOwQAcDjcuIpLT+24VsBP/GG6MJuLj6a5hXWFuLOLzu3fdC4emnh1i/ftGhxgI0CH3/QOcdaDjm/hNeFcvNhicAT+cHU2ASRJJpNJgUXqj7LE8QgaebzSg92m7B+AMbpnbfazMDZ5gi49HaLViUurB6Dt0UJpAsTDZASc9T9wcaNGCw+aeeavd5sbzKVZG1rLW1Ah0LTBdPN2PPSSE+fqwZbyCCARa+JCPdM/NyZx0hIxQRdSL0NJplTd3HpCfgXgxoWo2kZ4uE3plwuZcmHyC2H7uTEXOJLHy8/7ah4LRTTWyAUDuB9q9/Kba/OWTPmOGhl1XPPqsPrMO3Ghe7thb1ePAEVa+8GPLPmmvWWA9kIO7T50hu1858Y8zAL7nherfrQgCyISyUDyCSorPPDunbRANEE26fwTkIPQlTWGR7dg0Zu+3sRo+qd37lRo/Gc8rX9aIKQnKXnvncww9x+S65zSYRmAhLj/XX12TmAbRuHTIGDQqll14alrYgm46niEuPhYeBKTZqeEiGX47nqJ0q9zk+YmTIPe444+7p7DSq8AfyeFa0vqmtMQw897hjFYrM9AQbGqrIxFf//rfujY/vvktUHpcnvWDTjaXYt3K4TJXJHuhqPsuWCb22EU5kkB98IGTvt19I6djRDQsABmK9eynen2xmUTD5ZN7NLUb3lbSTCSrpsV9DXPPaWOQoyHxWPv3zwMSV+K66wVsrRq5nWXUiTO6zBf/a60LNryQ0DDT4oSzEStYSKdKSiy8O6QMHKCTZ2HXn7wg9/eGdFedv3j1kTBwXCs6ZHyrs0qb/MC5to0WZkTbV4ssukSUfb6uOkAOxdnNPwgXXjvfqFUrmzw9L9flWtVAoJLHApBPDQ7XF52fKS4PAd+gQMoYPC3kI/CMPu/wLJHdDWP9dsthUXFw7VQSSdrR7U9ZjfHfm1CkhRc8yuafuFziWXj0MjkO2GODCwIvVXS0SehYWmtiwVkKQf/LJIbZd/5DE4H4AInKp4FfLOfTgUPHIQ9ZcoPT4MMwJgwXFIIgNZKFtGWld8fTTIX/eGRL8nX0IcfU5OCkbS5FtvbUz4EUXXRSqXpbg0CH1AwvO8gsGl9Jrr3GLJfE8IBe79/TCb7+tEY4pOvwwqgCmohxa/uwzgQktzcV7r61FIhRiSaxa/mknu8UUmDBxNh5KcrtWVrLsdLnhJaefEZb+85/1f930AppqMtR33jEk2RZ+xxFOFCcUCHPz0hUv5x19lA0U3IaMJ99glsIssvTkPQhNyG9Rn3fX6cknGsBDI9ACkrQ9Ir5DCGQqX3jO7FNrslos9CzcfLvthoPuGzXLSFjAyzNBFBpfGl3qFA97YoeEBAvphN0GEht7ycXDYpCDoKEhT6EJE0KI8SFVcDzYalN5ML1D5i47h/z5Z4VKHV4E3wmU9eQiegTTHbeZvtuUSd07R0IP2g2Mu1xC+uxpWgL0lHvSCeZ0Yz49z+CHXpTggOfCWpQ3Z47OxxCjy5hR4KGLiZmJ/ft7xNXK3Huuf2kszS4uQyAyAYsB9sGDqI/hQXzSzkoTDT0eJDGx8Alw0oayMIjIBR4xKDymQZfefFPImrSH783nuie00ALbpT+g5J67o+akqpZPlGq8VkvoWV8BcSS2v+Qit8LCsoK2JukAZ3f2AdMUpzwQzH2/AUNbWY49JRAVP5erf+a8kLHXHlFHmD5Lg6vYrUvE7nPW3FDxhGLDv/89MPBzfVh9LEQFVNj772sse7LceQu9rDyNNygthIAsOeOxIB6lI3HhP/6xfsITkrqVdJz9U2fi4ZAvd5sho4w59zXLW4SFF7rxqoceCl8qjFp+kYAkYUciufKpJ82oTJtpCnV4eQyJ5wQvP1RpvEfZz35muHGL+gfW00JOOFd4JrGB2/vzOFcmoxPX54Gpqvq3awe8tNpCT0zBNFM4vhiCSK01IfQpspK4lTwYSB9IIG3oiy40SDUqn3/eZBHx3WRFe/aI3FB9JiaxpG7RM8R33inkzJ7l0U64lwyw+KGTklAqAdDhOoA3p0jwDc6h005C4CYXhkRsuXmIjWS44yHG1jOIZH2xBSG0npH/j09M+EC5Knf27JClUBDEGXkVaMdpqFq+1Rl/CoEHz8E8BsarZcARKIUB0q5BMct7yNhxR7MtVTwqz4YMd3lUPl7p4g0Sez0sDAct3tCVwyNhYtO2CnukzEgwA08v/9l9hkm7dXwNPczVFnoWPO/M4Cq55hpp7rER0ECaCc41MrN0gkGtRNkLodrQFzd/SXKKFNlzpltmmg2lJZJiFv5Ndbg667PpsDHOqujKK8yESkKQOvEP5dEgAHRe5Z8513mI1AH93bhi3vkEVTUklhL+2NCBIXO/qb7W9f4cdFhxsz3q/De/DuUSzOI7b5cXco8p0jzhqKSk4VCTnfbvp6VFyeCbbjRRq2fHd+noFmlapVM23dj0XJljZWhOOcVKhVCm2ew361HoCXcJF8t0H7L23tPdh57FCMeB/o0SKDhnfqj99a8MeFsba42EnkXpgDJc7qyZiikHhOSemwWGSNLCSNssGGcGChCHbWgxVVPrm4WLwpIFC8yyUnTt1Wb+NXa79cYNCSe4ApnKkjltSig484xQ/uDPQt2H70d0RY1ojtbVwmLWvPeeiSgZEsEUWHezQYWNwJPJ3zIaJAkbUcaee8jrOs+swauiR/4h1jdLFstNzXOmml5zsuqmsm7U2vzfr772/DiYbKCwKjz77JA9dao/Dwk7PEo2Vj5NZ44Wb6YVVcnzhLEGrrhmr/Uk9FhtsAzMayg45aQQ67+NS3OcsVQYovRc84472jX7JckL1lo+bI2F3sgrCPtuvCFkTT/QtMvUYYG1kqyhZFIsqwkNM7X79V0fXeXS5RH30opa+/57oZhe/EMODrHttg0pdOXpgaAAkkGWScCgNmYKbfEN1xrpBzYessN1ubBgJnh88MGoT1xxOxBXM+PCaourj+Cz5alAaAnWu+qXrzhhtCEsDjBJOZJ81M3xkhJnA2GgU5MOs5I7bnM7anykPqOE2zV9hY+JsCuNwaqT9gjF9EwQSsq48Pw29HPG9XmAxrvvmvkma/JeIbVrlwbDgueSPXUfI1oX/uVP4auKtQdmW2OhJ14irq2Wu1Z0xSUhc49dTPlri6gd69M75B54gGdpm6FmA6mTNmdFLcXvh9I7bnf8mTFqlA8ZgCQ+ny1N200DwyBgsjGrDwQUf/qjyy9u5lgH1YqEUFS99loomH+muezowCIObKDDrh9jzfw3INN5p5xs5uGmholsKAsFQHmPMeaQQDLNOPtweVoKXwitEgKB4NPERRUg9+CDzEJT9/77fl4buElpWISSi//xj1B2m5TagTKW22+v59fWTWAg79K33y4UnH5qNNOBHoG1eI7WWOhZaFYG4Fc+93TInTFdGrlzI9eru2uzeScc5+mdcK1tSE0sK1sJrD6tvggzHU8QcTDTj8OXQCISXzLyOmP8OI8Khtqo4rnnQt3f/hKWSci+WcthjZNiUp7MBaBbLFPvm1yfwTbEFaH3VJp6oR8voacr69VXwlfFGw5OovFC4OmwY5QUo7Hzjj/WU5NjQ+TOd47aoDlTfCWMgaADkksGslBJWVcce+tioZi+LCwyoxETcWIwPnfqFJUwFRbDTpU1dYqn3MI7mRgWu7bWWhF6Fppo0V//FIovOi/EdxgSYFbF8tD8QUMFU0gLzz071L7zdpRRXY8w3JYu1/Lltle//stQeP75IWu33ULa5r0NSCLhAvUW7iZQ0jRmlcvdzDvjdNNG1bzzq4jKq7g4wimsJRgs95uhIJWPPGwyiNQePYzO8zX1ikY/p/JVgh/fY1dz5ZMM+7piLfeOr+bCvTV+o07WPTPTlho++vy5p4esffZW7N4/QO+d3G7jkNRKBqQ9mP0uDleypu4dii6+0LV6YL6006I0eE6rzNRvAIuelLo//jGUXHmlFPZYMxejzAynlocWZ+TXhed52CtGZ22vtSb0rC/zc0OVrH3enNkmWXS3l+LgBQw96NMzZB84LZTeeZsTN6skotzAFtrZU15/9atQesMNIU9xZoasvl3P9m1shRKWP6Xv5iF95/HONBfIOyi98w4fUMIbXqPZPO+8aWI3sSB/IFdSdMH5IT6WCabfxoT2tKSIUuSBkOxjVrpbMevWP4yYhK49qH//O8riP/igS3g5hx9mXkRyJQg6n6HBum8VDXPMP2lOKLvrdlOg4UV9KQEigbroX/+yp0BL7+p0nv1Qi1I3w1HL7r035Bx2aGCOHp8v0bSWPnSwQrETQ8WLL0SkNI2IM9fWWqtCTyMLGdnyRx5SDCy3ZbvtdPA29oOjASR99PCQp4cGV5hLKusDKLIGC/gnJAjM22OQQdHll7ptlBIevQc8PB4c7caMGE7tt4VbJzP23NNoPyx/9a/ectMHLbJrapVs7dPSPDsgX55FHFrrLhJ8Cbtn+NGKueMOboWGpATOAjgG1+f6ZslSw0iZp1D60EMebJK1//4hfeQItzXTY+/ae321xPX3zeXOT9krFFwi6/7i855/BzsOuH76QIBHQ6WNp1D3/ge2/Bvq+lIKCuLRXBioRg6PaMN0diwjel5Zu04MZXLr4dRrPExkba61KvRcILEmtfvSW28z462tD/EmM7v79grxXcb7EFYqnnEDyw/Y9dWc5dowjUI6OHYb9XkMiFguHKEbimYPRhfnnXiCIbH0HdDOCiVYwkr5YXbsaLpn2j7peIPsE9ASsSguOoka3nN1kjX8HYq28tlnQuHZ80P25ClmGU7Xzhw3LuQff7yx59AoQ07xQ7q/vBduN6ENfRiwKS384EOX1SAyyYGGe5cJCke+5a+z4oT+vGePENu6X8gcM8ZeFTV6ksW0nVIF4p4BvqGJC2BP1n77uWMNr8ETasjgb0CuPpBbSq3QxRcq1GKMmyHUhIeEwpwRulT1vGrhm1yHCe+1K/Ra6CWGIlS//XYomDfPTf/ARD2ruy3DBaS1J4x3X71bVouZF7/h4PE5pMwQo0EDQfGc+vRY1Iu+nIKirswgD+qsYKbzjp4d4qNGhuRObe2uJTYHmY4ymkKgfGZmX74UBbTi1KBB9uGaQpW80nFHTaxEAxQAodpfvW1MRNlNN5u8ovy225wsQrkgJCivdWE5mloocwghGDkNXx1TYrlHJEMhjMjcc5K8kBEhhSlGm27ccK9QkknUqHUfc484PJRcfZUTkDwP7s8yhTQMSoFIhLl5ZL6ZWIOXkLHzzm75Nt0ZEGk+7wayCGeMrb9DxvCg/Y2rcNlRO7WjPu+gQdG4tZ/9zDiRFYV0a2OtdaFnodWAtHpu2IlzQvpYZml3jDQ5tFS9eoXs/fdzww5DKzYEwEhiGY4r95vpOxVP/1xC+agHaZCQA/cNRvqrwnzF0+VGSHHtAEtgbYHvP/+UE0LGuB09P48BjinMc2sjZQcrMCy18Jx16mhyhPj4cSbqhJev7JGHzd66+PPPHJcyHYWqiL0MCdAqE5/6OdaBv10m74GuLRJkX8u6u8lmHQk714WHQtjgurvu35d5ufY+qLNDnQ5BZS7Q2Um7RXMOusnC0XDTQRv+Omrv3KN2lOLkDY4faw5+CEBpI6UUBzQXeiuPOJd77HZoeTO0dntks85W+sCB9roIZUyUwefeANY3C+tsQErvuUvPe2aI7TA88gh1zcm6drgOcw8+2G22gJXwCNblWidCz+LC4Wgvu/+ekH34wSF1677W4gg+Wf3YgO2lyQ+Te3y3YuRPNhitjKUH48zYX6bmwvWPYAJuAVJcptix8uEHQvXzz4TaN14LCz/8wEqCv1n4j7+5bFlyxSVySWeE7ClTQgaxap/efrh89sbWH3rwGFNl9pkSco+ZHYrOOy+U3XpzqHz8kVD9y1c8+ZQOMV6bpBUosw0lHIKvj4QkIQMhCvRPdX94L9S8+mqolLCW3nJzhK8/4biQdcDU+kET35Y6GyjQ6Wno08sxfbbuQ/6c40LJtdfYuuNhfb10Sfh62VIrMSx4yR13Kh5WWKDfT6r3EEwlpU3pC6IWs+PAKLuOQVLNWVQowGzg6eQec7SfNz0d9KdQoqNtlpIr4KK6Dz6wgmupt9fStc6EHuvEcIa699+VK3+hG3Ag0iReAzPNIMn0wf1D3nFHOeMPL9qGgKLCS+EgwydeLNcyc689Q6oOUypDOUeNCpkKTbL23E2eylQprUMVR58ZKh6rt0gF+R6Iufif/wg1r78ayu69x7VksvypXbs6ycfhZDvh116eANDZbbaSBdwuxIcNcwkne9reIXf2EaHgnLNC8a23hArF6zUKhch2A8qBQ41Jpj/03eL9UM6eLIQ1hzf/o4+Mm6cRBlosiDAh48wcNzbERwwPsSHbh7TttwqpfZliFJFUovwRVuc75P2QscdClzEkU2EhiVI8FurTJm0hOSyPC+ueOWlPJ4ht4Ru9VnKrjRQnj9FZu8jhBF7BuhaeVS1QhnBJmGnq3HNDxpgxUvSdQlKrTX0vUvtuHuI7jQ55J53gZKxnQq4Ixs3NT+w1XOtM6BPry+zMqBMPNx+3pme3bzOzHVvpQe0YCs+bbwglcdjaqmOvyXLjTdICAz9yFGcxrDMJoZWrHsFwuXZp6i7tPXedMhKTVHDJE4taLFl6uvaIM3Om7hMyhwwxD3xsi76u86f23iwwmAKLlVAGbE/f6bNZiI3ZIWQedIAz/0VSQGX33x+qdDhAaS384P2w6G9/DUv+/a+wNCkpLIulGc2GsBA/mste3hagFfqvcbtx/7+3q9hV0e+RvISYsaDAh5XkG9UBSDuWSOEs+stfXE+vVagDAWqFwhnmoqOcsqUAoR1LgyxVXs13FJwbldrKwnVzMheCVAQ3fcSwkD11SqQ45bIzEZdrRaFxPYxKq/tDhIjMYRLuoAF6rYjSzEqzrUJF7tPAbUOmFHHBmXN91jaESUWEPcypBxtBs1PW5Ml65ps7hueeMHqMqTvIBVz3tB2vtO35xyT0/1VcRa86vfW5Mw8P6dtuZcFxwkauXdpWfXRDJoUiBvbLfVsdHu91sSgJQfmF9ck99FDDJBsf5ISFSZLGzt5vaqhW3P917XczrmSQ6aCq1YOvfPDBUHrFFR4BRjYaltrYsMEmu2j8ep9pJ1zfZLnDdCvGx+4k72JPT7XJV6hRcOKJoXDuGaHonLNDycUXhVIUwm23Oktf8czTnj9AHwAWDyrv2j/+MdRJYBf+/e/OeDPh1Fv/5nv8rPbjj83+yzMAU8Dr8MwoH5Ved00oueRiv1/hGWeEwpNOCgVHHx3yDj/Mnx0evrSRgy3QCDifhc3nYPtZd2xrZp+MvfeI8hi6DyXXXBUqH3rQQ09JXn21aKEJVb+E2favf1WY83gomn+2RzpBlMEI7cRr8yxIhmVOmxzy554ayhUvR6/zxXprH268UF51H36kUAVcvQR+q609uNOjwHWPCGmyDz7AI6tIFlMN+s5aXsB/TEJPAskQS7m/ZbRGTto9pOnD22Li5nencWULjx4qvvpKDxL8Rr+/vhfJKZCDJGDK5GLDP57G0Ib6A0eIktRmY0/uyZ1xqCzfC7KY34eC4g4DoiG5BaQSUAlwZCa75sycIfduVEjr3TOktm7l104oAOamJ/fo6t5q88N36RLS5G2k9egR0nr1CjFZjVjfvlKi24S44kT6y7MO2NeEGXmnnxryzzs3FF5+qcdaEyKUwMWmcAMmGcZieevffI+f8Tv8bqGUSN68uSHnmNkh68D9DHeNy0NL375/iG25RfS+vP9mPbS7R7TWmytG7QsKsLstWIoONkM4/Ixl2eDhTxs5LGTNOCQUXHaxcRq1770nAf08fJWfH74mXCEJuGSxp+NUS1kVK67PoX4vZZvSvVuUBFU4xGvy+un9+nkoqRud3nnbeQXTqVOqq098JvYPVbFg8U4IPDmOsrvvNlrSFp7BMG1b+3MAVMuQVwSqcOGH70fXvHwFay0JeFNr3Qt9/aL5pO63vwnF558XssaO9cFN4WDLtcW9pSU0++D9jV7Dbd0QABYcQlz0MsYcTz/YzUMNB7lzR1maviFj94mhWHEkuQvm7q9qeTa/3HEOKoLHjPx8CVjeAftLIe4R4oqF04YODakDFLf228KeQMIlRBngATTeVhDatPuigGgDZjYfffbQe2fup7BCFiX7sOlSMod5CETOkUdEm3/re/yM38ncdx8PnWCoJ1aZAZ94Msu/N/9uvP3+XdvrejePPJPhw0LmqFGGK+dIWeYdMcP8BKX33xuq9LkXMXBRgvGdJcEkvKt+441QeBFsTHu4qw4F6/ew8ugUYlJy2bvtGgpOOMGj1CiDEUolFkqW8IYqC+VUPC2qK9HkpXWfLPZ0HxiCHrxfHt1Mj1qHVp3PwGeh5Txj/E6mk2PQC+HY91ZC4H/sQg9QgmQd5A9F55wTsnbZRZYrKlv4Zig+pi2XGeLl995tzwCe/fW5sDqVcnVBjWXsvms0Grr+emmDBG9Al1vVyy/qkKWF/zazMYKD4USYFMqijz8KtW++Hqp//mQok8IruuyykCv3OfPgA0P6LuON9jNhhN6Tg9NY4BMCaKFTqAQ+gAy50YAQatBpB7+8Yt7YYFnqIYqjhw4I6cPqt/7N9/gZv+Pf3bZfA91Wcqd2Ial19PoJwV9++73btw4pUtqxnXYMGftNM0iGxFXpLbeEykceCTUvv+zYnITcUgn2V3Xf9+R41h58ecMN8vr2CikyCnaF9bmi92gTYlKEOYccHErkkdS89ppe7z9OFicWOQoUKqObyeBTLmQyb6XCndo/fmThp5d/XS3OOPmEiiceDXnHzNI9Huh2Z2YQcK94hvDd5c85NlQzviojvkastqu7fjChZzGLjewzgl84d27IHD48pLZvH1lPetS7SZPLwuQeNTNUPPyg3T8nN37orjxCkpoag4dwd7F+qYxX7t3DD5DsK2CQvKOOMqEmD7oxAUSLFi6oDiI5BOjHmLfHIQWyyxQeus2y5bbjvsdHDLU7z3jwtJ4KCbp1C6lyfVN7KQSQlTcLrq4R3nuISq0AaFqRFU7u0jYkd5Zn9Z1d/z1+1rWDDmhnJ9to2CHJ6NfEeiPQ8mrS+/YJ6Qxd1GdnVDIU3BljRjk0yz7iMIUFivevvzaUPfaYM9ZYPDLSJAr/u3SZP+uKFp4g97tAsT6ThROKJqWbQgMpsDhJr9lHeUy30YXlCgmWLYvKhgX5zk9U//KXDlkKFTrlnXGaCUFzTzkp5J89P5TccpM7+ECLflUMUGntCj8eBqW5qpd+EfJPPzmkjxiscGRTK00Txsq9JzQjTKy4776wTGfmhww7Gq8fVOhZ1JmXyCpWQkJ59NEhPmRoSGkfxfhoQthR00fvEPJOPiGavc1Aw5W5zWvZFaJsCKiD2jjotuwDFJORke7WxULkYYg9uhvnXnz55U44IfBr6/Ex33+ZQhuaLXBdqWrAzV8mJUBCjfCo4NRTJQCzQ87BB3n2HlN/6WIE8Zc2ZIA7tUC6eVIw19xVnoK8gKQOrdytltROiovNv/kedGBSuFYWW24ezZobJE9g1Eh5OLuYKyAXHrtjjg6FJ58UiubNC0XnnRuKr7jc+Y6Khx4IVS88Z0Gv/ePHYdEXn4elclub21hEq7WJQf7yl1B06aUhfYeRDZ4E7nDmxJ3lDs8L1c89a0WSULBfc5bkwle9+KL+7pKIc29fKchdJoT0sWMcptBWnLHzBCcD84+fE0pvutEJP9z/5npmq1oon6VS2FQ0CubPk4IeJ+XZpeEzwL8Q27JfyNE1lN54Y1j817+F/65HDMEPLvQsZqDDhwZbKdYyPmiQkzMWesAaci85xHknnyhX6XHTH9Hs0uRay0JPuc7ddG+/5Wx1hg4gyLpkmIAkPAhFbIcRIUcHrOLJJ416W5v4AlxEklouWRUWRpj1L74wGpDhCBAoQuUF1h6rVnz9daGA+vipJwew/ZmHHhQyFJvH95oU4rvtEtJ3HhdiY0crzt9B1z3M1Fqx4YPrt/7N98boZ+N2CukSLto6+XsIK3OOPdo8fMx4p7ebKSxVVAdeetH87FhmwjConL7MzopKhZWVVpot6yP4r5NvhH+AWHKOmBGSe0d4fDyZ3IMO8ox9SpKMcOZuUxlZSP3+UbnSiu/TR48KKf36GeYN4g+SjVQow3SW0uQJpen7YNuzdF+KLjo/1PzqLZcn13TxOcFmACYqPEsCv/NYvWcvh0YJbwWPLGfKlFB2y80ue+L5rM+1XoSeh4Z7VkdGX65O7owZHtGU0i5y9WnHTVZMSVNC/hmn6oA/bTJFrMH3VkLg15LcIWywrpbceH3I3n9fubVbOhONQoIui0GMtMyScKRVlThyTZbBLkB54+mByTWL//jHsEjCtPB3vwsLf/vbUPfOr0Pdr7Xfk4DpwBj9R5JK8SADQuv+/Cc37xBmlD7ws1By5+0eAFF0zVWegkqDT8FFF4QCPIRzzw4FZ5/lPIQ3/+Z7F+hnCmMKL7/MvHsw56JQyiWADEqsIudAbZ4tZVj1xmv6+qZjZ5QR4Q2MPDRbrQnOglBu4d/+ajQfOZTkDgo5OncOudOn23W3R/VNPYGI4n9c/ezDDw+pgwaGBR07hC+knBe0bxcN0eigkIUt1zpFlrYhdySFQDgCBNxepDPnq9eYQx4CpCAJuaLzzw2ZUrKERx6Woo2FB3JO/qrkyitMK7chlBPXi9CzuNEIPrTM1ILBHhtpJYtvDambZoaUPSaG/Hmn+1CTuFmXiRgWpR8QdrlMTZElpNuL7KsPjK4pc6cxoVguqCGTsmyr0xmXWF/X1ZqcA/QfoQxTa4qovyvsKThqtvZRIZ+vuNSXXORsf/Wv3wmLkpPCl5UV4WsURnWVk4JkqWlXplSE4HhyyscfW4FxrYBqgMnS5VUnYY22/s33+NmH+j39PoqMGj69EwgzrasLP/0k1FBqfPXlUPrwgx6TXCilwogl8OTU9JmBUKdQZ6mssbH+q7Eor3ku+29+HQrmnh6dhy4S0j33CmXyMhYzBSY/z/z9AJWyDz00pOp3khRuMb89ZcigkArMtf/WblnF2npgpoewRJN0eI4kBPNPOcV4hCV4D01d7yqMiRPTenbkCQrOmhsyd58YjUWrn9jD+6R17x6y9pgUimku+81v/Nk2hLXehN5LbrHnkdFbffNNIRvBB/3Wqn6QZPvWpnHGRc07/ZQoaSbrBkPKWk+CEMtLCyMgRXKX8TKSSYZ166xDI4sh9z6mh5iH1Xn6aaPWXANejcWBAQOQoIcqkvDgSmfssrNd0HTq4CTL+vd36AO8NGvaPiF3znGh6KqrQoViWwg5OEQImOvSek03vii+dPOLFELD1v1a5dbv+W/1WpS2uBdMVsWzAORDFrz4tltC/oXnhZwTjw9ZM2eErOkHKQyYHrKPnh2FAQo1UAAoEDLTxlu08B5Rr14GVv3BB0KWXOJU3YfYjjuGPCnDsscfDxXyPEruuCMwkDJd30/daiv9fKSvI+eM00LOmaeH7GOOCpmTAT8xBrq3XP3NXI2wBynFTS8Ek5nAJtQqZAJ2/b21EoHH8CzV56t57dVQeM5Zrrk7ydtR56QN77FxSOvUMWRNmBBKLrrI4KwvpazWxECszbV+hV7L2l0CxDxuRkMzqD91q34hadOI840afnKPbhL8nSLBZ7qM3GAAL2tzASBanJpiuuGcmYe7Br+ATD3twHIdUzfvHTLHjw8ll13mqbHMIludFQl8uckfy6GHUjyaMVWHe/CgkFzffUZMmj50iGmdc3Q/KGPmzDgsZB10oDcHnvHTxNVLYX+VwK7t5eESckcZRUWYwKy/3FNPDjmnaZ98YsiefWTI3HdqSJ8wLqSNHOEW6oy99gq58lKKLrxQMfij+ox/dlWipQtFRjjj1mx5VqkoPt2LrJkzQ7Y+e9bUaR57Hh8jZbjPPrK0Z4YyeSCVEsLK138ZKSiFKQCV4rvo+gYodOzdzVY/WYKP98br5p6m8yQFSmj1vbUCoTfKUoYHODQCnylPlIQp1t1JO5RKz55y6XcOxeefH2rfeMNw3A2JF3K9Cz3LTS6yKjSVkJjK3G8/Cd1WvoF2leRep/TRg2Iu23FHhzJZAfqrsVBrY2HdzDenuJH4lpCCHgG/N62x3buZ9NI00i+/7ITT6iwSfnTKgTGH/CHvyCNtzZN69woLOrQPSZ07hbTt+5sUsfC8c0L5ffeFqhee13vS0HK3m1LiUjxp22+nQ7tTyD9Vh/YZeT8pyfXvsHYWo5MADxVdeXnIktIBMBSfuEvInnmE2WuKFQ/j4ueffZZRgEBkU0EV6rDTp8AseHrhy+5hjvrfrFBbtHSf+EwoRcY4x6C/Jkknq5+yzdZGuNFW6xKeQkNcZ0IRxolz7fAhwGIMqApse3zcKClthH4TKfCISTdt0EBjIWDcWfzZv/2eq1qcN/Iolc/8XPf+JINsoByHKYmzwk7t0tmEKkWXXBxoHnKiV+d7Q1obhNCzEAg3KMiVLFJsm7UfRANbyiVrE1l8bW5ubMTQkHPcMRYaYk8IO9YkecTyFF5ZlkJZNKwXTTQGVWwiS7/pJjrIW3kYIokto8maSig2Y7nNUoeg6jUpF1knps7yuRIgG7qusuCzk0DV/P63ThJRv4Zay8CVm24KmZMmhSQdLCYJxYYOdecZSoGhCbx+cw5vk0t/x99/mZcfzSi86EILOu+VJFeVVlYaf4DQMlOt5ne/CxXPPh0KL77Qk1nSNu/lZFni8MMdyKCGCv3+YvAWAHJa4OqT3KyT4JI3yNhjj5DUvn0Dlj+lUyeX4GhzpnpA8nX59WVZuduSSfblHHpQSNtOSoOmHwZ79unlUWDx3Xd1ZQKva2X3zcoa8g6FYxVPPRnyTztJSneHkNy1o1uDF2yq8ymvMKVHD3uDheedaxKZZXLp13enX1NrgxF6llsR83J9oIqvuy5k7TvNGj6ReWXz0OhOgoMPFhISUZS2VnfxQMmGe97+gQe6jRYaI4QeZtlkxfRYOlhuOETOUK+ma0+mH/ANljLroAM8jAIBQej5CpkogwprJfCmzm6kzL6EjUieSN5JJxkoxO/TppkhqwJegGQglm51XX2sGAhE5qQXX3WVmW3AI3BtYBSYp0ZGf9Gnnxpg5VnqX/zHAzSKzj07ZI7a0VUOlFf0N51CfNcJIX/+maHyF8+HJanJLapNWwFJaAByUdaFIjrRjBQbpvskwaqVgWiMyGu8EGHCKIhJCs8/J8QppfVRbC8PDjxCcu/NFJqMNfiKpOfKhN4z9uWxlD9wnxTZbIUVIxUuRCPNEwo7hb743Xc3hwAlVe4RmIsmF2+V2OthbVBCz3LdU4cX1hV41OA+i0nwU6F35jC1kUbdrGtUOjv4gFByw3XORFMyWmGiRBYGFyuRtCLR5YQVSkZ/V/NbHYxzzg7x4cPlWbSOXHoJO11jZPAhuKh85pkoebeSw7Gqxd8THoAWoy6Oa5jUobUFGAxA9rQpoeKhB133XV6xcL10Y5Xec7e9AXIMJBjTtu4Xcg45xJl9Qp7VLSGSzCJ7X3LrrREgaYstzHLEwWY2uptDFOM3JA65f4sV32bEHYLQdQdSD8VshSShT91+W8X5k9xnXwP1eQuz1zxPmpRKrrraXAbJXbs49wEmofIlOBYz6n+z6UW+iDHkuPkMyaQvwEJPcpbK0F57+IyB0mtqYaW/LCl1NaT8/ntD7qzDQvrg7ewxJLVvpbMSVZqsfCdM0D26yAxLzICw17Wi9ZPQf3/xsJZi8WV1Sq6/PuQcfHBI37Z/SG3T9lurz2SZgf0t+MVXX2FOegZpUAZbfoHoA4EFeg6AC2EBgyo5ELXv/d5xIZhuKKx4iH6QHdp6bpoVy223eODFGuGk+UyKOxFOGHRTt906JGNxesqrkCWN+vKPNwKPUWFNLVz4Kll7uOHjI4Y5PoVqCsZb6u3Qc69Wa7IUGQlB6MFymUA8YDvTV1FFgeUFJcO8PpTR8uubL5eZ9KJUz8nz8hk91bmjPTI8BJKyJGfxEuDxi4Sh+af9azycF18KBaefHrIPmR7yFM4QVixO0Ws1I1YmIVn1xushT+FUbIwURw/F9vLgUqUssw6XsnzgAcfpyy+jMuNx5wsYLUWOAoEHWotl9xlpDxFGX3lbu7jXoFrvw7ldZVXnJ6FvenE4sML0eFsoD5WW7d+/AblnV18WP21AgkDhDFnjp0wdvHyjDhaWVk4SgMU33eh20oqnn3ZtvPi6a0IuWd4JO8m69Wlo8Ejp0C4i8JSFwxNYVrhmNVas1uJ//csjmAw86dE1JHVuH1I272HYa3zSrsaMo5RWhD4EY24WFllOl4l6KN5uvZHLmnTMMb4aiuWWLnsRsmYl114VMibuLKHtIIHH2+ninv/cE+aEyuefbbojTMujs599xo02sVFyffv1tdCTd0hq1y7EpZSKLrrQybWI+rv5cS6KdvG//+3SJpyLuPsw9jQJ1GpikRMhQVxw2aVy5yeEZBhou3TWde4Y8uXdVTm7nlv/29Hi7DEptwrQjdz17MmTQzrsSXpeyW0iwhN64tPkqWXtMzkUXX5ZqHnzTScQm6OI1vfaYIWehSKEhZbSUemddxm5Fx88OKR27Bi15Mq9oqfd6L1xo0P+KSeFiscejairior0AOTG17+GwwUJfO7JJ4YcWbPcE48PucBWJ+8V0ncYFtK2Y657Xx0KWSjFj+ZbmzVLgvR01J0lwViTxQAGEkbFV1xmiiS6xtwOu0WvkDZyaMg4bHoolnLDC1lRmELVoOqVV4yky1C8nNp3M3k8sjgS/swpe5nwY2lysr2Kliyy67DhMDmVUVi49JS33Oiy+0Rn6StfeclxfFMLT6rmD+8ZsJNxwL4hbchAt8FaOLRph82bM8edbzQVtaR7MlHipJmFvyWM4++NS2ATaqwkxwIegoEaBRecH9KkfJLwQvr2CdnTDzYF16IvpEDqPTgE1uXUf/8rGld+9vyQufPOIY1Sqj6HN4q6VzdP4MnZf6qJQJyDoSy3hmfkh1obtNCziKEt+IwslouYr8OTMVLWpEM0JNNJMJhINu8ZMtDeR84KZTfdZFSXYysJgEstn38eyp94POSefmrI2EeCPnqEZ7kD2kihC62HYlAJIKiqNMWNNLIwd99Q26YQWy1cdJnBmEvvfXzHEVJWKKxNgrH8o0eGzKNmheL77jWqbkXuIc0lMMTmzjk2xMeOCqlb9o5iy86ypruMc8vpYsX1LTp83F/F2tSdcw47RHFzZ99Th0/bb+N75RFLr726QqHHMoKDL33skZBzvKw91NZyoRNCT8MSQlZydz3b6wqSbytaKEHeo7HiBUAE2wwZcr6uqFf+y+LCUPWLF0Lu8ceFlP7bWOhjI0d4PBnP9qtG5cSlCp9q8CzvuVuh1onmQ0wD7ccZq/8sdCBCfJIng1GmsK9O4SHXsDLFs6GtDV7oWbiDlGVIZMGlln/ySYppdbDaRwcruV0bT201fzgx5N57u+sKnDgjj76urgnLivAY/mhses6R8hh2HBpSe5KhJy5u7c2sNM8S221iyFPcjLZfmpFZfxVrtkgk4oFgGXDNsRgIVgpTZuVCZ0w/MBTderOzxE15FRx8DimIvAx5J5TEUvv2dhnTmfLxO9mLAJ8fxc3NW2DZaWSBD5BqCe54JPStJPTb6r32DPnnzjf5JW2yTS0n3LLlhbz5Rig47+yQsdOYkNImIt9AYPAYMqbsHQouvdh9Asvyv+tOt3TRvUcOovajD9wPQNgAYMblW6w2HgCKYslihS1/CSU33eBSbGr/raXQB+r5zwxVOkeEJQlPARe/+te/CoVSnNlwGQwaaFSdGYDgKgAd2lsCTz/ISSeYH3DxP/5u8NGPxcIn1o9C6BOLhgviucpnnw2F8+ZFgyS3krWW9kYLNxyyzXqEzEl72KWDKJEaN8K7JD1dB+QPofyBe0PhaScoVts9Iuvst7kOu+LPVvWafPfdQsHllzokaKoGvDrLgqFrp0U2a/9pEYqrNa2tbeXi91G8uZOu9xzTXidaRxsvsubEjXnHHx/SBg6QguoeEWviqXAYdxkfiq+83Lx+LYkrUagAW/CisvaebFyEhb5da1t6hl/mzSV59ow7/ppcX3/jXoA6vXfJ9de5wSSlVWs/k2SFYHhUEIKA5KPOT9tyS0OQaEXUa0bEvfSS8zG44LTjwufn2QR/+2tY/Ok/7VUxLLX0lhsjWjL4CHbbJZqeLIFd8vl/6qHGRdGYsl88HwovuzhkKjxJ3TqqQjScKXktMAkRQhXMOyNU/vzJsPizfwX47H+Ma8MV+hVkN/3Q09KMdoJ0kKEZQGYTD4ivKYr3KWkxTCL36Nmh5OabDZYAR+5uti/+E+p+/XYov+/uqP95yp76/V4R+4weMCOo8i84z80tjFBaK0uHnJZdutaAs8ZGDg/JsiSmwlKoQvkuZ9Zh8mSecFiy/IJKquLhh0PW1KmBTrEkBmnAoafrZuAjpTHKl5SfWpIoo5aMEJYrtMiSh5QsC204qZQRlpF+dMKJcrnuMOM2uRQikD8xB8H994ecvfYOqW3bRs+irSwkLD5SrpmHHxrRoUnIVsc6Qg9tAJdCt6IrrzR+nt57uA1yDpnucVF0z5UpjCi+5spQcMZpVrBAhTP2lseCwIJgXPB5NDxDbnntu793w1cewzj2mOiKEFl5zlJip267jSsuRVdd4Y462IEbMx//2NaPTuhZxLxkZdHmkCLk0AKrA2rmFzqr9KA4cIyOTt16K7l200LhpReFyheelRX4JHxVVOhe6iVpKTpA74TiG+vLgkOHhrQt+obYkMEhe9YRoexn9xnn79q0LDWHe00WyD9i2pJ77jKkleGWyXKnETKuN77DUHdskalm7huZ+C8l7JQbQckxnTZj9OiQjEBRTpPQk3yk3AfYp0yvy4Fe4Y1rYlnoY7L01LL3mdKQK2ESD8JK9j7rkIMsSB63tILFOy4Dh/DM0yHvoIMiKjTwDpTHdI2pg7ZzjwHWGeab/64GXx3uOmU0kpn58vRiO+wQktq3Cws22cRddZBmIJzZct+zDjnYTTdwGGZKOeSfOc+TcRbp+X+p2B0FxjgyQFcQbMYULoGVoEvO7jzXrs8QGzJEr3VIKL7h+lDz299GeQ3Owo94bfhCv5Lzi+tNiQtOPeKszL12D2kS/gSRJBthSu2/jaz5pJB/6gn63TtD3fvvuQX0y+rqsKykxO2oVU8/HYovvMjIM/jYTeJB7KZDzLRXQC9rmqzBGmKpCDFKKEPOmCEXevvwRatWkXVVjB/fcWTIlTtacsUVofyuO0O5FE/ZXXcY9UZ/fzqEmfIQPIdebj3lPhKBsNfSjLQ0Hqt/t+YtEp1GJD78YMjZT14ELDs69ClM3sWLkMAyjspJws8+q/+rptfXlVWh9rXXQv7so0JMIQvsr2TxU+Dck4tPJaBILrTLkqvRIu37R/mV8dyy9Bl77B6SunRqQMUlAbFVzJ6++66uIuDWF5w1z/caUBRU34v+9c9Q9957oVJeEzTi2Xvv5VFb5HZ4jYQCBt/P6+effnoou/9nphJflpu34hp88/Xsel8/qph++cUDwE3D3YK5hNHRmdOmGmRD77tLLGxotrfsbRLI7H0myQ08O2pP/c9/jLgCV41Vhae89OYbPWAyLqvB15KbbzJtFSAPW/s1WbjBS5a43s6oZpo9shH8QbL4beBRk8Xq3s3lwkwaXPT+2YceFLL3nRIyxo8J6YorQeBh1Yjl3TgiCxWXUBacM9/94UBXW7Lc85CdFSqefCzkTj8gpPZS6EBuA6tH+NCtc2DQZNGF5zkRubIFqKiO8pjCl/RBA1zvdwgC1l3hS4bi+qKLLwgLP/pwtSw9zxuvCxAWFFkw7MYn7W6gU0rf3iF1m35mAs6cflDIm3+m7u9toVr3BFAWuHkIRypfeM5JXui14/K0Yr3gGpRX0qGdhd0C37uX5xIUXnKxvQqYiyjl/Rhq8M1ZP2qhb7wM3VUMXgyC74gZIWPMaBNIAlXlQaLBsfwp3TqYZJESTuk994RauWxLU1JczwXfDiag7M7bZAVOC4Vnn+XGHjD3/GyNhT6x/qv4HuDRxx/Kitzv0VcQJmaM2SmkDxsm4R4UmMBKD33m5EnyPIbUJ+1w5/s4hgf8Yj55WX7c75Lbb3VZEwXWkoWB+kreDnPf82YdFlK36BmYMJzSrVMwC2+bVq7dU8NfKEW1sntAaRRuhEJ5JdzjZCCvcBJw7X16howJO5mqauFHH0joV79D8ht5XQgiQz0IzSDcyNPzzD9hjhN73IuKX7wQav7wblgoL85z9uAEeOQh53AyYTbWdSWE3OFM61YhlRZuhXY506e7NRcgFNWfH1M5rjnr/43Qu+yi+JeDD88aPd3ZU2X1FaPzUBtcQKyYrGRsmGI1/Rx4J0ksLO+SzEwn0cjmLpQLCU8/ZRmPPYaVd0Wu3WosynLUx7FAtW+/HSoffTSU3nBjKDrv/FDAFJkLLpArfKkUwsmmYYKZlq4uynQQQ5hhVd4BhzT/lJPlvr5oHHxLynWJxWer/dVbEprjFB71cz8A+RHiekIl+OfzZs0MNa+/tlJsP9Z74R8/kiW92M028OZTDbHgb76Zx141WPo1YUDSs4ZnjqQs2fo6PSvARbVS+rAAQZ7JvIK6T/7ukh4c9EXnnRNyDj9E3sY4eUtbNCDrOBds8j8Zo0ZF7cp6FvQhuHNxRdyMP+L1/0boWQg+5S4QdMwQY0pKNg07W20l961DxJlmKGUrz1ujzp8m1zBr6j7mkoPwEatADzTQXdo7aQltSTa8RUsW341ANTXhK70faDoYYYEMUy6kBRerlTPjELvxCD3oQ1xuyEWI7TN33dX9CTSFuANwdZKNUmbE2VhoXHnGadGYQpyLJWT4Zs4BB4TKJx93KEBtv6kFu+zCv/zJvRDQhqdIOaXQW4DF7yf3Xt/jZ/zO2mKi5VrM9FOre1gmbw0yUVlnKgQAioqvuSrkHHJgSB8acdCngKjr1E5bZ6Fja+MSUrp1CxnysApOlvKUh0BLM+W8/28WPrH+Xwl9YnHsnfCR8JTLhS885ZSQNWWfkL7DCMfDCXc/4fJjPTP22NUWs/T22z1IgdIXmv7rFkBG18ayuw0eQYqr+t3fheLbbg7Zh09X3L+dlFYbu9ueetq2bYgNGOC6PfEtCULGR6/uwuMwiGWfvUPqdoqR8Sw6RqERgz0APNEDAUzYpBhNKBd6Bhb9/a9SQtc4LEnp21NhSEfDVlMHRGWv0jtvtyf13xVNZ13NxdUg8EwMrn3zjVBx771mM87ed6orO2DlG7w9bRRAbMTgiO1n1pGh5OKLQ/XzEUx4TTopfwzr/6XQs3CfzTKreB03vfSuuxTHz3GnFfRXibIem9gVwWd4Awm03COP9Jhq+sCx/IxEWmHWdh0svJWF//pnKH30oZBz6kmRq6xYPrnVxna3KfOlbbddyD7sUOclEMSW4NmbWpQF4SBkQAS1eXIHDiFw73t09X0pBLtAJ1mWrH0TdXYL/d/+Ig/r6pAxaVd5DF0UIrQOqZt3130f6b4H3mOpBGuthkryGpgT4Bhf7w2jTtZuu4aMoUM9ITgVz6hNPeEqz5uwaPiQAJ1W8S23hOrXXg9LPv3UydwV3sf/R3rg/63QN17fwLP/z39GM84BbOw5KWQoFo717RNS5S7jxiYOhC1/r54StF3Muw/Yg84uWmsRDOJwu35r8dB62IMOGwm1ZXItF374gamiaAqKTRjrkldieGNyh/aeoJtz6KEuRdXqd0GVrenic9VC/X3LTSFr/31Dmt4zoRShDmOIZc4Rh3lsNKFEk2QdCoMW/VXu/eWXBEaQMwcPJYWlz9hr91B41RUOW9b0eqnXA7ml1RcPBSRe2b33hDzF49TlYcZpwGqw5R2RV0Cxx/pvGzInTJCHNCeU/ux+k5qsEnWJwP8k9BvQSjyQVTwU4l0otKtffz2U3XVnKJx/Vsg56ADDcGHHwe1LJHUQfAQNskfi/bzjjnWZh2EPHDCQfS1tGlnR+lrx6DJ5EosXLDAAp+Keu0Px3LmOoWPDh7kVFMHhAKfo8KYPYt7fDM+9q1McThizOsm75dc38i48QFIKjkkw6bQZ6z39vrQwb71liI/ZwX0PlEebIiZ1TP/Be6Hw7HkKPbYOX+i6ua8QUdLMQ7OQu9rWAL7KUFFwBSiPikcecr8B15u977SQPmrHwHALKKwSz9PuvCy7YbT7THYjTekNN0T5G6x7eXn9K69gNfN8/ZjW/4zQE4NSUiLZQ7ca5T2SZBBt0kSRSjfVppuahNNWFXaVrtpdOhvSC0dc9qHTXbuF983ZXSiRamqcjGsWYk8/RzDAbEMO4ezzJ/8INb/9dSiTQBSePT9kywtJ77elJ7skKwxJatc2Ysjp1NHJJlzXMsWrUDzxWdZaGVGeC59jyb//HcqYqT5mdEhpHbn3ZPHhkCcOppJQesN1UVzO55Z1J+FFjE6Sr/LpJ0PO4dN1/R0jBbrpJmb2LTz3nIiXALzDChKBTS2/Nh128tbAICCozIsruupKZ+NJPKZRa6fdWl4QBB6+XuiuQep17hwhLKV0iq6+0nyCiz/9lz0bIy1/wLBtQ1n/O0LfaEn0wrKiQk8yZbAFmG2w25m77OwDwjgkDg4WH0tha6HDn7bdNu5wyzthThTzP/poqH3rTXe/wd66DNefg1T/Pssv15c/+8yJpkp5DaU33xyK5UFAbpl98EFmkYW8IxFmIPQwz1BKypk82UM/Kx552DDW1aGWbs76WiFG7S9fC0WnyFWGhbZLF1v7hNVM671ZyJXyq3jgfimsv4elGelOeIK7hxsOBFz6sEH+mwVSGmn9+4fcI47QfX7M96i5XsnXUihYYRJri/70p1ArD6TqkUc8H6FA9wsMAxUNyD4Sz8jPScKOl8ZzhMEY6i9KoIy1RumYG0Gv/b+8/idi+qYWmHP6sJfqINb94d1Q+eQToVjWI/cYWf7ddg6p/bZwPJgQQLu5snQAVaiNZ4wdGw1FPOF4WZCrzJTLFBi4893f3UR9lyEOVc8+YzBJ1t57ycMYa8EigZhGfkFeBdBV0zlt2Tek7zQ6ZNFIct65oQIsgUIL8O+gw9ZVOQnrvSyW7mGMKBlYb8CiJ4Qe8pL0wQND7pFHOBMPTRkMxpX8/qUXmxUopUunSElus7XHTjGBF4BTc/n7PPlHXlStlFvl88/Lhb8i5M+aFXImTQpZE8ZH+Zht+hlvQVa+8TPCYyMRCXU2pJc0KTFsAq49E3A0lYv4H1v/s0LfeHHIsAAAdMpkSQsvkOWffpBJOXC102hjhSEXlFrb+iEcCABota1liSftZkqpouuuCeVPSvgVm8OSQ1KOpBWJIuidFss1hWsu9+ijJPBj3OADExA7QztTApa1x27m6+P1oKEuvf8+hSIS9uQk5xF+iNoxlQ96E6pffjkUnHaaFNMIKUEJWc+ecpc7hZTePU2UkT1rRii8/JJQfOvNbkWm0YUhEiTLMvRZCEXKH3wwLFQoQPKz8aIsZozCwoWGUn+l+8QQzCX/+cwMx5W/eCGU3HWH+QCNoNusR9TbntjuD+gUUnv18IBKxmjHceOnKG6fNzeUSknSTOW+Cai1/p+X4VqyfhL6+oUwEefRVeeEGnx6it/zjz06ZE3e2wk/UGUI+3fcSW2w5TDGZsp658ycGQpOPcXzyzys4pVXQu0HH4RFn/3baEHi0ZJbbg6F58yX23l6KNIunjcvlJx7biiTx1Bx7z3yBp52Qo22T0AmywryfnBkGG2sHs4owS9RCALdFczE8dGjQtrA7UPqkIEhNnFnk0vmSEHlHH+cOxOzDz/Mic+Syy8P1c8/F/HZLQfEIY6GVhriCpKrjBIDI1+J+379daHo7Pm678c65IFwBARi4r4nPA6HP926htiIYSFzr0khb+YM1+VpUuLe4Vnw+v/rrnxT6yehb7RIimGRSJAtUywJ5XPV88+69psr4YeIAfLMFNpaOXTaHo7YpaO8gC6BVkzKfbG+cs0ZS7XPPi4jFV13nUkdIVr0tNe33wo1b7xuWCvxPU0qCz/80FRX9g7y812+I0NOVv2HsO5NLSwxFnjxJ58YsFR2112hYP5ZsuizPB0m44D9Q9ZhEnrdG2jICvBM7rhd9+x5Q21JVBolWJ9sBDlHjwPfZxYflRBGkTPViOnEVFPomYhvu21I79NH93HzkNaH5iLCnmiIqD0sbcY/p48a5RblQiklmH+gQqf5yveOkdY/sKL8sayfhH4li9LSknjMI5khkTAWXi5rjix6pixefMggxa1ye3tEZbXlLRGZf1CAUDXBFFt44YWh7I47QpUOevVLiRnvv3NibnFSkpuGmJ6DVd/QnFEUED3+wJs9FlthRzGJyBuu9yDI0p/dFypfeN5DNxjbxTRYmoqW5kYTdRfT9KL7WP3KS25rLbv5JvMD0CiTtd/UkD56pF11hLpxjO6ps727hdRttwixQf1DfKQ8ql0nhtxDDw0FZ5/j66AxBg7EljYb/a+un4R+FQsgCIcXN3Xhxx+HmpdeCuV33xWKObDHHG0KpdjQgeaq46A2FnoObWrP7u7xx/JnjBsXcmT983VgC4+f4x552G48fPHVV5wIXKi4f7G8jKUFBeHLqipbxw1lfbNkqUlKASnRW4+yAitQ6zHX2n/5c1j4yT/c2Vb3t7+Gmg/ed/8AnYqMpyo8a27IO2pWyN1335C9+24hc9wYCfHQwIDJ1D49TK3FfeP+NShOkqe6v/G9dpeHcYS76Epvucl037W/+73psZnMg2X/aTVv/ST0zVkknagX4+6WljmDDtsuYJPCyy+z68+0lPRhg+WO9gppsvDU1YF/cmhRCEmtW0XhwMYbh9RNNw1p3eWeKjYGQZY14xBP5IWjjaQY/PyVioer33orLJTgLJYgLf3ic/eRMwL6y+yc8FVhUfi6vMIZcbDwJCOp/xMOACX1NJ8l9aOqqXOvavN7/A17Uf3fN/5vvT6dbVFTS76bkpamJjvxtujvf3fDDiUxoLCwDpfceYdnAzLNJ/uw6Q6NYttvq3vSNaS2ahWFR5tqm5C0U0jFmvfU7trZZUJ62tOHDg6Ze08yXLbgogsiq/7WmybC8AivhQp9moOP+Gl9Z/0k9KuxSA4xHXWRrAwHvfKZp92MQq94/vHHhpwDDwiZsmTpo+Sy9t8qJEnoE65/Yn9ryXTgB8gT2GmkOdoyp+0TsqdPD3lHz44SgufIG7j80lB243Wh/K7bQ8XDUghPPSU3WZ7BO++4qajuo49MEAEBKL0C8LYz9IMJPrjWZLCb3Gn1W/9enJxstBwU3Pw9IBiAQ1jzhX/6WO8hSy4FxAhpwETkI6qffzZUyYpXKGQpu+GGUHzppaFg3lwJ6eyQybRb3QOGX6Rus2UD1Lmpe5CsmB1rz4zCzD1280ScfHlRAHpKb7nZYCg4Dhf+Q8oPq76qPgN0wE96YIXrJ6FfzUXDCaUg3F2QaMSUJK8gTiy77x5Pq8k5cU7I2G+fENuxPvPfKurhTmyXnjq3CSk9Zd36gA3vaXw4VE2xfluG+LbbhIwB8gZGEBqMCpmTJobsA6eZwjnvlJM8ygpPg3lseAiUuErvv9fhAgkyT/F57rlQ8cILTe9f/MJkE/73c88aa1D22GOh7JGHQqm8DSYBgVosVghSdOUVnlBbcM78kD/3tJA355iQO/3gkDNpj5A9ZkzI3GGHEKfBRdebutVWIaXP5i7tgbuHeotmocaf3Z9f7jyEoOk7Sdj3nxpyTzre9w0gTZWuqe7dd13mZIz4l3g28mporlnl+knoV7p+Evq1uHCD7QH861NzqJfJQhXdfH3Inz/PY6eyFP/DCR8fNtSuffp22yje3zKk9utlwU9u38rCkLCA5AS+k9gCEks/uAQKxhzKhPGJO3tKD9TNWdMPDNmHH6r3OsIgI9pumXKbd8opriLknXpqo63/Pu1Us/ZAHIESARvAGHDc6ewjZoRsyCX3m2am3fguE4xtZxZ9Wn/F4FB2tYuagBpfY8Kj8Wdos6k5+eGLd9jTt0+IbSOLPniQS38AlHKlwJjYU3zTDaH8ySd83/BW6Ik3L2FLYcYJgf9J6Fe4fhL6tbwSNWgGGS5K+iLU/fXPBokwQQaSy1JZ5aLzz/UILlBtUDTTOps2bJC9gQWtIoFJCH5CiJZ3iVEAYPIBDaVtIe9g2y0ljFuZFARwTPqAARKuwQYAmYJr+PAmN5N6M/Tz+Aj9e+SwEJNXERs6IKRtp/hb3gYKJnmzHlI2Ukp6P8hHlhfyxG58nXD6w12QNmRAiI+XJ7DnpJB90IEh75hjPJufcdhwHVQ+94xLd/QS0HREtv8rEphrq6fgp/W99ZPQr6NF4g9XlKQaHOlfUb5S/EzSC14+EGeg86hRFyh2xcJiVdPHjpbQygPYrHtI69ghpLWVYLdRCABxZsPmv9v4+6lAdrsxJRZOO7nR7SWY+v53No0zK9i8rl+nQ7uQ2rVDRHpR/zpJ+v6C+s2/E+/JV66DhpyUVq1Cmr6m6Xtp9Pn36B5i2/U3m3AWjLTHzA75Z81zGFJy++2Kz2XN33rTLa3kHMDtm3SSpJzul1mKfkrMrdP1k9D/wIsQAGbdJbGY3Nh/eipv1euvh4qnngpld98tC6jYef6ZoWDOsSH/iMND3sEHhZx95brvvXfI3G03Y/7TFT+nDxkS0rff3sMhmSAD2y80V8mdOriVNEkWOWGNV7ax2s4tEDq0lRXvKIGGMYeONai2uykm781AjX4KR7aLYMN4CDvu6BJk1u67h1xASAce4FJkwbFHh0IJefHVV5qHH75CMvokPBF0Sp9L8/MCM+RaBDr6yW1fa+snoV8Py17A4sWOWU2ckZfnMceUAl3++uD9UPv2m256qZLQAAkuveOOUHzttcbj5505z7E6WXJi+KwD9vNgB8piTOdJGzHMM9tS5aKnMParT++Q0muziKSyYeu/e/cMqfoZAybpIWB2He542oihITZKimXcWGfgM6fuE82Gn31UyD/xhCgPMP8sN7SU3HB95KYzRvq555zVB4Sz6C+y5EwUSqcLL/fbHoS6ug0SfPS/tH4S+g1s/ffraMou03DoCqMRiFgX0EvNh9HAxopXXg7lzz4byh571I0lUD4VXXNVKLzkolBw3jlSCnND3qknR4m5o48MOTMPDzkzDnX/ecPmv484zAMhGNlNE1CuQgzYevJOl1CfPd8Khr714puZ6X+3cQkM/yDjX/naLz32q/bjj8xeQwssyguYLUAZd7P9D/aq/xjWT0K/AS+sIS3AX6ME5BUwjYcEIaOdFqekhEWUCUG/yW2uk0KgQQc3uvpXb4Xq1151cw+Jssqnfx4qn3pS+4lGW//9tPYzT0W/w37+Oc/ao2GF5BqvRzMMSTYy6jAGQUDCLMElUkZLJeTMAwAc9JP1/rGsEP4PxiSFQmsAdmUAAAAASUVORK5CYII=;" parent="1" vertex="1">
          <mxGeometry x="225" y="180" width="100" height="100" as="geometry" />
        </mxCell>
        <mxCell id="LMlnShUBKolkGBEQVCgW-20" style="rounded=0;orthogonalLoop=1;jettySize=auto;html=1;entryX=0.5;entryY=0;entryDx=0;entryDy=0;fontSize=20;" parent="1" source="LMlnShUBKolkGBEQVCgW-9" target="LMlnShUBKolkGBEQVCgW-17" edge="1">
          <mxGeometry relative="1" as="geometry" />
        </mxCell>
        <mxCell id="LMlnShUBKolkGBEQVCgW-21" style="edgeStyle=none;rounded=0;orthogonalLoop=1;jettySize=auto;html=1;fontSize=20;" parent="1" source="LMlnShUBKolkGBEQVCgW-9" target="LMlnShUBKolkGBEQVCgW-18" edge="1">
          <mxGeometry relative="1" as="geometry" />
        </mxCell>
        <mxCell id="LMlnShUBKolkGBEQVCgW-22" style="edgeStyle=none;rounded=0;orthogonalLoop=1;jettySize=auto;html=1;entryX=0.5;entryY=0;entryDx=0;entryDy=0;fontSize=20;" parent="1" source="LMlnShUBKolkGBEQVCgW-9" target="LMlnShUBKolkGBEQVCgW-19" edge="1">
          <mxGeometry relative="1" as="geometry" />
        </mxCell>
        <mxCell id="LMlnShUBKolkGBEQVCgW-9" value="&lt;font style=&quot;font-size: 20px;&quot;&gt;天气驱动城市数据挖掘研究小组&lt;/font&gt;" style="rounded=1;whiteSpace=wrap;html=1;strokeColor=#b85450;fillColor=#f8cecc;" parent="1" vertex="1">
          <mxGeometry x="150" y="390" width="430" height="70" as="geometry" />
        </mxCell>
        <mxCell id="LMlnShUBKolkGBEQVCgW-17" value="&lt;span style=&quot;font-weight: normal;&quot;&gt;文明城市&lt;/span&gt;" style="swimlane;whiteSpace=wrap;html=1;fontSize=20;strokeColor=#d79b00;fillColor=#ffe6cc;swimlaneLine=1;" parent="1" vertex="1">
          <mxGeometry x="47.5" y="580" width="200" height="200" as="geometry" />
        </mxCell>
        <mxCell id="LMlnShUBKolkGBEQVCgW-23" value="人员：3-4人" style="text;html=1;align=left;verticalAlign=middle;resizable=0;points=[];autosize=1;strokeColor=none;fillColor=none;fontSize=20;" parent="LMlnShUBKolkGBEQVCgW-17" vertex="1">
          <mxGeometry y="30" width="130" height="40" as="geometry" />
        </mxCell>
        <mxCell id="LMlnShUBKolkGBEQVCgW-26" value="研究内容：天气驱动的文明城市管理" style="text;html=1;strokeColor=none;fillColor=none;align=left;verticalAlign=middle;whiteSpace=wrap;rounded=0;fontSize=20;" parent="LMlnShUBKolkGBEQVCgW-17" vertex="1">
          <mxGeometry y="72" width="200" height="60" as="geometry" />
        </mxCell>
        <mxCell id="LMlnShUBKolkGBEQVCgW-18" value="&lt;span style=&quot;font-weight: normal;&quot;&gt;交通运输&lt;/span&gt;" style="swimlane;whiteSpace=wrap;html=1;fontSize=20;fillColor=#fff2cc;strokeColor=#d6b656;" parent="1" vertex="1">
          <mxGeometry x="267.5" y="580" width="200" height="200" as="geometry" />
        </mxCell>
        <mxCell id="LMlnShUBKolkGBEQVCgW-27" value="人员：3-4人" style="text;html=1;align=left;verticalAlign=middle;resizable=0;points=[];autosize=1;strokeColor=none;fillColor=none;fontSize=20;" parent="LMlnShUBKolkGBEQVCgW-18" vertex="1">
          <mxGeometry y="30" width="130" height="40" as="geometry" />
        </mxCell>
        <mxCell id="LMlnShUBKolkGBEQVCgW-28" value="研究内容：天气驱动的精准城市交通管理" style="text;html=1;strokeColor=none;fillColor=none;align=left;verticalAlign=middle;whiteSpace=wrap;rounded=0;fontSize=20;" parent="LMlnShUBKolkGBEQVCgW-18" vertex="1">
          <mxGeometry y="72" width="200" height="60" as="geometry" />
        </mxCell>
        <mxCell id="LMlnShUBKolkGBEQVCgW-19" value="&lt;span style=&quot;font-weight: normal;&quot;&gt;健康监护&lt;/span&gt;" style="swimlane;whiteSpace=wrap;html=1;fontSize=20;fillColor=#d5e8d4;strokeColor=#82b366;" parent="1" vertex="1">
          <mxGeometry x="482.5" y="580" width="200" height="200" as="geometry" />
        </mxCell>
        <mxCell id="LMlnShUBKolkGBEQVCgW-29" value="人员：3-4人" style="text;html=1;align=left;verticalAlign=middle;resizable=0;points=[];autosize=1;strokeColor=none;fillColor=none;fontSize=20;" parent="LMlnShUBKolkGBEQVCgW-19" vertex="1">
          <mxGeometry y="30" width="130" height="40" as="geometry" />
        </mxCell>
        <mxCell id="LMlnShUBKolkGBEQVCgW-30" value="研究内容：天气驱动细粒度健康监测" style="text;html=1;strokeColor=none;fillColor=none;align=left;verticalAlign=middle;whiteSpace=wrap;rounded=0;fontSize=20;" parent="LMlnShUBKolkGBEQVCgW-19" vertex="1">
          <mxGeometry y="72" width="200" height="60" as="geometry" />
        </mxCell>
      </root>
    </mxGraphModel>
  </diagram>
</mxfile>
